<svg xmlns="http://www.w3.org/2000/svg" xmlns:xlink="http://www.w3.org/1999/xlink" xmlns:lucid="lucid" width="946.02" height="1095.94"><g transform="translate(-40.000000000000014 1166)" lucid:page-tab-id="0_0"><path d="M179.93-1079.52c0 22.08-17.9 39.98-39.97 39.98-22.08 0-39.98-17.9-39.98-39.98s17.9-39.98 39.98-39.98 39.97 17.9 39.97 39.98z" stroke="#333" fill="#fff"/><use xlink:href="#a" transform="matrix(1,0,0,1,104.97827267789245,-1114.4996952878394) translate(28.525 38.4625)"/><path d="M139.96-1038.54v55" stroke="#333" fill="none"/><path d="M139.95-1039.04l.5-.02v.53h-1v-.54z" fill="#333"/><path d="M139.96-968.8l-4.64-14.25h9.27z" stroke="#333" fill="#333"/><path d="M133.56-964.78c3.53-2.65 9.26-2.65 12.8 0l67.15 50.37c3.55 2.64 3.55 6.94 0 9.6l-67.14 50.35c-3.54 2.65-9.27 2.65-12.8 0L66.4-904.8c-3.53-2.66-3.53-6.96 0-9.6z" stroke="#333" fill="#fff"/><use xlink:href="#b" transform="matrix(1,0,0,1,65.00000000000001,-964.5811727457428) translate(67.505 24.7125)"/><use xlink:href="#c" transform="matrix(1,0,0,1,65.00000000000001,-964.5811727457428) translate(37.15499999999999 46.3125)"/><use xlink:href="#d" transform="matrix(1,0,0,1,65.00000000000001,-964.5811727457428) translate(95.95500000000001 46.3125)"/><use xlink:href="#e" transform="matrix(1,0,0,1,65.00000000000001,-964.5811727457428) translate(27.604999999999993 67.91250000000001)"/><use xlink:href="#f" transform="matrix(1,0,0,1,65.00000000000001,-964.5811727457428) translate(62.255 89.51250000000002)"/><use xlink:href="#g" transform="matrix(1,0,0,1,65.00000000000001,-964.5811727457428) translate(77.755 89.51250000000002)"/><path d="M246-909.1h-28.95v-1H246zm37 0h-13.1v-1H283z" fill="#333"/><path d="M217.07-909.1h-.54l.05-1h.5zM297.75-909.6L283.5-905v-9.27z" fill="#333"/><path d="M299.37-909.6L283-904.3v-10.64zM284-905.68l12.13-3.94-12.14-3.96z" fill="#333"/><use xlink:href="#h" transform="matrix(1,0,0,1,246.01181423595665,-920.4137637289041) translate(0.005000000000000782 14.4)"/><path d="M299.87-961.58c0-4.42 3.58-8 8-8h143.9c4.43 0 8 3.58 8 8v103.93c0 4.42-3.57 8-8 8h-143.9c-4.42 0-8-3.58-8-8z" stroke="#333" fill="#fff"/><use xlink:href="#i" transform="matrix(1,0,0,1,304.8696360673547,-964.5811727457428) translate(40.599999999999994 38.4625)"/><use xlink:href="#j" transform="matrix(1,0,0,1,304.8696360673547,-964.5811727457428) translate(72.5 38.4625)"/><use xlink:href="#k" transform="matrix(1,0,0,1,304.8696360673547,-964.5811727457428) translate(13.625 60.0625)"/><use xlink:href="#l" transform="matrix(1,0,0,1,304.8696360673547,-964.5811727457428) translate(96.47500000000001 60.0625)"/><use xlink:href="#m" transform="matrix(1,0,0,1,304.8696360673547,-964.5811727457428) translate(34.525 81.66250000000001)"/><path d="M460.78-909.6h62.08" stroke="#333" fill="none"/><path d="M460.8-909.1h-.52v-1h.52z" fill="#333"/><path d="M537.62-909.6L523.36-905v-9.27z" stroke="#333" fill="#333"/><path d="M539.74-971.4c0-4.43 3.58-8 8-8h143.9c4.43 0 8 3.57 8 8v123.6c0 4.4-3.57 8-8 8h-143.9c-4.42 0-8-3.6-8-8z" stroke="#333" fill="#fff"/><use xlink:href="#n" transform="matrix(1,0,0,1,544.7392721347093,-974.4137637289041) translate(20.674999999999997 14.4)"/><use xlink:href="#o" transform="matrix(1,0,0,1,544.7392721347093,-974.4137637289041) translate(92.425 14.4)"/><use xlink:href="#p" transform="matrix(1,0,0,1,544.7392721347093,-974.4137637289041) translate(21.125 36)"/><use xlink:href="#q" transform="matrix(1,0,0,1,544.7392721347093,-974.4137637289041) translate(66.025 36)"/><use xlink:href="#r" transform="matrix(1,0,0,1,544.7392721347093,-974.4137637289041) translate(97.925 36)"/><use xlink:href="#k" transform="matrix(1,0,0,1,544.7392721347093,-974.4137637289041) translate(25.599999999999994 57.6)"/><use xlink:href="#s" transform="matrix(1,0,0,1,544.7392721347093,-974.4137637289041) translate(108.45 57.6)"/><use xlink:href="#t" transform="matrix(1,0,0,1,544.7392721347093,-974.4137637289041) translate(7.625 79.20000000000002)"/><use xlink:href="#u" transform="matrix(1,0,0,1,544.7392721347093,-974.4137637289041) translate(93.575 79.20000000000002)"/><use xlink:href="#v" transform="matrix(1,0,0,1,544.7392721347093,-974.4137637289041) translate(115.47500000000001 79.20000000000002)"/><use xlink:href="#k" transform="matrix(1,0,0,1,544.7392721347093,-974.4137637289041) translate(25.599999999999994 100.80000000000001)"/><use xlink:href="#s" transform="matrix(1,0,0,1,544.7392721347093,-974.4137637289041) translate(108.45 100.80000000000001)"/><use xlink:href="#w" transform="matrix(1,0,0,1,544.7392721347093,-974.4137637289041) translate(27.599999999999994 122.4)"/><path d="M700.65-909.6h62.08" stroke="#333" fill="none"/><path d="M700.67-909.1h-.52v-1h.52z" fill="#333"/><path d="M777.5-909.6L763.22-905v-9.27z" stroke="#333" fill="#333"/><path d="M779.6-961.58c0-4.42 3.6-8 8-8h143.92c4.42 0 8 3.58 8 8v103.93c0 4.42-3.58 8-8 8h-143.9c-4.43 0-8-3.58-8-8z" stroke="#333" fill="#fff"/><use xlink:href="#x" transform="matrix(1,0,0,1,784.6089082020642,-964.5811727457428) translate(6.625 24.7125)"/><use xlink:href="#y" transform="matrix(1,0,0,1,784.6089082020642,-964.5811727457428) translate(65.525 24.7125)"/><use xlink:href="#p" transform="matrix(1,0,0,1,784.6089082020642,-964.5811727457428) translate(5.1499999999999915 46.3125)"/><use xlink:href="#e" transform="matrix(1,0,0,1,784.6089082020642,-964.5811727457428) translate(50.04999999999999 46.3125)"/><use xlink:href="#z" transform="matrix(1,0,0,1,784.6089082020642,-964.5811727457428) translate(5.724999999999994 67.91250000000001)"/><use xlink:href="#A" transform="matrix(1,0,0,1,784.6089082020642,-964.5811727457428) translate(42.625 67.91250000000001)"/><use xlink:href="#B" transform="matrix(1,0,0,1,784.6089082020642,-964.5811727457428) translate(111.42500000000001 67.91250000000001)"/><use xlink:href="#C" transform="matrix(1,0,0,1,784.6089082020642,-964.5811727457428) translate(127.37500000000001 67.91250000000001)"/><use xlink:href="#q" transform="matrix(1,0,0,1,784.6089082020642,-964.5811727457428) translate(18.574999999999996 89.51250000000002)"/><use xlink:href="#m" transform="matrix(1,0,0,1,784.6089082020642,-964.5811727457428) translate(50.474999999999994 89.51250000000002)"/><path d="M971.27-1160.08l3 1.24 2.6 2 2 2.6 1.23 3 .42 3.2v226.46l-.42 3.2-1.24 3-2 2.6-2.6 2-3 1.25-3.2.42H940.5v-1H968l3-.4 2.76-1.15 2.4-1.84 1.83-2.37 1.13-2.76.4-3.02v-226.32l-.4-3-1.15-2.77-1.83-2.4-2.4-1.82-2.74-1.14-3-.4H152l-3.03.4-2.75 1.14-2.4 1.83-1.83 2.4-1.15 2.75-.4 3v11.6h-1v-11.65l.43-3.2 1.24-3 2-2.6 2.6-2 3-1.25 3.2-.42h816.13z" fill="#333"/><path d="M940.53-909.1h-.5v-1h.5zM139.96-1121.62l-4.64-14.26h9.27z" fill="#333"/><path d="M139.96-1120l-5.33-16.38h10.65zm-3.95-15.38l3.96 12.14 3.94-12.14zM140.46-783.66h-1v-15.2h1zm0-36.8h-1v-31.1h1z" fill="#333"/><path d="M140.46-852.05v.5h-1v-.52zM139.96-768.9l-4.64-14.26h9.27z" fill="#333"/><path d="M139.96-767.28l-5.33-16.38h10.65zM136-782.66l3.96 12.15 3.94-12.16z" fill="#333"/><use xlink:href="#D" transform="matrix(1,0,0,1,124.4565453557849,-820.4680820525755) translate(0.005000000000000782 14.4)"/><path d="M133.56-764.9c3.53-2.64 9.26-2.64 12.8 0l67.15 50.38c3.55 2.65 3.55 6.95 0 9.6l-67.14 50.37c-3.54 2.65-9.27 2.65-12.8 0L66.4-704.92c-3.53-2.65-3.53-6.95 0-9.6z" stroke="#333" fill="#fff"/><use xlink:href="#b" transform="matrix(1,0,0,1,65.00000000000001,-764.6898093562806) translate(67.505 24.7125)"/><use xlink:href="#c" transform="matrix(1,0,0,1,65.00000000000001,-764.6898093562806) translate(37.15499999999999 46.3125)"/><use xlink:href="#d" transform="matrix(1,0,0,1,65.00000000000001,-764.6898093562806) translate(95.95500000000001 46.3125)"/><use xlink:href="#E" transform="matrix(1,0,0,1,65.00000000000001,-764.6898093562806) translate(24.879999999999992 67.91250000000001)"/><use xlink:href="#F" transform="matrix(1,0,0,1,65.00000000000001,-764.6898093562806) translate(114.63000000000001 67.91250000000001)"/><use xlink:href="#g" transform="matrix(1,0,0,1,65.00000000000001,-764.6898093562806) translate(70.005 89.51250000000002)"/><path d="M246-709.22h-28.94v-1H246zm37 0h-13.1v-1H283z" fill="#333"/><path d="M217.07-709.22h-.5v-1h.5zM297.75-709.72l-14.26 4.63v-9.26z" fill="#333"/><path d="M299.37-709.72L283-704.4v-10.65zM284-705.78l12.13-3.94-12.14-3.95z" fill="#333"/><use xlink:href="#h" transform="matrix(1,0,0,1,246.01272639481425,-720.5224003394419) translate(0.005000000000000782 14.4)"/><path d="M299.87-761.7c0-4.4 3.58-8 8-8h143.9c4.43 0 8 3.6 8 8v103.95c0 4.4-3.57 8-8 8h-143.9c-4.42 0-8-3.6-8-8z" stroke="#333" fill="#fff"/><use xlink:href="#i" transform="matrix(1,0,0,1,304.8696360673547,-764.6898093562806) translate(40.599999999999994 38.4625)"/><use xlink:href="#j" transform="matrix(1,0,0,1,304.8696360673547,-764.6898093562806) translate(72.5 38.4625)"/><use xlink:href="#k" transform="matrix(1,0,0,1,304.8696360673547,-764.6898093562806) translate(13.625 60.0625)"/><use xlink:href="#l" transform="matrix(1,0,0,1,304.8696360673547,-764.6898093562806) translate(96.47500000000001 60.0625)"/><use xlink:href="#m" transform="matrix(1,0,0,1,304.8696360673547,-764.6898093562806) translate(34.525 81.66250000000001)"/><path d="M460.78-709.72h62.08" stroke="#333" fill="none"/><path d="M460.8-709.22h-.52v-1h.52z" fill="#333"/><path d="M537.62-709.72l-14.26 4.63v-9.26z" stroke="#333" fill="#333"/><path d="M539.74-771.48c0-4.42 3.58-8 8-8h143.9c4.43 0 8 3.58 8 8v123.52c0 4.42-3.57 8-8 8h-143.9c-4.42 0-8-3.58-8-8z" stroke="#333" fill="#fff"/><use xlink:href="#n" transform="matrix(1,0,0,1,544.7392721347093,-774.4844861623642) translate(2.2249999999999943 14.4)"/><use xlink:href="#G" transform="matrix(1,0,0,1,544.7392721347093,-774.4844861623642) translate(73.975 14.4)"/><use xlink:href="#H" transform="matrix(1,0,0,1,544.7392721347093,-774.4844861623642) translate(115.875 14.4)"/><use xlink:href="#I" transform="matrix(1,0,0,1,544.7392721347093,-774.4844861623642) translate(17.625 36)"/><use xlink:href="#p" transform="matrix(1,0,0,1,544.7392721347093,-774.4844861623642) translate(60.575 36)"/><use xlink:href="#v" transform="matrix(1,0,0,1,544.7392721347093,-774.4844861623642) translate(105.475 36)"/><use xlink:href="#J" transform="matrix(1,0,0,1,544.7392721347093,-774.4844861623642) translate(7.625 57.6)"/><use xlink:href="#k" transform="matrix(1,0,0,1,544.7392721347093,-774.4844861623642) translate(43.575 57.6)"/><use xlink:href="#s" transform="matrix(1,0,0,1,544.7392721347093,-774.4844861623642) translate(126.42500000000001 57.6)"/><use xlink:href="#t" transform="matrix(1,0,0,1,544.7392721347093,-774.4844861623642) translate(7.625 79.20000000000002)"/><use xlink:href="#u" transform="matrix(1,0,0,1,544.7392721347093,-774.4844861623642) translate(93.575 79.20000000000002)"/><use xlink:href="#v" transform="matrix(1,0,0,1,544.7392721347093,-774.4844861623642) translate(115.47500000000001 79.20000000000002)"/><use xlink:href="#k" transform="matrix(1,0,0,1,544.7392721347093,-774.4844861623642) translate(25.599999999999994 100.80000000000001)"/><use xlink:href="#s" transform="matrix(1,0,0,1,544.7392721347093,-774.4844861623642) translate(108.45 100.80000000000001)"/><use xlink:href="#K" transform="matrix(1,0,0,1,544.7392721347093,-774.4844861623642) translate(32.62499999999999 122.4)"/><path d="M700.65-709.72h62.08" stroke="#333" fill="none"/><path d="M700.67-709.22h-.52v-1h.52z" fill="#333"/><path d="M777.5-709.72l-14.27 4.63v-9.26z" stroke="#333" fill="#333"/><path d="M779.6-761.7c0-4.4 3.6-8 8-8h143.92c4.42 0 8 3.6 8 8v103.95c0 4.4-3.58 8-8 8h-143.9c-4.43 0-8-3.6-8-8z" stroke="#333" fill="#fff"/><g><use xlink:href="#x" transform="matrix(1,0,0,1,784.6089082020642,-764.6898093562806) translate(6.625 24.7125)"/><use xlink:href="#y" transform="matrix(1,0,0,1,784.6089082020642,-764.6898093562806) translate(65.525 24.7125)"/><use xlink:href="#p" transform="matrix(1,0,0,1,784.6089082020642,-764.6898093562806) translate(10.174999999999997 46.3125)"/><use xlink:href="#L" transform="matrix(1,0,0,1,784.6089082020642,-764.6898093562806) translate(55.074999999999996 46.3125)"/><use xlink:href="#z" transform="matrix(1,0,0,1,784.6089082020642,-764.6898093562806) translate(5.724999999999994 67.91250000000001)"/><use xlink:href="#A" transform="matrix(1,0,0,1,784.6089082020642,-764.6898093562806) translate(42.625 67.91250000000001)"/><use xlink:href="#B" transform="matrix(1,0,0,1,784.6089082020642,-764.6898093562806) translate(111.42500000000001 67.91250000000001)"/><use xlink:href="#C" transform="matrix(1,0,0,1,784.6089082020642,-764.6898093562806) translate(127.37500000000001 67.91250000000001)"/><use xlink:href="#q" transform="matrix(1,0,0,1,784.6089082020642,-764.6898093562806) translate(18.574999999999996 89.51250000000002)"/><use xlink:href="#m" transform="matrix(1,0,0,1,784.6089082020642,-764.6898093562806) translate(50.474999999999994 89.51250000000002)"/></g><path d="M971.27-809.77l3 1.24 2.6 2 2 2.6 1.23 3 .42 3.2v76.04l-.42 3.22-1.24 3-2 2.6-2.6 2-3 1.24-3.2.42H940.5v-1H968l3-.4 2.76-1.14 2.4-1.83 1.83-2.38 1.13-2.76.4-3.02v-75.9l-.4-3-1.15-2.77-1.83-2.4-2.4-1.82-2.74-1.14-3-.4H155.45v-1h812.6zm-830.8 12.1v14h-1v-14.05l.14-1.15h1.02z" fill="#333"/><path d="M940.53-709.22h-.5v-1h.5zM139.96-768.9l-4.64-14.26h9.27z" fill="#333"/><path d="M139.96-767.28l-5.33-16.38h10.65zM136-782.66l3.96 12.15 3.94-12.16zM246-509.33h-28.94v-1H246zm36.98 0H269.9v-1H283z" fill="#333"/><path d="M217.07-509.33h-.5v-1h.5zM297.75-509.83l-14.27 4.63v-9.27z" fill="#333"/><path d="M299.37-509.83l-16.4 5.32v-10.65zm-15.4 3.95l12.16-3.95-12.15-3.95z" fill="#333"/><g><use xlink:href="#h" transform="matrix(1,0,0,1,246.01272639481425,-520.6310369499797) translate(0.005000000000000782 14.4)"/></g><path d="M299.87-561.8c0-4.42 3.58-8 8-8h143.9c4.43 0 8 3.58 8 8v103.94c0 4.4-3.57 8-8 8h-143.9c-4.42 0-8-3.6-8-8z" stroke="#333" fill="#fff"/><g><use xlink:href="#i" transform="matrix(1,0,0,1,304.8696360673547,-564.7984459668185) translate(40.599999999999994 38.4625)"/><use xlink:href="#j" transform="matrix(1,0,0,1,304.8696360673547,-564.7984459668185) translate(72.5 38.4625)"/><use xlink:href="#k" transform="matrix(1,0,0,1,304.8696360673547,-564.7984459668185) translate(13.625 60.0625)"/><use xlink:href="#l" transform="matrix(1,0,0,1,304.8696360673547,-564.7984459668185) translate(96.47500000000001 60.0625)"/><use xlink:href="#m" transform="matrix(1,0,0,1,304.8696360673547,-564.7984459668185) translate(34.525 81.66250000000001)"/></g><path d="M460.78-509.83h34.08c2.7 0 4.9 2.2 4.9 4.9s2.2 4.9 4.9 4.9h18.2" stroke="#333" fill="none"/><path d="M460.8-509.33h-.52v-1h.52z" fill="#333"/><path d="M537.62-500.04l-14.26 4.64v-9.27z" stroke="#333" fill="#333"/><path d="M539.74-561.8c0-4.42 3.58-8 8-8h143.9c4.43 0 8 3.58 8 8v123.53c0 4.4-3.57 8-8 8h-143.9c-4.42 0-8-3.6-8-8z" stroke="#333" fill="#fff"/><g><use xlink:href="#n" transform="matrix(1,0,0,1,544.7392721347093,-564.7984459668182) translate(1.6999999999999886 14.4)"/><use xlink:href="#M" transform="matrix(1,0,0,1,544.7392721347093,-564.7984459668182) translate(73.44999999999999 14.4)"/><use xlink:href="#H" transform="matrix(1,0,0,1,544.7392721347093,-564.7984459668182) translate(116.39999999999999 14.4)"/><use xlink:href="#N" transform="matrix(1,0,0,1,544.7392721347093,-564.7984459668182) translate(10.174999999999997 36)"/><use xlink:href="#p" transform="matrix(1,0,0,1,544.7392721347093,-564.7984459668182) translate(68.025 36)"/><use xlink:href="#v" transform="matrix(1,0,0,1,544.7392721347093,-564.7984459668182) translate(112.925 36)"/><use xlink:href="#J" transform="matrix(1,0,0,1,544.7392721347093,-564.7984459668182) translate(7.625 57.6)"/><use xlink:href="#k" transform="matrix(1,0,0,1,544.7392721347093,-564.7984459668182) translate(43.575 57.6)"/><use xlink:href="#s" transform="matrix(1,0,0,1,544.7392721347093,-564.7984459668182) translate(126.42500000000001 57.6)"/><use xlink:href="#t" transform="matrix(1,0,0,1,544.7392721347093,-564.7984459668182) translate(7.625 79.20000000000002)"/><use xlink:href="#u" transform="matrix(1,0,0,1,544.7392721347093,-564.7984459668182) translate(93.575 79.20000000000002)"/><use xlink:href="#v" transform="matrix(1,0,0,1,544.7392721347093,-564.7984459668182) translate(115.47500000000001 79.20000000000002)"/><use xlink:href="#k" transform="matrix(1,0,0,1,544.7392721347093,-564.7984459668182) translate(25.599999999999994 100.80000000000001)"/><use xlink:href="#s" transform="matrix(1,0,0,1,544.7392721347093,-564.7984459668182) translate(108.45 100.80000000000001)"/><use xlink:href="#O" transform="matrix(1,0,0,1,544.7392721347093,-564.7984459668182) translate(27.624999999999993 122.4)"/></g><path d="M700.65-500.04h34.08c2.7 0 4.9-2.2 4.9-4.9s2.2-4.9 4.9-4.9h18.2" stroke="#333" fill="none"/><path d="M700.67-499.54h-.52v-1h.52z" fill="#333"/><path d="M777.5-509.83l-14.27 4.63v-9.27z" stroke="#333" fill="#333"/><path d="M779.6-561.8c0-4.42 3.6-8 8-8h143.92c4.42 0 8 3.58 8 8v103.94c0 4.4-3.58 8-8 8h-143.9c-4.43 0-8-3.6-8-8z" stroke="#333" fill="#fff"/><g><use xlink:href="#x" transform="matrix(1,0,0,1,784.6089082020642,-564.7984459668185) translate(6.625 24.7125)"/><use xlink:href="#y" transform="matrix(1,0,0,1,784.6089082020642,-564.7984459668185) translate(65.525 24.7125)"/><use xlink:href="#p" transform="matrix(1,0,0,1,784.6089082020642,-564.7984459668185) translate(5.174999999999997 46.3125)"/><use xlink:href="#P" transform="matrix(1,0,0,1,784.6089082020642,-564.7984459668185) translate(50.074999999999996 46.3125)"/><use xlink:href="#z" transform="matrix(1,0,0,1,784.6089082020642,-564.7984459668185) translate(5.724999999999994 67.91250000000001)"/><use xlink:href="#A" transform="matrix(1,0,0,1,784.6089082020642,-564.7984459668185) translate(42.625 67.91250000000001)"/><use xlink:href="#B" transform="matrix(1,0,0,1,784.6089082020642,-564.7984459668185) translate(111.42500000000001 67.91250000000001)"/><use xlink:href="#C" transform="matrix(1,0,0,1,784.6089082020642,-564.7984459668185) translate(127.37500000000001 67.91250000000001)"/><use xlink:href="#q" transform="matrix(1,0,0,1,784.6089082020642,-564.7984459668185) translate(18.574999999999996 89.51250000000002)"/><use xlink:href="#m" transform="matrix(1,0,0,1,784.6089082020642,-564.7984459668185) translate(50.474999999999994 89.51250000000002)"/></g><path d="M140.46-583.77h-1v-15.2h1zm0-36.8h-1v-31.1h1z" fill="#333"/><path d="M140.46-652.16v.5h-1v-.5zM139.96-569l-4.64-14.27h9.27z" fill="#333"/><path d="M139.96-567.38l-5.33-16.4h10.65zm-3.95-15.4l3.96 12.16 3.94-12.15z" fill="#333"/><g><use xlink:href="#D" transform="matrix(1,0,0,1,124.4565453557849,-620.5767186631133) translate(0.005000000000000782 14.4)"/></g><path d="M133.56-565c3.53-2.65 9.26-2.65 12.8 0l67.15 50.37c3.55 2.65 3.55 6.95 0 9.6l-67.14 50.37c-3.54 2.65-9.27 2.65-12.8 0L66.4-505.03c-3.53-2.65-3.53-6.95 0-9.6z" stroke="#333" fill="#fff"/><g><use xlink:href="#b" transform="matrix(1,0,0,1,65.00000000000001,-564.7984459668185) translate(67.505 24.7125)"/><use xlink:href="#c" transform="matrix(1,0,0,1,65.00000000000001,-564.7984459668185) translate(37.15499999999999 46.3125)"/><use xlink:href="#d" transform="matrix(1,0,0,1,65.00000000000001,-564.7984459668185) translate(95.95500000000001 46.3125)"/><use xlink:href="#P" transform="matrix(1,0,0,1,65.00000000000001,-564.7984459668185) translate(27.629999999999992 67.91250000000001)"/><use xlink:href="#f" transform="matrix(1,0,0,1,65.00000000000001,-564.7984459668185) translate(62.255 89.51250000000002)"/><use xlink:href="#g" transform="matrix(1,0,0,1,65.00000000000001,-564.7984459668185) translate(77.755 89.51250000000002)"/></g><path d="M971.27-609.88l3 1.25 2.6 2 2 2.6 1.23 3 .42 3.2v76.03l-.42 3.2-1.24 3-2 2.6-2.6 2-3 1.25-3.2.42H940.5v-1H968l3-.4 2.76-1.14 2.4-1.83 1.83-2.4 1.13-2.75.4-3v-75.92l-.4-3-1.15-2.77-1.83-2.4-2.4-1.82-2.74-1.14-3-.4H155.45v-1h812.6zm-830.8 12.1v14h-1v-14.05l.14-1.15h1.02z" fill="#333"/><path d="M940.53-509.33h-.5v-1h.5zM139.96-569l-4.64-14.27h9.27z" fill="#333"/><path d="M139.96-567.38l-5.33-16.4h10.65zm-3.95-15.4l3.96 12.16 3.94-12.15zM140.46-386.8h-1v-13.74h1zm0-35.34h-1v-29.64h1z" fill="#333"/><path d="M140.46-452.27v.5h-1v-.5zM139.96-372.03l-4.64-14.26h9.27z" fill="#333"/><path d="M139.96-370.4l-5.33-16.4h10.65zM136-385.8l3.96 12.16 3.94-12.15z" fill="#333"/><g><use xlink:href="#D" transform="matrix(1,0,0,1,124.4565453557849,-422.14220578362944) translate(0.005000000000000782 14.4)"/></g><path d="M88.22-362.85c2.08-3.9 7.34-7.06 11.76-7.06h103.94c8.83 0 16 26.84 16 59.96 0 33.12-7.17 59.97-16 59.97H99.98c-4.42 0-9.68-3.16-11.76-7.06l-24.46-45.85c-2.07-3.9-2.07-10.22 0-14.12z" stroke="#333" fill="#fff"/><g><use xlink:href="#Q" transform="matrix(1,0,0,1,65.00000000000001,-364.9070825773561) translate(45.055 38.4625)"/><use xlink:href="#R" transform="matrix(1,0,0,1,65.00000000000001,-364.9070825773561) translate(50.055 38.4625)"/><use xlink:href="#S" transform="matrix(1,0,0,1,65.00000000000001,-364.9070825773561) translate(95.95500000000001 38.4625)"/><use xlink:href="#T" transform="matrix(1,0,0,1,65.00000000000001,-364.9070825773561) translate(20.629999999999992 60.0625)"/><use xlink:href="#d" transform="matrix(1,0,0,1,65.00000000000001,-364.9070825773561) translate(113.48 60.0625)"/><use xlink:href="#U" transform="matrix(1,0,0,1,65.00000000000001,-364.9070825773561) translate(38.529999999999994 81.66250000000001)"/></g><path d="M219.9-381.9c0-4.4 3.6-8 8-8h63.97c4.42 0 8 3.6 8 8v143.92c0 4.42-3.58 8-8 8H227.9c-4.4 0-8-3.58-8-8z" fill="none"/><path d="M299.87-229.98c-5.52 0-10-4.48-10-10v-59.97c0-5.5-4.47-10-10-10 5.53 0 10-4.46 10-9.98v-59.97c0-5.52 4.48-10 10-10" stroke="#333" fill="none"/><g><use xlink:href="#V" transform="matrix(1,0,0,1,224.9130907115698,-384.89621891630236) translate(0.07499999999999929 78.60000000000001)"/></g><path d="M299.87-381.9c0-4.4 3.58-8 8-8h143.9c4.43 0 8 3.6 8 8v143.92c0 4.42-3.57 8-8 8h-143.9c-4.42 0-8-3.58-8-8z" stroke="#000" stroke-opacity="0" fill="#fff" fill-opacity="0"/><g><use xlink:href="#W" transform="matrix(1,0,0,1,304.8696360673547,-384.89621891630236) translate(2.5749999999999886 33.15)"/><use xlink:href="#X" transform="matrix(1,0,0,1,304.8696360673547,-384.89621891630236) translate(91.475 33.15)"/><use xlink:href="#S" transform="matrix(1,0,0,1,304.8696360673547,-384.89621891630236) translate(127.425 33.15)"/><use xlink:href="#q" transform="matrix(1,0,0,1,304.8696360673547,-384.89621891630236) translate(30.574999999999996 54.75)"/><use xlink:href="#Y" transform="matrix(1,0,0,1,304.8696360673547,-384.89621891630236) translate(62.474999999999994 54.75)"/><use xlink:href="#T" transform="matrix(1,0,0,1,304.8696360673547,-384.89621891630236) translate(9.174999999999997 76.35000000000001)"/><use xlink:href="#Z" transform="matrix(1,0,0,1,304.8696360673547,-384.89621891630236) translate(102.025 76.35000000000001)"/><use xlink:href="#aa" transform="matrix(1,0,0,1,304.8696360673547,-384.89621891630236) translate(4.174999999999983 97.95000000000002)"/><use xlink:href="#H" transform="matrix(1,0,0,1,304.8696360673547,-384.89621891630236) translate(113.925 97.95000000000002)"/><use xlink:href="#ab" transform="matrix(1,0,0,1,304.8696360673547,-384.89621891630236) translate(10.049999999999997 119.55000000000001)"/><use xlink:href="#ac" transform="matrix(1,0,0,1,304.8696360673547,-384.89621891630236) translate(78 119.55000000000001)"/></g><path d="M187.93-170.02c17.66 0 31.98 17.9 31.98 39.98s-14.3 39.98-31.97 39.98H91.98c-17.66 0-31.98-17.9-31.98-39.98s14.32-39.98 31.98-39.98z" stroke="#000" stroke-opacity="0" stroke-width="2" fill="#d2d3d5"/><g><use xlink:href="#ad" transform="matrix(1,0,0,1,65.00000000000001,-165.01571918789392) translate(55.075 38.4625)"/></g><path d="M139.96-248.97v62.57" stroke="#333" fill="none"/><path d="M140.46-248.96h-1v-.5h1z" fill="#333"/><path d="M139.96-171.63l-4.64-14.27h9.27z" stroke="#333" fill="#333"/><defs><path fill="#333" d="M182-130c37 4 62 22 62 59C244 23 116-4 24 0v-248c84 5 203-23 205 63 0 31-19 50-47 55zM76-148c40-3 101 13 101-30 0-44-60-28-101-31v61zm0 110c48-3 116 14 116-37 0-48-69-32-116-35v72" id="ae"/><use transform="matrix(0.05,0,0,0.05,0,0)" xlink:href="#ae" id="a"/><path fill="#333" d="M25-224v-37h50v37H25zM25 0v-190h50V0H25" id="af"/><path fill="#333" d="M137-138c1-29-70-34-71-4 15 46 118 7 119 86 1 83-164 76-172 9l43-7c4 19 20 25 44 25 33 8 57-30 24-41C81-84 22-81 20-136c-2-80 154-74 161-7" id="ag"/><g id="b"><use transform="matrix(0.05,0,0,0.05,0,0)" xlink:href="#af"/><use transform="matrix(0.05,0,0,0.05,5,0)" xlink:href="#ag"/></g><path fill="#333" d="M25 0v-261h50V0H25" id="ah"/><path fill="#333" d="M185-48c-13 30-37 53-82 52C43 2 14-33 14-96s30-98 90-98c62 0 83 45 84 108H66c0 31 8 55 39 56 18 0 30-7 34-22zm-45-69c5-46-57-63-70-21-2 6-4 13-4 21h74" id="ai"/><path fill="#333" d="M135-194c87-1 58 113 63 194h-50c-7-57 23-157-34-157-59 0-34 97-39 157H25l-1-190h47c2 12-1 28 3 38 12-26 28-41 61-42" id="aj"/><path fill="#333" d="M195-6C206 82 75 100 31 46c-4-6-6-13-8-21l49-6c3 16 16 24 34 25 40 0 42-37 40-79-11 22-30 35-61 35-53 0-70-43-70-97 0-56 18-96 73-97 30 0 46 14 59 34l2-30h47zm-90-29c32 0 41-27 41-63 0-35-9-62-40-62-32 0-39 29-40 63 0 36 9 62 39 62" id="ak"/><path fill="#333" d="M115-3C79 11 28 4 28-45v-112H4v-33h27l15-45h31v45h36v33H77v99c-1 23 16 31 38 25v30" id="al"/><path fill="#333" d="M114-157C55-157 80-60 75 0H25v-261h50l-1 109c12-26 28-41 61-42 86-1 58 113 63 194h-50c-7-57 23-157-34-157" id="am"/><g id="c"><use transform="matrix(0.05,0,0,0.05,0,0)" xlink:href="#ah"/><use transform="matrix(0.05,0,0,0.05,5,0)" xlink:href="#ai"/><use transform="matrix(0.05,0,0,0.05,15,0)" xlink:href="#aj"/><use transform="matrix(0.05,0,0,0.05,25.950000000000003,0)" xlink:href="#ak"/><use transform="matrix(0.05,0,0,0.05,36.900000000000006,0)" xlink:href="#al"/><use transform="matrix(0.05,0,0,0.05,42.85000000000001,0)" xlink:href="#am"/></g><path fill="#333" d="M110-194c64 0 96 36 96 99 0 64-35 99-97 99-61 0-95-36-95-99 0-62 34-99 96-99zm-1 164c35 0 45-28 45-65 0-40-10-65-43-65-34 0-45 26-45 65 0 36 10 65 43 65" id="an"/><path fill="#333" d="M121-226c-27-7-43 5-38 36h38v33H83V0H34v-157H6v-33h28c-9-59 32-81 87-68v32" id="ao"/><g id="d"><use transform="matrix(0.05,0,0,0.05,0,0)" xlink:href="#an"/><use transform="matrix(0.05,0,0,0.05,10.950000000000001,0)" xlink:href="#ao"/></g><path fill="#333" d="M220-157c-53 9-28 100-34 157h-49v-107c1-27-5-49-29-50C55-147 81-57 75 0H25l-1-190h47c2 12-1 28 3 38 10-53 101-56 108 0 13-22 24-43 59-42 82 1 51 116 57 194h-49v-107c-1-25-5-48-29-50" id="ap"/><path fill="#333" d="M135-194c53 0 70 44 70 98 0 56-19 98-73 100-31 1-45-17-59-34 3 33 2 69 2 105H25l-1-265h48c2 10 0 23 3 31 11-24 29-35 60-35zM114-30c33 0 39-31 40-66 0-38-9-64-40-64-56 0-55 130 0 130" id="aq"/><path fill="#333" d="M85 4C-2 5 27-109 22-190h50c7 57-23 150 33 157 60-5 35-97 40-157h50l1 190h-47c-2-12 1-28-3-38-12 25-28 42-61 42" id="ar"/><path fill="#333" d="M135-194c52 0 70 43 70 98 0 56-19 99-73 100-30 1-46-15-58-35L72 0H24l1-261h50v104c11-23 29-37 60-37zM114-30c31 0 40-27 40-66 0-37-7-63-39-63s-41 28-41 65c0 36 8 64 40 64" id="as"/><path fill="#333" d="M25-224v-37h50v37H25zM75 22c2 45-34 59-81 51V38c22 5 31-5 31-27v-201h50V22" id="at"/><g id="e"><use transform="matrix(0.05,0,0,0.05,0,0)" xlink:href="#ai"/><use transform="matrix(0.05,0,0,0.05,10,0)" xlink:href="#ap"/><use transform="matrix(0.05,0,0,0.05,26,0)" xlink:href="#aq"/><use transform="matrix(0.05,0,0,0.05,36.95,0)" xlink:href="#ag"/><use transform="matrix(0.05,0,0,0.05,46.95,0)" xlink:href="#ar"/><use transform="matrix(0.05,0,0,0.05,57.900000000000006,0)" xlink:href="#as"/><use transform="matrix(0.05,0,0,0.05,68.85000000000001,0)" xlink:href="#at"/><use transform="matrix(0.05,0,0,0.05,73.85000000000001,0)" xlink:href="#ah"/><use transform="matrix(0.05,0,0,0.05,78.85000000000001,0)" xlink:href="#ag"/><use transform="matrix(0.05,0,0,0.05,88.85000000000001,0)" xlink:href="#al"/></g><path fill="#333" d="M15-148v-39h180v39H15zm0 97v-39h180v39H15" id="au"/><use transform="matrix(0.05,0,0,0.05,0,0)" xlink:href="#au" id="f"/><path fill="#333" d="M101-251c68 0 84 54 84 127C185-50 166 4 99 4S15-52 14-124c-1-75 17-127 87-127zm-1 216c37-5 36-46 36-89s4-89-36-89c-39 0-36 45-36 89 0 43-3 85 36 89" id="av"/><use transform="matrix(0.05,0,0,0.05,0,0)" xlink:href="#av" id="g"/><path fill="#333" d="M175 0L67-191c6 58 2 128 3 191H24v-248h59L193-55c-6-58-2-129-3-193h46V0h-61" id="aw"/><g id="h"><use transform="matrix(0.05,0,0,0.05,0,0)" xlink:href="#aw"/><use transform="matrix(0.05,0,0,0.05,12.950000000000001,0)" xlink:href="#an"/></g><g id="i"><use transform="matrix(0.05,0,0,0.05,0,0)" xlink:href="#ak"/><use transform="matrix(0.05,0,0,0.05,10.950000000000001,0)" xlink:href="#ai"/><use transform="matrix(0.05,0,0,0.05,20.950000000000003,0)" xlink:href="#al"/></g><path fill="#333" d="M24 0v-248h52v208h133V0H24" id="ax"/><path fill="#333" d="M133-34C117-15 103 5 69 4 32 3 11-16 11-54c-1-60 55-63 116-61 1-26-3-47-28-47-18 1-26 9-28 27l-52-2c7-38 36-58 82-57s74 22 75 68l1 82c-1 14 12 18 25 15v27c-30 8-71 5-69-32zm-48 3c29 0 43-24 42-57-32 0-66-3-65 30 0 17 8 27 23 27" id="ay"/><g id="j"><use transform="matrix(0.05,0,0,0.05,0,0)" xlink:href="#ax"/><use transform="matrix(0.05,0,0,0.05,10.950000000000001,0)" xlink:href="#ay"/><use transform="matrix(0.05,0,0,0.05,20.950000000000003,0)" xlink:href="#ag"/><use transform="matrix(0.05,0,0,0.05,30.950000000000003,0)" xlink:href="#al"/></g><path fill="#333" d="M190-63c-7 42-38 67-86 67-59 0-84-38-90-98-12-110 154-137 174-36l-49 2c-2-19-15-32-35-32-30 0-35 28-38 64-6 74 65 87 74 30" id="az"/><g id="k"><use transform="matrix(0.05,0,0,0.05,0,0)" xlink:href="#ag"/><use transform="matrix(0.05,0,0,0.05,10,0)" xlink:href="#ai"/><use transform="matrix(0.05,0,0,0.05,20,0)" xlink:href="#aj"/><use transform="matrix(0.05,0,0,0.05,30.950000000000003,0)" xlink:href="#al"/><use transform="matrix(0.05,0,0,0.05,36.900000000000006,0)" xlink:href="#ai"/><use transform="matrix(0.05,0,0,0.05,46.900000000000006,0)" xlink:href="#aj"/><use transform="matrix(0.05,0,0,0.05,57.85,0)" xlink:href="#az"/><use transform="matrix(0.05,0,0,0.05,67.85000000000001,0)" xlink:href="#ai"/></g><path fill="#333" d="M135-150c-39-12-60 13-60 57V0H25l-1-190h47c2 13-1 29 3 40 6-28 27-53 61-41v41" id="aA"/><g id="l"><use transform="matrix(0.05,0,0,0.05,0,0)" xlink:href="#ao"/><use transform="matrix(0.05,0,0,0.05,5.95,0)" xlink:href="#aA"/><use transform="matrix(0.05,0,0,0.05,12.949999999999998,0)" xlink:href="#an"/><use transform="matrix(0.05,0,0,0.05,23.9,0)" xlink:href="#ap"/></g><path fill="#333" d="M128 0H69L1-190h53L99-40l48-150h52" id="aB"/><g id="m"><use transform="matrix(0.05,0,0,0.05,0,0)" xlink:href="#ay"/><use transform="matrix(0.05,0,0,0.05,10,0)" xlink:href="#ah"/><use transform="matrix(0.05,0,0,0.05,15,0)" xlink:href="#ah"/><use transform="matrix(0.05,0,0,0.05,20,0)" xlink:href="#ay"/><use transform="matrix(0.05,0,0,0.05,30,0)" xlink:href="#aB"/><use transform="matrix(0.05,0,0,0.05,40,0)" xlink:href="#ay"/><use transform="matrix(0.05,0,0,0.05,50,0)" xlink:href="#af"/><use transform="matrix(0.05,0,0,0.05,55,0)" xlink:href="#ah"/><use transform="matrix(0.05,0,0,0.05,60,0)" xlink:href="#ah"/><use transform="matrix(0.05,0,0,0.05,65,0)" xlink:href="#ag"/><use transform="matrix(0.05,0,0,0.05,75,0)" xlink:href="#al"/></g><path fill="#333" d="M199 0l-22-63H83L61 0H9l90-248h61L250 0h-51zm-33-102l-36-108c-10 38-24 72-36 108h72" id="aC"/><path fill="#333" d="M88-194c31-1 46 15 58 34l-1-101h50l1 261h-48c-2-10 0-23-3-31C134-8 116 4 84 4 32 4 16-41 15-95c0-56 19-97 73-99zm17 164c33 0 40-30 41-66 1-37-9-64-41-64s-38 30-39 65c0 43 13 65 39 65" id="aD"/><g id="n"><use transform="matrix(0.05,0,0,0.05,0,0)" xlink:href="#aC"/><use transform="matrix(0.05,0,0,0.05,12.950000000000001,0)" xlink:href="#aq"/><use transform="matrix(0.05,0,0,0.05,23.900000000000002,0)" xlink:href="#aq"/><use transform="matrix(0.05,0,0,0.05,34.85,0)" xlink:href="#ai"/><use transform="matrix(0.05,0,0,0.05,44.85,0)" xlink:href="#aj"/><use transform="matrix(0.05,0,0,0.05,55.800000000000004,0)" xlink:href="#aD"/></g><g id="o"><use transform="matrix(0.05,0,0,0.05,0,0)" xlink:href="#ag"/><use transform="matrix(0.05,0,0,0.05,10,0)" xlink:href="#ar"/><use transform="matrix(0.05,0,0,0.05,20.950000000000003,0)" xlink:href="#as"/><use transform="matrix(0.05,0,0,0.05,31.900000000000006,0)" xlink:href="#at"/></g><g id="p"><use transform="matrix(0.05,0,0,0.05,0,0)" xlink:href="#ao"/><use transform="matrix(0.05,0,0,0.05,5.95,0)" xlink:href="#aA"/><use transform="matrix(0.05,0,0,0.05,12.949999999999998,0)" xlink:href="#an"/><use transform="matrix(0.05,0,0,0.05,23.9,0)" xlink:href="#ap"/></g><g id="q"><use transform="matrix(0.05,0,0,0.05,0,0)" xlink:href="#al"/><use transform="matrix(0.05,0,0,0.05,5.95,0)" xlink:href="#am"/><use transform="matrix(0.05,0,0,0.05,16.900000000000002,0)" xlink:href="#ai"/></g><g id="r"><use transform="matrix(0.05,0,0,0.05,0,0)" xlink:href="#ah"/><use transform="matrix(0.05,0,0,0.05,5,0)" xlink:href="#ay"/><use transform="matrix(0.05,0,0,0.05,15,0)" xlink:href="#ag"/><use transform="matrix(0.05,0,0,0.05,25,0)" xlink:href="#al"/></g><g id="s"><use transform="matrix(0.05,0,0,0.05,0,0)" xlink:href="#af"/><use transform="matrix(0.05,0,0,0.05,5,0)" xlink:href="#aj"/></g><g id="t"><use transform="matrix(0.05,0,0,0.05,0,0)" xlink:href="#ay"/><use transform="matrix(0.05,0,0,0.05,10,0)" xlink:href="#ah"/><use transform="matrix(0.05,0,0,0.05,15,0)" xlink:href="#ah"/><use transform="matrix(0.05,0,0,0.05,20,0)" xlink:href="#ay"/><use transform="matrix(0.05,0,0,0.05,30,0)" xlink:href="#aB"/><use transform="matrix(0.05,0,0,0.05,40,0)" xlink:href="#ay"/><use transform="matrix(0.05,0,0,0.05,50,0)" xlink:href="#af"/><use transform="matrix(0.05,0,0,0.05,55,0)" xlink:href="#ah"/><use transform="matrix(0.05,0,0,0.05,60,0)" xlink:href="#ah"/><use transform="matrix(0.05,0,0,0.05,65,0)" xlink:href="#ag"/><use transform="matrix(0.05,0,0,0.05,75,0)" xlink:href="#al"/></g><g id="u"><use transform="matrix(0.05,0,0,0.05,0,0)" xlink:href="#al"/><use transform="matrix(0.05,0,0,0.05,5.95,0)" xlink:href="#an"/></g><g id="v"><use transform="matrix(0.05,0,0,0.05,0,0)" xlink:href="#al"/><use transform="matrix(0.05,0,0,0.05,5.95,0)" xlink:href="#am"/><use transform="matrix(0.05,0,0,0.05,16.900000000000002,0)" xlink:href="#ai"/></g><g id="w"><use transform="matrix(0.05,0,0,0.05,0,0)" xlink:href="#ai"/><use transform="matrix(0.05,0,0,0.05,10,0)" xlink:href="#ap"/><use transform="matrix(0.05,0,0,0.05,26,0)" xlink:href="#aq"/><use transform="matrix(0.05,0,0,0.05,36.95,0)" xlink:href="#ag"/><use transform="matrix(0.05,0,0,0.05,46.95,0)" xlink:href="#ar"/><use transform="matrix(0.05,0,0,0.05,57.900000000000006,0)" xlink:href="#as"/><use transform="matrix(0.05,0,0,0.05,68.85000000000001,0)" xlink:href="#at"/><use transform="matrix(0.05,0,0,0.05,73.85000000000001,0)" xlink:href="#ah"/><use transform="matrix(0.05,0,0,0.05,78.85000000000001,0)" xlink:href="#ag"/><use transform="matrix(0.05,0,0,0.05,88.85000000000001,0)" xlink:href="#al"/></g><path fill="#333" d="M24-248c120-7 223 5 221 122C244-46 201 0 124 0H24v-248zM76-40c74 7 117-18 117-86 0-67-45-88-117-82v168" id="aE"/><g id="x"><use transform="matrix(0.05,0,0,0.05,0,0)" xlink:href="#aE"/><use transform="matrix(0.05,0,0,0.05,12.950000000000001,0)" xlink:href="#ai"/><use transform="matrix(0.05,0,0,0.05,22.950000000000003,0)" xlink:href="#ah"/><use transform="matrix(0.05,0,0,0.05,27.950000000000003,0)" xlink:href="#ai"/><use transform="matrix(0.05,0,0,0.05,37.95,0)" xlink:href="#al"/><use transform="matrix(0.05,0,0,0.05,43.900000000000006,0)" xlink:href="#ai"/></g><g id="y"><use transform="matrix(0.05,0,0,0.05,0,0)" xlink:href="#ag"/><use transform="matrix(0.05,0,0,0.05,10,0)" xlink:href="#ai"/><use transform="matrix(0.05,0,0,0.05,20,0)" xlink:href="#aj"/><use transform="matrix(0.05,0,0,0.05,30.950000000000003,0)" xlink:href="#al"/><use transform="matrix(0.05,0,0,0.05,36.900000000000006,0)" xlink:href="#ai"/><use transform="matrix(0.05,0,0,0.05,46.900000000000006,0)" xlink:href="#aj"/><use transform="matrix(0.05,0,0,0.05,57.85,0)" xlink:href="#az"/><use transform="matrix(0.05,0,0,0.05,67.85000000000001,0)" xlink:href="#ai"/></g><g id="z"><use transform="matrix(0.05,0,0,0.05,0,0)" xlink:href="#ay"/><use transform="matrix(0.05,0,0,0.05,10,0)" xlink:href="#aj"/><use transform="matrix(0.05,0,0,0.05,20.950000000000003,0)" xlink:href="#aD"/></g><g id="A"><use transform="matrix(0.05,0,0,0.05,0,0)" xlink:href="#ay"/><use transform="matrix(0.05,0,0,0.05,10,0)" xlink:href="#aq"/><use transform="matrix(0.05,0,0,0.05,20.950000000000003,0)" xlink:href="#aq"/><use transform="matrix(0.05,0,0,0.05,31.900000000000006,0)" xlink:href="#ai"/><use transform="matrix(0.05,0,0,0.05,41.900000000000006,0)" xlink:href="#aj"/><use transform="matrix(0.05,0,0,0.05,52.85,0)" xlink:href="#aD"/></g><g id="B"><use transform="matrix(0.05,0,0,0.05,0,0)" xlink:href="#af"/><use transform="matrix(0.05,0,0,0.05,5,0)" xlink:href="#al"/></g><g id="C"><use transform="matrix(0.05,0,0,0.05,0,0)" xlink:href="#al"/><use transform="matrix(0.05,0,0,0.05,5.95,0)" xlink:href="#an"/></g><path fill="#333" d="M146-102V0H94v-102L6-248h54l60 105 60-105h54" id="aF"/><g id="D"><use transform="matrix(0.05,0,0,0.05,0,0)" xlink:href="#aF"/><use transform="matrix(0.05,0,0,0.05,11,0)" xlink:href="#ai"/><use transform="matrix(0.05,0,0,0.05,21,0)" xlink:href="#ag"/></g><path fill="#333" d="M123 10C108 53 80 86 19 72V37c35 8 53-11 59-39L3-190h52l48 148c12-52 28-100 44-148h51" id="aG"/><g id="E"><use transform="matrix(0.05,0,0,0.05,0,0)" xlink:href="#an"/><use transform="matrix(0.05,0,0,0.05,10.950000000000001,0)" xlink:href="#aj"/><use transform="matrix(0.05,0,0,0.05,21.900000000000002,0)" xlink:href="#ah"/><use transform="matrix(0.05,0,0,0.05,26.900000000000002,0)" xlink:href="#aG"/><use transform="matrix(0.05,0,0,0.05,36.900000000000006,0)" xlink:href="#an"/><use transform="matrix(0.05,0,0,0.05,47.85000000000001,0)" xlink:href="#as"/><use transform="matrix(0.05,0,0,0.05,58.80000000000001,0)" xlink:href="#at"/><use transform="matrix(0.05,0,0,0.05,63.80000000000001,0)" xlink:href="#ah"/><use transform="matrix(0.05,0,0,0.05,68.80000000000001,0)" xlink:href="#ag"/><use transform="matrix(0.05,0,0,0.05,78.80000000000001,0)" xlink:href="#al"/></g><use transform="matrix(0.05,0,0,0.05,0,0)" xlink:href="#au" id="F"/><g id="G"><use transform="matrix(0.05,0,0,0.05,0,0)" xlink:href="#ag"/><use transform="matrix(0.05,0,0,0.05,10,0)" xlink:href="#ar"/><use transform="matrix(0.05,0,0,0.05,20.950000000000003,0)" xlink:href="#as"/><use transform="matrix(0.05,0,0,0.05,31.900000000000006,0)" xlink:href="#at"/></g><g id="H"><use transform="matrix(0.05,0,0,0.05,0,0)" xlink:href="#ay"/><use transform="matrix(0.05,0,0,0.05,10,0)" xlink:href="#aj"/><use transform="matrix(0.05,0,0,0.05,20.950000000000003,0)" xlink:href="#aD"/></g><g id="I"><use transform="matrix(0.05,0,0,0.05,0,0)" xlink:href="#aB"/><use transform="matrix(0.05,0,0,0.05,10,0)" xlink:href="#ai"/><use transform="matrix(0.05,0,0,0.05,20,0)" xlink:href="#aA"/><use transform="matrix(0.05,0,0,0.05,27,0)" xlink:href="#as"/></g><g id="J"><use transform="matrix(0.05,0,0,0.05,0,0)" xlink:href="#ah"/><use transform="matrix(0.05,0,0,0.05,5,0)" xlink:href="#ay"/><use transform="matrix(0.05,0,0,0.05,15,0)" xlink:href="#ag"/><use transform="matrix(0.05,0,0,0.05,25,0)" xlink:href="#al"/></g><g id="K"><use transform="matrix(0.05,0,0,0.05,0,0)" xlink:href="#an"/><use transform="matrix(0.05,0,0,0.05,10.950000000000001,0)" xlink:href="#aj"/><use transform="matrix(0.05,0,0,0.05,21.900000000000002,0)" xlink:href="#ah"/><use transform="matrix(0.05,0,0,0.05,26.900000000000002,0)" xlink:href="#aG"/><use transform="matrix(0.05,0,0,0.05,36.900000000000006,0)" xlink:href="#an"/><use transform="matrix(0.05,0,0,0.05,47.85000000000001,0)" xlink:href="#as"/><use transform="matrix(0.05,0,0,0.05,58.80000000000001,0)" xlink:href="#at"/><use transform="matrix(0.05,0,0,0.05,63.80000000000001,0)" xlink:href="#ah"/><use transform="matrix(0.05,0,0,0.05,68.80000000000001,0)" xlink:href="#ag"/><use transform="matrix(0.05,0,0,0.05,78.80000000000001,0)" xlink:href="#al"/></g><g id="L"><use transform="matrix(0.05,0,0,0.05,0,0)" xlink:href="#an"/><use transform="matrix(0.05,0,0,0.05,10.950000000000001,0)" xlink:href="#aj"/><use transform="matrix(0.05,0,0,0.05,21.900000000000002,0)" xlink:href="#ah"/><use transform="matrix(0.05,0,0,0.05,26.900000000000002,0)" xlink:href="#aG"/><use transform="matrix(0.05,0,0,0.05,36.900000000000006,0)" xlink:href="#an"/><use transform="matrix(0.05,0,0,0.05,47.85000000000001,0)" xlink:href="#as"/><use transform="matrix(0.05,0,0,0.05,58.80000000000001,0)" xlink:href="#at"/><use transform="matrix(0.05,0,0,0.05,63.80000000000001,0)" xlink:href="#ah"/><use transform="matrix(0.05,0,0,0.05,68.80000000000001,0)" xlink:href="#ag"/><use transform="matrix(0.05,0,0,0.05,78.80000000000001,0)" xlink:href="#al"/></g><g id="M"><use transform="matrix(0.05,0,0,0.05,0,0)" xlink:href="#aB"/><use transform="matrix(0.05,0,0,0.05,10,0)" xlink:href="#ai"/><use transform="matrix(0.05,0,0,0.05,20,0)" xlink:href="#aA"/><use transform="matrix(0.05,0,0,0.05,27,0)" xlink:href="#as"/></g><g id="N"><use transform="matrix(0.05,0,0,0.05,0,0)" xlink:href="#an"/><use transform="matrix(0.05,0,0,0.05,10.950000000000001,0)" xlink:href="#as"/><use transform="matrix(0.05,0,0,0.05,21.900000000000002,0)" xlink:href="#at"/><use transform="matrix(0.05,0,0,0.05,26.900000000000002,0)" xlink:href="#ai"/><use transform="matrix(0.05,0,0,0.05,36.900000000000006,0)" xlink:href="#az"/><use transform="matrix(0.05,0,0,0.05,46.900000000000006,0)" xlink:href="#al"/></g><g id="O"><use transform="matrix(0.05,0,0,0.05,0,0)" xlink:href="#an"/><use transform="matrix(0.05,0,0,0.05,10.950000000000001,0)" xlink:href="#aj"/><use transform="matrix(0.05,0,0,0.05,21.900000000000002,0)" xlink:href="#ah"/><use transform="matrix(0.05,0,0,0.05,26.900000000000002,0)" xlink:href="#aG"/><use transform="matrix(0.05,0,0,0.05,36.900000000000006,0)" xlink:href="#ag"/><use transform="matrix(0.05,0,0,0.05,46.900000000000006,0)" xlink:href="#ar"/><use transform="matrix(0.05,0,0,0.05,57.85,0)" xlink:href="#as"/><use transform="matrix(0.05,0,0,0.05,68.80000000000001,0)" xlink:href="#at"/><use transform="matrix(0.05,0,0,0.05,73.80000000000001,0)" xlink:href="#ah"/><use transform="matrix(0.05,0,0,0.05,78.80000000000001,0)" xlink:href="#ag"/><use transform="matrix(0.05,0,0,0.05,88.80000000000001,0)" xlink:href="#al"/></g><g id="P"><use transform="matrix(0.05,0,0,0.05,0,0)" xlink:href="#an"/><use transform="matrix(0.05,0,0,0.05,10.950000000000001,0)" xlink:href="#aj"/><use transform="matrix(0.05,0,0,0.05,21.900000000000002,0)" xlink:href="#ah"/><use transform="matrix(0.05,0,0,0.05,26.900000000000002,0)" xlink:href="#aG"/><use transform="matrix(0.05,0,0,0.05,36.900000000000006,0)" xlink:href="#ag"/><use transform="matrix(0.05,0,0,0.05,46.900000000000006,0)" xlink:href="#ar"/><use transform="matrix(0.05,0,0,0.05,57.85,0)" xlink:href="#as"/><use transform="matrix(0.05,0,0,0.05,68.80000000000001,0)" xlink:href="#at"/><use transform="matrix(0.05,0,0,0.05,73.80000000000001,0)" xlink:href="#ah"/><use transform="matrix(0.05,0,0,0.05,78.80000000000001,0)" xlink:href="#ag"/><use transform="matrix(0.05,0,0,0.05,88.80000000000001,0)" xlink:href="#al"/></g><path fill="#333" d="M24-248c93 1 206-16 204 79-1 75-69 88-152 82V0H24v-248zm52 121c47 0 100 7 100-41 0-47-54-39-100-39v80" id="aH"/><g id="R"><use transform="matrix(0.05,0,0,0.05,0,0)" xlink:href="#aH"/><use transform="matrix(0.05,0,0,0.05,12,0)" xlink:href="#aA"/><use transform="matrix(0.05,0,0,0.05,19,0)" xlink:href="#af"/><use transform="matrix(0.05,0,0,0.05,24,0)" xlink:href="#aj"/><use transform="matrix(0.05,0,0,0.05,34.95,0)" xlink:href="#al"/></g><g id="S"><use transform="matrix(0.05,0,0,0.05,0,0)" xlink:href="#ay"/><use transform="matrix(0.05,0,0,0.05,10,0)" xlink:href="#ah"/><use transform="matrix(0.05,0,0,0.05,15,0)" xlink:href="#ah"/></g><g id="T"><use transform="matrix(0.05,0,0,0.05,0,0)" xlink:href="#ag"/><use transform="matrix(0.05,0,0,0.05,10,0)" xlink:href="#ai"/><use transform="matrix(0.05,0,0,0.05,20,0)" xlink:href="#aj"/><use transform="matrix(0.05,0,0,0.05,30.950000000000003,0)" xlink:href="#al"/><use transform="matrix(0.05,0,0,0.05,36.900000000000006,0)" xlink:href="#ai"/><use transform="matrix(0.05,0,0,0.05,46.900000000000006,0)" xlink:href="#aj"/><use transform="matrix(0.05,0,0,0.05,57.85,0)" xlink:href="#az"/><use transform="matrix(0.05,0,0,0.05,67.85000000000001,0)" xlink:href="#ai"/><use transform="matrix(0.05,0,0,0.05,77.85000000000001,0)" xlink:href="#ag"/></g><path fill="#333" d="M24 0v-54h51V0H24" id="aI"/><g id="U"><use transform="matrix(0.05,0,0,0.05,0,0)" xlink:href="#ay"/><use transform="matrix(0.05,0,0,0.05,10,0)" xlink:href="#ah"/><use transform="matrix(0.05,0,0,0.05,15,0)" xlink:href="#ah"/><use transform="matrix(0.05,0,0,0.05,20,0)" xlink:href="#ay"/><use transform="matrix(0.05,0,0,0.05,30,0)" xlink:href="#aB"/><use transform="matrix(0.05,0,0,0.05,40,0)" xlink:href="#ay"/><use transform="matrix(0.05,0,0,0.05,50,0)" xlink:href="#af"/><use transform="matrix(0.05,0,0,0.05,55,0)" xlink:href="#ah"/><use transform="matrix(0.05,0,0,0.05,60,0)" xlink:href="#ah"/><use transform="matrix(0.05,0,0,0.05,65,0)" xlink:href="#ag"/><use transform="matrix(0.05,0,0,0.05,75,0)" xlink:href="#al"/><use transform="matrix(0.05,0,0,0.05,80.95,0)" xlink:href="#aI"/></g><g id="V"><use transform="matrix(0.05,0,0,0.05,0,0)" xlink:href="#aw"/><use transform="matrix(0.05,0,0,0.05,12.950000000000001,0)" xlink:href="#an"/><use transform="matrix(0.05,0,0,0.05,23.900000000000002,0)" xlink:href="#al"/><use transform="matrix(0.05,0,0,0.05,29.85,0)" xlink:href="#ai"/></g><g id="W"><use transform="matrix(0.05,0,0,0.05,0,0)" xlink:href="#aC"/><use transform="matrix(0.05,0,0,0.05,12.950000000000001,0)" xlink:href="#ah"/><use transform="matrix(0.05,0,0,0.05,17.950000000000003,0)" xlink:href="#ah"/><use transform="matrix(0.05,0,0,0.05,22.950000000000003,0)" xlink:href="#ay"/><use transform="matrix(0.05,0,0,0.05,32.95,0)" xlink:href="#aB"/><use transform="matrix(0.05,0,0,0.05,42.95,0)" xlink:href="#ay"/><use transform="matrix(0.05,0,0,0.05,52.95,0)" xlink:href="#af"/><use transform="matrix(0.05,0,0,0.05,57.95,0)" xlink:href="#ah"/><use transform="matrix(0.05,0,0,0.05,62.95,0)" xlink:href="#ah"/><use transform="matrix(0.05,0,0,0.05,67.95,0)" xlink:href="#ag"/><use transform="matrix(0.05,0,0,0.05,77.95,0)" xlink:href="#al"/></g><g id="X"><use transform="matrix(0.05,0,0,0.05,0,0)" xlink:href="#am"/><use transform="matrix(0.05,0,0,0.05,10.950000000000001,0)" xlink:href="#ay"/><use transform="matrix(0.05,0,0,0.05,20.950000000000003,0)" xlink:href="#ag"/></g><g id="Y"><use transform="matrix(0.05,0,0,0.05,0,0)" xlink:href="#ag"/><use transform="matrix(0.05,0,0,0.05,10,0)" xlink:href="#af"/><use transform="matrix(0.05,0,0,0.05,15,0)" xlink:href="#ap"/><use transform="matrix(0.05,0,0,0.05,31,0)" xlink:href="#aq"/><use transform="matrix(0.05,0,0,0.05,41.95,0)" xlink:href="#ah"/><use transform="matrix(0.05,0,0,0.05,46.95,0)" xlink:href="#ai"/></g><g id="Z"><use transform="matrix(0.05,0,0,0.05,0,0)" xlink:href="#as"/><use transform="matrix(0.05,0,0,0.05,10.950000000000001,0)" xlink:href="#an"/><use transform="matrix(0.05,0,0,0.05,21.900000000000002,0)" xlink:href="#al"/><use transform="matrix(0.05,0,0,0.05,27.85,0)" xlink:href="#am"/></g><g id="aa"><use transform="matrix(0.05,0,0,0.05,0,0)" xlink:href="#al"/><use transform="matrix(0.05,0,0,0.05,5.95,0)" xlink:href="#aA"/><use transform="matrix(0.05,0,0,0.05,12.949999999999998,0)" xlink:href="#ay"/><use transform="matrix(0.05,0,0,0.05,22.95,0)" xlink:href="#aj"/><use transform="matrix(0.05,0,0,0.05,33.9,0)" xlink:href="#ag"/><use transform="matrix(0.05,0,0,0.05,43.9,0)" xlink:href="#ao"/><use transform="matrix(0.05,0,0,0.05,49.85,0)" xlink:href="#an"/><use transform="matrix(0.05,0,0,0.05,60.800000000000004,0)" xlink:href="#aA"/><use transform="matrix(0.05,0,0,0.05,67.80000000000001,0)" xlink:href="#ap"/><use transform="matrix(0.05,0,0,0.05,83.80000000000001,0)" xlink:href="#ai"/><use transform="matrix(0.05,0,0,0.05,93.80000000000001,0)" xlink:href="#aD"/></g><g id="ab"><use transform="matrix(0.05,0,0,0.05,0,0)" xlink:href="#ay"/><use transform="matrix(0.05,0,0,0.05,10,0)" xlink:href="#ah"/><use transform="matrix(0.05,0,0,0.05,15,0)" xlink:href="#aA"/><use transform="matrix(0.05,0,0,0.05,22,0)" xlink:href="#ai"/><use transform="matrix(0.05,0,0,0.05,32,0)" xlink:href="#ay"/><use transform="matrix(0.05,0,0,0.05,42,0)" xlink:href="#aD"/><use transform="matrix(0.05,0,0,0.05,52.95,0)" xlink:href="#aG"/></g><g id="ac"><use transform="matrix(0.05,0,0,0.05,0,0)" xlink:href="#ag"/><use transform="matrix(0.05,0,0,0.05,10,0)" xlink:href="#af"/><use transform="matrix(0.05,0,0,0.05,15,0)" xlink:href="#ap"/><use transform="matrix(0.05,0,0,0.05,31,0)" xlink:href="#aq"/><use transform="matrix(0.05,0,0,0.05,41.95,0)" xlink:href="#ah"/><use transform="matrix(0.05,0,0,0.05,46.95,0)" xlink:href="#ai"/><use transform="matrix(0.05,0,0,0.05,56.95,0)" xlink:href="#aI"/></g><path fill="#333" d="M169-182c-1-43-94-46-97-3 18 66 151 10 154 114 3 95-165 93-204 36-6-8-10-19-12-30l50-8c3 46 112 56 116 5-17-69-150-10-154-114-4-87 153-88 188-35 5 8 8 18 10 28" id="aJ"/><g id="ad"><use transform="matrix(0.05,0,0,0.05,0,0)" xlink:href="#aJ"/><use transform="matrix(0.05,0,0,0.05,12,0)" xlink:href="#al"/><use transform="matrix(0.05,0,0,0.05,17.95,0)" xlink:href="#an"/><use transform="matrix(0.05,0,0,0.05,28.899999999999995,0)" xlink:href="#aq"/></g></defs></g></svg>