<svg xmlns="http://www.w3.org/2000/svg" xmlns:xlink="http://www.w3.org/1999/xlink" xmlns:lucid="lucid" width="1786.46" height="2131"><g transform="translate(-49 1180)" lucid:page-tab-id="0_0"><path d="M288.27-661.9c0-4.42 3.58-8 8-8h434.98c4.42 0 8 3.58 8 8v209.48c0 4.42-3.58 8-8 8H296.27c-4.42 0-8-3.58-8-8z" stroke="#333" stroke-width="2" fill="#fff"/><path d="M333.37-669.9v225.48m360.8-225.5v225.5" stroke="#333" stroke-width="2" fill="none"/><use xlink:href="#a" transform="matrix(1,0,0,1,349.64527725593155,-664.9058619070531) translate(23.586419753086403 113.77777777777777)"/><path d="M506.37-975.42c3.44-2.78 9-2.78 12.44 0L658.98-861.9c3.43 2.8 3.43 7.3 0 10.08L518.8-738.3c-3.43 2.78-9 2.78-12.43 0L366.2-851.82c-3.42-2.78-3.42-7.3 0-10.07z" stroke="#333" stroke-width="2" fill="#fff"/><use xlink:href="#b" transform="matrix(1,0,0,1,364.9931399739464,-975.455263355341) translate(75.40314814814815 104.92361111111111)"/><use xlink:href="#c" transform="matrix(1,0,0,1,364.9931399739464,-975.455263355341) translate(107.5019135802469 104.92361111111111)"/><use xlink:href="#d" transform="matrix(1,0,0,1,364.9931399739464,-975.455263355341) translate(96.26734567901235 139.59027777777777)"/><path d="M728.9-855.86h-69.12v-2h69.12zm101.38 0h-51.62v-2h51.62z" fill="#333"/><path d="M659.8-855.86h-4.02v-2h4.03zM845.54-856.86l-14.26 4.64v-9.27z" fill="#333"/><path d="M848.78-856.86l-18.5 6v-12zm-16.5 3.26l10.03-3.26-10.02-3.26z" fill="#333"/><use xlink:href="#e" transform="matrix(1,0,0,1,728.902673799448,-874.191656945582) translate(0.004999999999999005 23.111111111111114)"/><path d="M513.6-721.9h-2v-15.33h2z" fill="#333"/><path d="M513.6-737.2h-2v-4.03h2zM513.76-674.14l-4.25-13.1h8.52z" fill="#333"/><path d="M513.76-670.9l-5.3-16.34h2.1l3.2 9.86 3.2-9.86h2.1z" fill="#333"/><use xlink:href="#f" transform="matrix(1,0,0,1,493.9980248479419,-721.9030067195399) translate(0.004999999999999005 23.111111111111114)"/><path d="M748.96-751.7c0-4.4 3.6-8 8-8H874.5c4.42 0 8 3.6 8 8v336.38c0 4.42-3.58 8-8 8H756.96c-4.4 0-8-3.58-8-8z" fill="none"/><path d="M882.5-407.32c-12.16 0-22.02-9.86-22.02-22.02v-132.14c0-12.16-9.86-22.02-22.02-22.02 12.16 0 22.02-9.86 22.02-22.03v-132.14c0-12.16 9.86-22.02 22.02-22.02" stroke="#333" stroke-width="2" fill="none"/><use xlink:href="#g" transform="matrix(1,0,0,1,753.9634199656762,-754.690301592375) translate(-2.978395061728392 177.27777777777777)"/><path d="M882.5-771.17c0-4.42 3.6-8 8-8h246.43c4.42 0 8 3.58 8 8v375.33c0 4.42-3.58 8-8 8H890.5c-4.4 0-8-3.58-8-8z" fill-opacity="0"/><use xlink:href="#h" transform="matrix(1,0,0,1,887.5044945266421,-774.1710012154908) translate(13.552469135802482 76.82986111111111)"/><use xlink:href="#i" transform="matrix(1,0,0,1,887.5044945266421,-774.1710012154908) translate(149.7314814814815 76.82986111111111)"/><use xlink:href="#j" transform="matrix(1,0,0,1,887.5044945266421,-774.1710012154908) translate(181.83024691358025 76.82986111111111)"/><use xlink:href="#k" transform="matrix(1,0,0,1,887.5044945266421,-774.1710012154908) translate(7.212962962962976 111.49652777777779)"/><use xlink:href="#l" transform="matrix(1,0,0,1,887.5044945266421,-774.1710012154908) translate(58.4104938271605 111.49652777777779)"/><use xlink:href="#m" transform="matrix(1,0,0,1,887.5044945266421,-774.1710012154908) translate(120.8425925925926 111.49652777777779)"/><use xlink:href="#n" transform="matrix(1,0,0,1,887.5044945266421,-774.1710012154908) translate(4.805555555555557 146.16319444444446)"/><use xlink:href="#k" transform="matrix(1,0,0,1,887.5044945266421,-774.1710012154908) translate(76.86728395061729 146.16319444444446)"/><use xlink:href="#o" transform="matrix(1,0,0,1,887.5044945266421,-774.1710012154908) translate(128.06481481481484 146.16319444444446)"/><use xlink:href="#p" transform="matrix(1,0,0,1,887.5044945266421,-774.1710012154908) translate(37.907407407407405 180.82986111111111)"/><use xlink:href="#q" transform="matrix(1,0,0,1,887.5044945266421,-774.1710012154908) translate(88.62345679012344 180.82986111111111)"/><use xlink:href="#r" transform="matrix(1,0,0,1,887.5044945266421,-774.1710012154908) translate(149.37037037037038 180.82986111111111)"/><use xlink:href="#s" transform="matrix(1,0,0,1,887.5044945266421,-774.1710012154908) translate(18.08641975308643 215.4965277777778)"/><use xlink:href="#t" transform="matrix(1,0,0,1,887.5044945266421,-774.1710012154908) translate(173.92592592592592 215.4965277777778)"/><use xlink:href="#u" transform="matrix(1,0,0,1,887.5044945266421,-774.1710012154908) translate(66.51543209876543 250.16319444444449)"/><use xlink:href="#v" transform="matrix(1,0,0,1,887.5044945266421,-774.1710012154908) translate(125.73765432098764 250.16319444444449)"/><use xlink:href="#w" transform="matrix(1,0,0,1,887.5044945266421,-774.1710012154908) translate(45.6111111111111 284.8298611111112)"/><use xlink:href="#x" transform="matrix(1,0,0,1,887.5044945266421,-774.1710012154908) translate(11.987654320987673 319.4965277777778)"/><use xlink:href="#y" transform="matrix(1,0,0,1,887.5044945266421,-774.1710012154908) translate(111.33333333333334 319.4965277777778)"/><use xlink:href="#z" transform="matrix(1,0,0,1,887.5044945266421,-774.1710012154908) translate(181.79012345679013 319.4965277777778)"/><path d="M513.76-442.42v32.55c0 .33-.26.6-.58.6-.33 0-.6.25-.6.58v15.05" stroke="#333" stroke-width="2" fill="none"/><path d="M514.76-442.4h-2v-1.02h2z" fill="#333"/><path d="M512.6-378.38l-4.64-14.27h9.27z" stroke="#333" stroke-width="2" fill="#333"/><path d="M506.2-376.26c3.53-2.65 9.26-2.65 12.8 0l183.18 137.4c3.53 2.64 3.53 6.94 0 9.6L518.98-91.9c-3.52 2.65-9.25 2.65-12.8 0L323-229.28c-3.53-2.64-3.53-6.94 0-9.6z" stroke="#333" stroke-width="2" fill="#fff"/><use xlink:href="#b" transform="matrix(1,0,0,1,321.60380214541686,-376.05951384844684) translate(73.28277777777781 147.36111111111111)"/><use xlink:href="#A" transform="matrix(1,0,0,1,321.60380214541686,-376.05951384844684) translate(105.38154320987657 147.36111111111111)"/><use xlink:href="#d" transform="matrix(1,0,0,1,321.60380214541686,-376.05951384844684) translate(206.25191358024693 147.36111111111111)"/><path d="M749.7-233.07h-48.35v-2h48.34zm80.58 0h-30.84v-2h30.84z" fill="#333"/><path d="M701.37-233.07h-4.02v-2h4.02zM845.54-234.07l-14.26 4.64v-9.27z" fill="#333"/><path d="M848.78-234.07l-18.5 6v-12zm-16.5 3.26l10.03-3.27-10.02-3.26z" fill="#333"/><use xlink:href="#e" transform="matrix(1,0,0,1,749.6868387625291,-251.40269062164313) translate(0.004999999999999005 23.111111111111114)"/><path d="M514.76-14.6h-2v-12.62h2zm-1.17-47.3h-2V-92h2z" fill="#333"/><path d="M513.6-91.97h-2V-96h2zM513.76.65l-4.63-14.26h9.27z" fill="#333"/><path d="M513.76 3.9l-6-18.5h12.02zm-3.26-16.5l3.26 10.02 3.26-10.03z" fill="#333"/><use xlink:href="#f" transform="matrix(1,0,0,1,493.9980248479419,-61.88554975710806) translate(0.004999999999999005 23.111111111111114)"/><path d="M385.2 12.9c0-4.43 3.6-8 8-8h241.12c4.42 0 8 3.57 8 8V189.7c0 4.42-3.58 8-8 8h-241.1c-4.43 0-8-3.58-8-8z" stroke="#333" stroke-width="2" fill="#fff"/><use xlink:href="#B" transform="matrix(1,0,0,1,390.2098152092826,9.887939399140919) translate(69.91358024691358 97.45486111111111)"/><use xlink:href="#C" transform="matrix(1,0,0,1,390.2098152092826,9.887939399140919) translate(137.1604938271605 97.45486111111111)"/><use xlink:href="#D" transform="matrix(1,0,0,1,390.2098152092826,9.887939399140919) translate(162.03703703703704 97.45486111111111)"/><path d="M644.32 101.3h189.86" stroke="#333" stroke-width="2" fill="none"/><path d="M644.34 102.3h-1.02v-2h1.02z" fill="#333"/><path d="M849.44 101.3l-14.26 4.64v-9.27z" stroke="#333" stroke-width="2" fill="#333"/><path d="M990.88-1.1c3.58-2.58 9.37-2.58 12.95 0l134.63 97.7c3.57 2.6 3.57 6.8 0 9.4l-134.63 97.7c-3.58 2.6-9.37 2.6-12.95 0L856.25 106c-3.57-2.6-3.57-6.8 0-9.4z" stroke="#333" stroke-width="2" fill="#fff"/><use xlink:href="#b" transform="matrix(1,0,0,1,854.7784514446885,-0.7882005812465707) translate(79.1901851851852 93.57986111111111)"/><use xlink:href="#E" transform="matrix(1,0,0,1,854.7784514446885,-0.7882005812465707) translate(111.28895061728397 93.57986111111111)"/><use xlink:href="#d" transform="matrix(1,0,0,1,854.7784514446885,-0.7882005812465707) translate(91.26734567901232 128.24652777777777)"/><path d="M1263.58 101.54v2h-28.3v-2zm-123.85.76v-2h45.8v2z" fill="#333"/><path d="M1139.76 102.3h-4.03v-2h4.03zM1278.84 102.54l-14.26 4.63V97.9z" fill="#333"/><path d="M1282.08 102.54l-18.5 6V96.53zm-16.5 3.25l10.02-3.26-10.02-3.26z" fill="#333"/><use xlink:href="#e" transform="matrix(1,0,0,1,1185.5293848197266,84.58589146605314) translate(0.004999999999999005 23.111111111111114)"/><path d="M1283.08 20.76c0-4.42 3.58-8 8-8h216.38c4.4 0 8 3.58 8 8V184.3c0 4.43-3.6 8-8 8h-216.38c-4.42 0-8-3.57-8-8z" stroke="#333" stroke-width="2" fill="#fff"/><use xlink:href="#F" transform="matrix(1,0,0,1,1288.076923076923,17.762955663032585) translate(56.57098765432099 92.17361111111111)"/><use xlink:href="#C" transform="matrix(1,0,0,1,1288.076923076923,17.762955663032585) translate(125.50308641975309 92.17361111111111)"/><use xlink:href="#G" transform="matrix(1,0,0,1,1288.076923076923,17.762955663032585) translate(150.37962962962962 92.17361111111111)"/><path d="M998.35 274.34h-2v-8.54h2zm0-43.2h-2v-26.05h2z" fill="#333"/><path d="M998.35 205.1h-2v-4h2zM997.35 289.6l-4.63-14.26h9.27z" fill="#333"/><path d="M997.35 292.85l-6-18.5h12.02zm-3.25-16.5l3.25 10.02 3.26-10.03z" fill="#333"/><use xlink:href="#f" transform="matrix(1,0,0,1,978.1759552938345,231.13291579809535) translate(0.004999999999999005 23.111111111111114)"/><path d="M881.17 301.85c0-4.42 3.58-8 8-8h216.37c4.42 0 8 3.58 8 8v158.28c0 4.42-3.58 8-8 8H889.17c-4.42 0-8-3.58-8-8z" stroke="#333" stroke-width="2" fill="#fff"/><use xlink:href="#H" transform="matrix(1,0,0,1,886.1657529569571,298.8461538461538) translate(55.76851851851851 90.14236111111111)"/><use xlink:href="#C" transform="matrix(1,0,0,1,886.1657529569571,298.8461538461538) translate(126.30555555555557 90.14236111111111)"/><use xlink:href="#D" transform="matrix(1,0,0,1,886.1657529569571,298.8461538461538) translate(151.1820987654321 90.14236111111111)"/><path d="M1115.54 381h128.34" stroke="#333" stroke-width="2" fill="none"/><path d="M1115.57 382h-1.03v-2h1.03z" fill="#333"/><path d="M1259.14 381l-14.26 4.62v-9.27z" stroke="#333" stroke-width="2" fill="#333"/><path d="M1381.1 289.8c3.52-2.64 9.25-2.64 12.8 0l115.16 86.4c3.53 2.64 3.53 6.94 0 9.6l-115.17 86.36c-3.55 2.65-9.28 2.65-12.8 0L1265.9 385.8c-3.53-2.66-3.53-6.96 0-9.6z" stroke="#333" stroke-width="2" fill="#fff"/><use xlink:href="#b" transform="matrix(1,0,0,1,1264.5209084733592,290.0126483698173) translate(68.55746913580245 79.98611111111111)"/><use xlink:href="#I" transform="matrix(1,0,0,1,1264.5209084733592,290.0126483698173) translate(100.65623456790121 79.98611111111111)"/><use xlink:href="#d" transform="matrix(1,0,0,1,1264.5209084733592,290.0126483698173) translate(71.76734567901232 114.65277777777779)"/><path d="M1521.2 382h-10.12v-2h10.12z" fill="#333"/><path d="M1511.1 382h-4.02v-2h4.03zM1578.84 381l-7.88 2.55v-5.12z" fill="#333"/><path d="M1582.08 381l-11.12 3.6v-2.1l4.64-1.5-4.64-1.52v-2.1z" fill="#333"/><g><use xlink:href="#e" transform="matrix(1,0,0,1,1521.2030038274877,363.65473152473777) translate(0.004999999999999005 23.111111111111114)"/></g><path d="M1583.08 301.85c0-4.42 3.58-8 8-8h216.38c4.4 0 8 3.58 8 8v158.28c0 4.42-3.6 8-8 8h-216.38c-4.42 0-8-3.58-8-8z" stroke="#333" stroke-width="2" fill="#fff"/><g><use xlink:href="#J" transform="matrix(1,0,0,1,1588.076923076923,298.84615384615375) translate(65.43827160493828 90.14236111111111)"/><use xlink:href="#C" transform="matrix(1,0,0,1,1588.076923076923,298.84615384615375) translate(116.6358024691358 90.14236111111111)"/><use xlink:href="#G" transform="matrix(1,0,0,1,1588.076923076923,298.84615384615375) translate(141.51234567901236 90.14236111111111)"/></g><path d="M1400.27 550.17h-2V539.2h2zm-11.78-45.64h-2v-28.48h2z" fill="#333"/><path d="M1388.5 475.06v1.02h-2v-1.04zM1399.27 565.43l-4.64-14.26h9.27z" fill="#333"/><path d="M1399.27 568.67l-6.02-18.5h12.03zm-3.26-16.5l3.27 10.03 3.26-10.03z" fill="#333"/><g><use xlink:href="#f" transform="matrix(1,0,0,1,1374.1981217629095,504.52579024313167) translate(0.004999999999999005 23.111111111111114)"/></g><path d="M1292.4 577.67c0-4.42 3.6-8 8-8h197.73c4.4 0 8 3.58 8 8v144.3c0 4.4-3.6 8-8 8H1300.4c-4.4 0-8-3.6-8-8z" stroke="#333" stroke-width="2" fill="#fff"/><g><use xlink:href="#J" transform="matrix(1,0,0,1,1297.407225054718,574.6684374084499) translate(55.93827160493827 79.73611111111111)"/><use xlink:href="#C" transform="matrix(1,0,0,1,1297.407225054718,574.6684374084499) translate(107.1358024691358 79.73611111111111)"/><use xlink:href="#D" transform="matrix(1,0,0,1,1297.407225054718,574.6684374084499) translate(132.01234567901236 79.73611111111111)"/></g><path d="M1399.27 731.96v50.08" stroke="#333" stroke-width="2" fill="none"/><path d="M1400.27 731.98h-2v-1.02h2z" fill="#333"/><path d="M1399.27 797.3l-4.64-14.26h9.27z" stroke="#333" stroke-width="2" fill="#333"/><path d="M849.78-313.2c0-4.43 3.58-8 8-8h216.38c4.42 0 8 3.57 8 8v158.27c0 4.42-3.58 8-8 8H857.78c-4.42 0-8-3.58-8-8z" stroke="#333" stroke-width="2" fill="#fff"/><g><use xlink:href="#B" transform="matrix(1,0,0,1,854.7784514446882,-316.21126830022706) translate(57.41358024691358 90.14236111111111)"/><use xlink:href="#C" transform="matrix(1,0,0,1,854.7784514446882,-316.21126830022706) translate(124.6604938271605 90.14236111111111)"/><use xlink:href="#G" transform="matrix(1,0,0,1,854.7784514446882,-316.21126830022706) translate(149.53703703703704 90.14236111111111)"/></g><path d="M950.6-856.86c0 27.84-22.57 50.4-50.4 50.4-27.85 0-50.42-22.56-50.42-50.4s22.57-50.4 50.4-50.4c27.85 0 50.4 22.56 50.4 50.4z" stroke="#333" stroke-width="2" fill="#fff"/><g><use xlink:href="#K" transform="matrix(1,0,0,1,854.7784514446886,-902.2658393517551) translate(35.108024691358025 51.548611111111114)"/></g><path d="M573.7-1101.9c0 32.08-26.83 58.1-59.94 58.1-33.1 0-59.94-26.02-59.94-58.1 0-32.1 26.84-58.1 59.94-58.1 33.1 0 59.95 26 59.95 58.1z" stroke="#333" stroke-width="2" fill="#fff"/><g><use xlink:href="#L" transform="matrix(1,0,0,1,458.81582827314844,-1155) translate(44.608024691358025 59.892361111111114)"/></g><path d="M513.76-1041.8v30.6c0 .32-.26.6-.58.6-.33 0-.6.25-.6.57v13.1" stroke="#333" stroke-width="2" fill="none"/><path d="M513.76-1042.8l1-.04v1.06h-2v-1.07z" fill="#333"/><path d="M512.6-981.65l-4.64-14.27h9.27z" stroke="#333" stroke-width="2" fill="#333"/><path d="M1457.36 859.63c0 32.1-26 58.1-58.1 58.1-32.08 0-58.1-26-58.1-58.1 0-32.08 26.02-58.1 58.1-58.1 32.1 0 58.1 26.02 58.1 58.1z" stroke="#333" stroke-width="2" fill="#fff"/><g><use xlink:href="#M" transform="matrix(1,0,0,1,1346.1715304182014,806.5384615384613) translate(43.108024691358025 59.892361111111114)"/></g><path d="M347.9-855.86H72.07l-2.92.38-2.64 1.1-2.27 1.75-1.76 2.28-1.1 2.64-.37 2.9V927.94l.38 2.92 1.1 2.64 1.75 2.27 2.28 1.76 2.65 1.1 2.92.37H1387.2l2.92-.38 2.63-1.1 2.3-1.75 1.74-2.28 1.08-2.65.4-2.92v-8.2h2v8.34l-.45 3.3-1.3 3.13-2.07 2.7-2.7 2.07-3.12 1.3-3.3.43H71.93l-3.3-.43-3.14-1.3-2.7-2.07-2.07-2.7-1.3-3.13-.43-3.3v-1773l.43-3.3 1.3-3.12 2.07-2.7 2.7-2.08 3.13-1.3 3.3-.43H347.9z" fill="#333"/><path d="M1399.25 918.73h1.02v1.02h-2v-1.06zM363.16-856.86l-14.26 4.64v-9.27z" fill="#333"/><path d="M366.4-856.86l-18.5 6v-12zm-16.5 3.26l10.03-3.26-10.03-3.26z" fill="#333"/><defs><path fill="#333" d="M195-6C206 82 75 100 31 46c-4-6-6-13-8-21l49-6c3 16 16 24 34 25 40 0 42-37 40-79-11 22-30 35-61 35-53 0-70-43-70-97 0-56 18-96 73-97 30 0 46 14 59 34l2-30h47zm-90-29c32 0 41-27 41-63 0-35-9-62-40-62-32 0-39 29-40 63 0 36 9 62 39 62" id="N"/><path fill="#333" d="M185-48c-13 30-37 53-82 52C43 2 14-33 14-96s30-98 90-98c62 0 83 45 84 108H66c0 31 8 55 39 56 18 0 30-7 34-22zm-45-69c5-46-57-63-70-21-2 6-4 13-4 21h74" id="O"/><path fill="#333" d="M115-3C79 11 28 4 28-45v-112H4v-33h27l15-45h31v45h36v33H77v99c-1 23 16 31 38 25v30" id="P"/><path fill="#333" d="M24-248c93 1 206-16 204 79-1 75-69 88-152 82V0H24v-248zm52 121c47 0 100 7 100-41 0-47-54-39-100-39v80" id="Q"/><path fill="#333" d="M140-251c80 0 125 45 125 126S219 4 139 4C58 4 15-44 15-125s44-126 125-126zm-1 214c52 0 73-35 73-88 0-50-21-86-72-86-52 0-73 35-73 86s22 88 72 88" id="R"/><path fill="#333" d="M169-182c-1-43-94-46-97-3 18 66 151 10 154 114 3 95-165 93-204 36-6-8-10-19-12-30l50-8c3 46 112 56 116 5-17-69-150-10-154-114-4-87 153-88 188-35 5 8 8 18 10 28" id="S"/><path fill="#333" d="M25 0v-261h50V0H25" id="T"/><path fill="#333" d="M137-138c1-29-70-34-71-4 15 46 118 7 119 86 1 83-164 76-172 9l43-7c4 19 20 25 44 25 33 8 57-30 24-41C81-84 22-81 20-136c-2-80 154-74 161-7" id="U"/><path fill="#333" d="M67-93c0 74 22 123 53 168H70C40 30 18-18 18-93s22-123 52-168h50c-32 44-53 94-53 168" id="V"/><path fill="#333" d="M135-194c87-1 58 113 63 194h-50c-7-57 23-157-34-157-59 0-34 97-39 157H25l-1-190h47c2 12-1 28 3 38 12-26 28-41 61-42" id="W"/><path fill="#333" d="M190-63c-7 42-38 67-86 67-59 0-84-38-90-98-12-110 154-137 174-36l-49 2c-2-19-15-32-35-32-30 0-35 28-38 64-6 74 65 87 74 30" id="X"/><path fill="#333" d="M102-93c0 74-22 123-52 168H0C30 29 54-18 53-93c0-74-22-123-53-168h50c30 45 52 94 52 168" id="Y"/><g id="a"><use transform="matrix(0.08024691358024691,0,0,0.08024691358024691,0,0)" xlink:href="#N"/><use transform="matrix(0.08024691358024691,0,0,0.08024691358024691,17.574074074074073,0)" xlink:href="#O"/><use transform="matrix(0.08024691358024691,0,0,0.08024691358024691,33.623456790123456,0)" xlink:href="#P"/><use transform="matrix(0.08024691358024691,0,0,0.08024691358024691,43.172839506172835,0)" xlink:href="#Q"/><use transform="matrix(0.08024691358024691,0,0,0.08024691358024691,62.432098765432094,0)" xlink:href="#R"/><use transform="matrix(0.08024691358024691,0,0,0.08024691358024691,84.90123456790123,0)" xlink:href="#S"/><use transform="matrix(0.08024691358024691,0,0,0.08024691358024691,104.1604938271605,0)" xlink:href="#T"/><use transform="matrix(0.08024691358024691,0,0,0.08024691358024691,112.18518518518518,0)" xlink:href="#U"/><use transform="matrix(0.08024691358024691,0,0,0.08024691358024691,128.23456790123456,0)" xlink:href="#P"/><use transform="matrix(0.08024691358024691,0,0,0.08024691358024691,137.78395061728395,0)" xlink:href="#V"/><use transform="matrix(0.08024691358024691,0,0,0.08024691358024691,147.33333333333334,0)" xlink:href="#U"/><use transform="matrix(0.08024691358024691,0,0,0.08024691358024691,163.38271604938274,0)" xlink:href="#O"/><use transform="matrix(0.08024691358024691,0,0,0.08024691358024691,179.43209876543213,0)" xlink:href="#W"/><use transform="matrix(0.08024691358024691,0,0,0.08024691358024691,197.0061728395062,0)" xlink:href="#P"/><use transform="matrix(0.08024691358024691,0,0,0.08024691358024691,206.55555555555563,0)" xlink:href="#O"/><use transform="matrix(0.08024691358024691,0,0,0.08024691358024691,222.604938271605,0)" xlink:href="#W"/><use transform="matrix(0.08024691358024691,0,0,0.08024691358024691,240.17901234567907,0)" xlink:href="#X"/><use transform="matrix(0.08024691358024691,0,0,0.08024691358024691,256.22839506172846,0)" xlink:href="#O"/><use transform="matrix(0.08024691358024691,0,0,0.08024691358024691,272.2777777777778,0)" xlink:href="#Y"/></g><path fill="#333" d="M24 0v-248h52V0H24" id="Z"/><g id="b"><use transform="matrix(0.08024691358024691,0,0,0.08024691358024691,0,0)" xlink:href="#Z"/><use transform="matrix(0.08024691358024691,0,0,0.08024691358024691,8.024691358024691,0)" xlink:href="#U"/></g><path fill="#333" d="M135-194c52 0 70 43 70 98 0 56-19 99-73 100-30 1-46-15-58-35L72 0H24l1-261h50v104c11-23 29-37 60-37zM114-30c31 0 40-27 40-66 0-37-7-63-39-63s-41 28-41 65c0 36 8 64 40 64" id="aa"/><path fill="#333" d="M135-150c-39-12-60 13-60 57V0H25l-1-190h47c2 13-1 29 3 40 6-28 27-53 61-41v41" id="ab"/><path fill="#333" d="M110-194c64 0 96 36 96 99 0 64-35 99-97 99-61 0-95-36-95-99 0-62 34-99 96-99zm-1 164c35 0 45-28 45-65 0-40-10-65-43-65-34 0-45 26-45 65 0 36 10 65 43 65" id="ac"/><path fill="#333" d="M147 0L96-86 75-71V0H25v-261h50v150l67-79h53l-66 74L201 0h-54" id="ad"/><g id="c"><use transform="matrix(0.08024691358024691,0,0,0.08024691358024691,0,0)" xlink:href="#aa"/><use transform="matrix(0.08024691358024691,0,0,0.08024691358024691,17.574074074074073,0)" xlink:href="#ab"/><use transform="matrix(0.08024691358024691,0,0,0.08024691358024691,28.80864197530864,0)" xlink:href="#ac"/><use transform="matrix(0.08024691358024691,0,0,0.08024691358024691,46.3827160493827,0)" xlink:href="#ad"/><use transform="matrix(0.08024691358024691,0,0,0.08024691358024691,62.43209876543209,0)" xlink:href="#O"/><use transform="matrix(0.08024691358024691,0,0,0.08024691358024691,78.48148148148147,0)" xlink:href="#T"/><use transform="matrix(0.08024691358024691,0,0,0.08024691358024691,86.50617283950616,0)" xlink:href="#U"/><use transform="matrix(0.08024691358024691,0,0,0.08024691358024691,102.55555555555554,0)" xlink:href="#P"/></g><path fill="#333" d="M220-157c-53 9-28 100-34 157h-49v-107c1-27-5-49-29-50C55-147 81-57 75 0H25l-1-190h47c2 12-1 28 3 38 10-53 101-56 108 0 13-22 24-43 59-42 82 1 51 116 57 194h-49v-107c-1-25-5-48-29-50" id="ae"/><path fill="#333" d="M135-194c53 0 70 44 70 98 0 56-19 98-73 100-31 1-45-17-59-34 3 33 2 69 2 105H25l-1-265h48c2 10 0 23 3 31 11-24 29-35 60-35zM114-30c33 0 39-31 40-66 0-38-9-64-40-64-56 0-55 130 0 130" id="af"/><path fill="#333" d="M123 10C108 53 80 86 19 72V37c35 8 53-11 59-39L3-190h52l48 148c12-52 28-100 44-148h51" id="ag"/><path fill="#333" d="M110-251c83-7 118 89 53 130-17 10-36 21-38 46H78c2-56 65-53 71-103 2-21-15-35-38-34-25 1-41 14-44 38l-50-2c6-48 39-70 93-75zM77 0v-47h51V0H77" id="ah"/><g id="d"><use transform="matrix(0.08024691358024691,0,0,0.08024691358024691,0,0)" xlink:href="#O"/><use transform="matrix(0.08024691358024691,0,0,0.08024691358024691,16.049382716049383,0)" xlink:href="#ae"/><use transform="matrix(0.08024691358024691,0,0,0.08024691358024691,41.72839506172839,0)" xlink:href="#af"/><use transform="matrix(0.08024691358024691,0,0,0.08024691358024691,59.30246913580247,0)" xlink:href="#P"/><use transform="matrix(0.08024691358024691,0,0,0.08024691358024691,68.85185185185185,0)" xlink:href="#ag"/><use transform="matrix(0.08024691358024691,0,0,0.08024691358024691,84.90123456790123,0)" xlink:href="#ah"/></g><path fill="#333" d="M146-102V0H94v-102L6-248h54l60 105 60-105h54" id="ai"/><g id="e"><use transform="matrix(0.08024691358024691,0,0,0.08024691358024691,0,0)" xlink:href="#ai"/><use transform="matrix(0.08024691358024691,0,0,0.08024691358024691,17.654320987654323,0)" xlink:href="#O"/><use transform="matrix(0.08024691358024691,0,0,0.08024691358024691,33.70370370370371,0)" xlink:href="#U"/></g><path fill="#333" d="M175 0L67-191c6 58 2 128 3 191H24v-248h59L193-55c-6-58-2-129-3-193h46V0h-61" id="aj"/><g id="f"><use transform="matrix(0.08024691358024691,0,0,0.08024691358024691,0,0)" xlink:href="#aj"/><use transform="matrix(0.08024691358024691,0,0,0.08024691358024691,20.78395061728395,0)" xlink:href="#ac"/></g><g id="g"><use transform="matrix(0.08024691358024691,0,0,0.08024691358024691,0,0)" xlink:href="#aj"/><use transform="matrix(0.08024691358024691,0,0,0.08024691358024691,20.78395061728395,0)" xlink:href="#ac"/><use transform="matrix(0.08024691358024691,0,0,0.08024691358024691,38.358024691358025,0)" xlink:href="#P"/><use transform="matrix(0.08024691358024691,0,0,0.08024691358024691,47.907407407407405,0)" xlink:href="#O"/></g><g id="h"><use transform="matrix(0.08024691358024691,0,0,0.08024691358024691,0,0)" xlink:href="#S"/><use transform="matrix(0.08024691358024691,0,0,0.08024691358024691,19.25925925925926,0)" xlink:href="#O"/><use transform="matrix(0.08024691358024691,0,0,0.08024691358024691,35.308641975308646,0)" xlink:href="#W"/><use transform="matrix(0.08024691358024691,0,0,0.08024691358024691,52.88271604938272,0)" xlink:href="#P"/><use transform="matrix(0.08024691358024691,0,0,0.08024691358024691,62.4320987654321,0)" xlink:href="#O"/><use transform="matrix(0.08024691358024691,0,0,0.08024691358024691,78.48148148148148,0)" xlink:href="#W"/><use transform="matrix(0.08024691358024691,0,0,0.08024691358024691,96.05555555555556,0)" xlink:href="#X"/><use transform="matrix(0.08024691358024691,0,0,0.08024691358024691,112.10493827160494,0)" xlink:href="#O"/></g><path fill="#333" d="M25-224v-37h50v37H25zM25 0v-190h50V0H25" id="ak"/><g id="i"><use transform="matrix(0.08024691358024691,0,0,0.08024691358024691,0,0)" xlink:href="#ak"/><use transform="matrix(0.08024691358024691,0,0,0.08024691358024691,8.024691358024691,0)" xlink:href="#U"/></g><path fill="#333" d="M231 0h-52l-39-155L100 0H48L-1-190h46L77-45c9-52 24-97 36-145h53l37 145 32-145h46" id="al"/><g id="j"><use transform="matrix(0.08024691358024691,0,0,0.08024691358024691,0,0)" xlink:href="#W"/><use transform="matrix(0.08024691358024691,0,0,0.08024691358024691,17.574074074074073,0)" xlink:href="#ac"/><use transform="matrix(0.08024691358024691,0,0,0.08024691358024691,35.148148148148145,0)" xlink:href="#al"/></g><path fill="#333" d="M114-157C55-157 80-60 75 0H25v-261h50l-1 109c12-26 28-41 61-42 86-1 58 113 63 194h-50c-7-57 23-157-34-157" id="am"/><g id="k"><use transform="matrix(0.08024691358024691,0,0,0.08024691358024691,0,0)" xlink:href="#P"/><use transform="matrix(0.08024691358024691,0,0,0.08024691358024691,9.549382716049383,0)" xlink:href="#am"/><use transform="matrix(0.08024691358024691,0,0,0.08024691358024691,27.123456790123456,0)" xlink:href="#O"/></g><path fill="#333" d="M121-226c-27-7-43 5-38 36h38v33H83V0H34v-157H6v-33h28c-9-59 32-81 87-68v32" id="an"/><g id="l"><use transform="matrix(0.08024691358024691,0,0,0.08024691358024691,0,0)" xlink:href="#an"/><use transform="matrix(0.08024691358024691,0,0,0.08024691358024691,9.549382716049383,0)" xlink:href="#ak"/><use transform="matrix(0.08024691358024691,0,0,0.08024691358024691,17.574074074074076,0)" xlink:href="#ab"/><use transform="matrix(0.08024691358024691,0,0,0.08024691358024691,28.808641975308646,0)" xlink:href="#U"/><use transform="matrix(0.08024691358024691,0,0,0.08024691358024691,44.858024691358025,0)" xlink:href="#P"/></g><g id="m"><use transform="matrix(0.08024691358024691,0,0,0.08024691358024691,0,0)" xlink:href="#U"/><use transform="matrix(0.08024691358024691,0,0,0.08024691358024691,16.049382716049383,0)" xlink:href="#O"/><use transform="matrix(0.08024691358024691,0,0,0.08024691358024691,32.098765432098766,0)" xlink:href="#W"/><use transform="matrix(0.08024691358024691,0,0,0.08024691358024691,49.672839506172835,0)" xlink:href="#P"/><use transform="matrix(0.08024691358024691,0,0,0.08024691358024691,59.22222222222221,0)" xlink:href="#O"/><use transform="matrix(0.08024691358024691,0,0,0.08024691358024691,75.2716049382716,0)" xlink:href="#W"/><use transform="matrix(0.08024691358024691,0,0,0.08024691358024691,92.84567901234567,0)" xlink:href="#X"/><use transform="matrix(0.08024691358024691,0,0,0.08024691358024691,108.89506172839505,0)" xlink:href="#O"/></g><g id="n"><use transform="matrix(0.08024691358024691,0,0,0.08024691358024691,0,0)" xlink:href="#an"/><use transform="matrix(0.08024691358024691,0,0,0.08024691358024691,9.549382716049383,0)" xlink:href="#ab"/><use transform="matrix(0.08024691358024691,0,0,0.08024691358024691,20.78395061728395,0)" xlink:href="#ac"/><use transform="matrix(0.08024691358024691,0,0,0.08024691358024691,38.358024691358025,0)" xlink:href="#ae"/></g><path fill="#333" d="M24 0v-54h51V0H24" id="ao"/><g id="o"><use transform="matrix(0.08024691358024691,0,0,0.08024691358024691,0,0)" xlink:href="#aa"/><use transform="matrix(0.08024691358024691,0,0,0.08024691358024691,17.574074074074073,0)" xlink:href="#ab"/><use transform="matrix(0.08024691358024691,0,0,0.08024691358024691,28.80864197530864,0)" xlink:href="#ac"/><use transform="matrix(0.08024691358024691,0,0,0.08024691358024691,46.3827160493827,0)" xlink:href="#ad"/><use transform="matrix(0.08024691358024691,0,0,0.08024691358024691,62.43209876543209,0)" xlink:href="#O"/><use transform="matrix(0.08024691358024691,0,0,0.08024691358024691,78.48148148148147,0)" xlink:href="#T"/><use transform="matrix(0.08024691358024691,0,0,0.08024691358024691,86.50617283950616,0)" xlink:href="#U"/><use transform="matrix(0.08024691358024691,0,0,0.08024691358024691,102.55555555555554,0)" xlink:href="#P"/><use transform="matrix(0.08024691358024691,0,0,0.08024691358024691,112.10493827160491,0)" xlink:href="#ao"/></g><path fill="#333" d="M275 0h-61l-44-196L126 0H64L0-248h53L97-49l45-199h58l43 199 44-199h52" id="ap"/><g id="p"><use transform="matrix(0.08024691358024691,0,0,0.08024691358024691,0,0)" xlink:href="#ap"/><use transform="matrix(0.08024691358024691,0,0,0.08024691358024691,26.641975308641975,0)" xlink:href="#O"/></g><path fill="#333" d="M88-194c31-1 46 15 58 34l-1-101h50l1 261h-48c-2-10 0-23-3-31C134-8 116 4 84 4 32 4 16-41 15-95c0-56 19-97 73-99zm17 164c33 0 40-30 41-66 1-37-9-64-41-64s-38 30-39 65c0 43 13 65 39 65" id="aq"/><g id="q"><use transform="matrix(0.08024691358024691,0,0,0.08024691358024691,0,0)" xlink:href="#an"/><use transform="matrix(0.08024691358024691,0,0,0.08024691358024691,9.549382716049383,0)" xlink:href="#ak"/><use transform="matrix(0.08024691358024691,0,0,0.08024691358024691,17.574074074074076,0)" xlink:href="#W"/><use transform="matrix(0.08024691358024691,0,0,0.08024691358024691,35.14814814814815,0)" xlink:href="#aq"/></g><path fill="#333" d="M133-34C117-15 103 5 69 4 32 3 11-16 11-54c-1-60 55-63 116-61 1-26-3-47-28-47-18 1-26 9-28 27l-52-2c7-38 36-58 82-57s74 22 75 68l1 82c-1 14 12 18 25 15v27c-30 8-71 5-69-32zm-48 3c29 0 43-24 42-57-32 0-66-3-65 30 0 17 8 27 23 27" id="ar"/><g id="r"><use transform="matrix(0.08024691358024691,0,0,0.08024691358024691,0,0)" xlink:href="#O"/><use transform="matrix(0.08024691358024691,0,0,0.08024691358024691,16.049382716049383,0)" xlink:href="#ar"/><use transform="matrix(0.08024691358024691,0,0,0.08024691358024691,32.098765432098766,0)" xlink:href="#X"/><use transform="matrix(0.08024691358024691,0,0,0.08024691358024691,48.14814814814815,0)" xlink:href="#am"/></g><path fill="#333" d="M62-158H24l-5-90h48" id="as"/><g id="s"><use transform="matrix(0.08024691358024691,0,0,0.08024691358024691,0,0)" xlink:href="#U"/><use transform="matrix(0.08024691358024691,0,0,0.08024691358024691,16.049382716049383,0)" xlink:href="#O"/><use transform="matrix(0.08024691358024691,0,0,0.08024691358024691,32.098765432098766,0)" xlink:href="#W"/><use transform="matrix(0.08024691358024691,0,0,0.08024691358024691,49.672839506172835,0)" xlink:href="#P"/><use transform="matrix(0.08024691358024691,0,0,0.08024691358024691,59.22222222222221,0)" xlink:href="#O"/><use transform="matrix(0.08024691358024691,0,0,0.08024691358024691,75.2716049382716,0)" xlink:href="#W"/><use transform="matrix(0.08024691358024691,0,0,0.08024691358024691,92.84567901234567,0)" xlink:href="#X"/><use transform="matrix(0.08024691358024691,0,0,0.08024691358024691,108.89506172839505,0)" xlink:href="#O"/><use transform="matrix(0.08024691358024691,0,0,0.08024691358024691,124.94444444444444,0)" xlink:href="#as"/><use transform="matrix(0.08024691358024691,0,0,0.08024691358024691,131.76543209876542,0)" xlink:href="#U"/></g><g id="t"><use transform="matrix(0.08024691358024691,0,0,0.08024691358024691,0,0)" xlink:href="#Q"/><use transform="matrix(0.08024691358024691,0,0,0.08024691358024691,19.25925925925926,0)" xlink:href="#R"/><use transform="matrix(0.08024691358024691,0,0,0.08024691358024691,41.72839506172839,0)" xlink:href="#S"/></g><g id="u"><use transform="matrix(0.08024691358024691,0,0,0.08024691358024691,0,0)" xlink:href="#ar"/><use transform="matrix(0.08024691358024691,0,0,0.08024691358024691,16.049382716049383,0)" xlink:href="#W"/><use transform="matrix(0.08024691358024691,0,0,0.08024691358024691,33.623456790123456,0)" xlink:href="#aq"/></g><g id="v"><use transform="matrix(0.08024691358024691,0,0,0.08024691358024691,0,0)" xlink:href="#P"/><use transform="matrix(0.08024691358024691,0,0,0.08024691358024691,9.549382716049383,0)" xlink:href="#am"/><use transform="matrix(0.08024691358024691,0,0,0.08024691358024691,27.123456790123456,0)" xlink:href="#O"/><use transform="matrix(0.08024691358024691,0,0,0.08024691358024691,43.172839506172835,0)" xlink:href="#W"/></g><g id="w"><use transform="matrix(0.08024691358024691,0,0,0.08024691358024691,0,0)" xlink:href="#ar"/><use transform="matrix(0.08024691358024691,0,0,0.08024691358024691,16.049382716049383,0)" xlink:href="#X"/><use transform="matrix(0.08024691358024691,0,0,0.08024691358024691,32.098765432098766,0)" xlink:href="#X"/><use transform="matrix(0.08024691358024691,0,0,0.08024691358024691,48.14814814814815,0)" xlink:href="#ac"/><use transform="matrix(0.08024691358024691,0,0,0.08024691358024691,65.72222222222223,0)" xlink:href="#ab"/><use transform="matrix(0.08024691358024691,0,0,0.08024691358024691,76.9567901234568,0)" xlink:href="#aq"/><use transform="matrix(0.08024691358024691,0,0,0.08024691358024691,94.53086419753087,0)" xlink:href="#ak"/><use transform="matrix(0.08024691358024691,0,0,0.08024691358024691,102.55555555555557,0)" xlink:href="#W"/><use transform="matrix(0.08024691358024691,0,0,0.08024691358024691,120.12962962962965,0)" xlink:href="#N"/><use transform="matrix(0.08024691358024691,0,0,0.08024691358024691,137.70370370370372,0)" xlink:href="#T"/><use transform="matrix(0.08024691358024691,0,0,0.08024691358024691,145.7283950617284,0)" xlink:href="#ag"/></g><g id="x"><use transform="matrix(0.08024691358024691,0,0,0.08024691358024691,0,0)" xlink:href="#aq"/><use transform="matrix(0.08024691358024691,0,0,0.08024691358024691,17.574074074074073,0)" xlink:href="#O"/><use transform="matrix(0.08024691358024691,0,0,0.08024691358024691,33.623456790123456,0)" xlink:href="#X"/><use transform="matrix(0.08024691358024691,0,0,0.08024691358024691,49.672839506172835,0)" xlink:href="#ak"/><use transform="matrix(0.08024691358024691,0,0,0.08024691358024691,57.697530864197525,0)" xlink:href="#aq"/><use transform="matrix(0.08024691358024691,0,0,0.08024691358024691,75.2716049382716,0)" xlink:href="#O"/></g><g id="y"><use transform="matrix(0.08024691358024691,0,0,0.08024691358024691,0,0)" xlink:href="#P"/><use transform="matrix(0.08024691358024691,0,0,0.08024691358024691,9.549382716049383,0)" xlink:href="#am"/><use transform="matrix(0.08024691358024691,0,0,0.08024691358024691,27.123456790123456,0)" xlink:href="#O"/><use transform="matrix(0.08024691358024691,0,0,0.08024691358024691,43.172839506172835,0)" xlink:href="#ak"/><use transform="matrix(0.08024691358024691,0,0,0.08024691358024691,51.197530864197525,0)" xlink:href="#ab"/></g><g id="z"><use transform="matrix(0.08024691358024691,0,0,0.08024691358024691,0,0)" xlink:href="#P"/><use transform="matrix(0.08024691358024691,0,0,0.08024691358024691,9.549382716049383,0)" xlink:href="#ag"/><use transform="matrix(0.08024691358024691,0,0,0.08024691358024691,25.598765432098762,0)" xlink:href="#af"/><use transform="matrix(0.08024691358024691,0,0,0.08024691358024691,43.172839506172835,0)" xlink:href="#O"/></g><path fill="#333" d="M85 4C-2 5 27-109 22-190h50c7 57-23 150 33 157 60-5 35-97 40-157h50l1 190h-47c-2-12 1-28-3-38-12 25-28 42-61 42" id="at"/><path fill="#333" d="M25-224v-37h50v37H25zM75 22c2 45-34 59-81 51V38c22 5 31-5 31-27v-201h50V22" id="au"/><g id="A"><use transform="matrix(0.08024691358024691,0,0,0.08024691358024691,0,0)" xlink:href="#U"/><use transform="matrix(0.08024691358024691,0,0,0.08024691358024691,16.049382716049383,0)" xlink:href="#at"/><use transform="matrix(0.08024691358024691,0,0,0.08024691358024691,33.623456790123456,0)" xlink:href="#aa"/><use transform="matrix(0.08024691358024691,0,0,0.08024691358024691,51.197530864197525,0)" xlink:href="#au"/><use transform="matrix(0.08024691358024691,0,0,0.08024691358024691,59.22222222222222,0)" xlink:href="#T"/><use transform="matrix(0.08024691358024691,0,0,0.08024691358024691,67.24691358024691,0)" xlink:href="#U"/><use transform="matrix(0.08024691358024691,0,0,0.08024691358024691,83.29629629629629,0)" xlink:href="#P"/></g><g id="B"><use transform="matrix(0.08024691358024691,0,0,0.08024691358024691,0,0)" xlink:href="#U"/><use transform="matrix(0.08024691358024691,0,0,0.08024691358024691,16.049382716049383,0)" xlink:href="#at"/><use transform="matrix(0.08024691358024691,0,0,0.08024691358024691,33.623456790123456,0)" xlink:href="#aa"/><use transform="matrix(0.08024691358024691,0,0,0.08024691358024691,51.197530864197525,0)" xlink:href="#au"/></g><path fill="#333" d="M15-148v-39h180v39H15zm0 97v-39h180v39H15" id="av"/><use transform="matrix(0.08024691358024691,0,0,0.08024691358024691,0,0)" xlink:href="#av" id="C"/><path fill="#333" d="M23 0v-37h61v-169l-59 37v-38l62-41h46v211h57V0H23" id="aw"/><use transform="matrix(0.08024691358024691,0,0,0.08024691358024691,0,0)" xlink:href="#aw" id="D"/><path fill="#333" d="M128 0H69L1-190h53L99-40l48-150h52" id="ax"/><g id="E"><use transform="matrix(0.08024691358024691,0,0,0.08024691358024691,0,0)" xlink:href="#ax"/><use transform="matrix(0.08024691358024691,0,0,0.08024691358024691,16.049382716049383,0)" xlink:href="#O"/><use transform="matrix(0.08024691358024691,0,0,0.08024691358024691,32.098765432098766,0)" xlink:href="#ab"/><use transform="matrix(0.08024691358024691,0,0,0.08024691358024691,43.33333333333334,0)" xlink:href="#aa"/><use transform="matrix(0.08024691358024691,0,0,0.08024691358024691,60.907407407407405,0)" xlink:href="#T"/><use transform="matrix(0.08024691358024691,0,0,0.08024691358024691,68.9320987654321,0)" xlink:href="#U"/><use transform="matrix(0.08024691358024691,0,0,0.08024691358024691,84.98148148148148,0)" xlink:href="#P"/></g><g id="F"><use transform="matrix(0.08024691358024691,0,0,0.08024691358024691,0,0)" xlink:href="#ax"/><use transform="matrix(0.08024691358024691,0,0,0.08024691358024691,16.049382716049383,0)" xlink:href="#O"/><use transform="matrix(0.08024691358024691,0,0,0.08024691358024691,32.098765432098766,0)" xlink:href="#ab"/><use transform="matrix(0.08024691358024691,0,0,0.08024691358024691,43.33333333333334,0)" xlink:href="#aa"/></g><path fill="#333" d="M101-251c68 0 84 54 84 127C185-50 166 4 99 4S15-52 14-124c-1-75 17-127 87-127zm-1 216c37-5 36-46 36-89s4-89-36-89c-39 0-36 45-36 89 0 43-3 85 36 89" id="ay"/><use transform="matrix(0.08024691358024691,0,0,0.08024691358024691,0,0)" xlink:href="#ay" id="G"/><path fill="#333" d="M147 0H94L2-248h55l64 206c17-72 42-137 63-206h54" id="az"/><g id="H"><use transform="matrix(0.08024691358024691,0,0,0.08024691358024691,0,0)" xlink:href="#az"/><use transform="matrix(0.08024691358024691,0,0,0.08024691358024691,17.654320987654323,0)" xlink:href="#O"/><use transform="matrix(0.08024691358024691,0,0,0.08024691358024691,33.70370370370371,0)" xlink:href="#ab"/><use transform="matrix(0.08024691358024691,0,0,0.08024691358024691,44.93827160493828,0)" xlink:href="#aa"/></g><g id="I"><use transform="matrix(0.08024691358024691,0,0,0.08024691358024691,0,0)" xlink:href="#ac"/><use transform="matrix(0.08024691358024691,0,0,0.08024691358024691,17.574074074074073,0)" xlink:href="#aa"/><use transform="matrix(0.08024691358024691,0,0,0.08024691358024691,35.148148148148145,0)" xlink:href="#au"/><use transform="matrix(0.08024691358024691,0,0,0.08024691358024691,43.172839506172835,0)" xlink:href="#T"/><use transform="matrix(0.08024691358024691,0,0,0.08024691358024691,51.197530864197525,0)" xlink:href="#U"/><use transform="matrix(0.08024691358024691,0,0,0.08024691358024691,67.24691358024691,0)" xlink:href="#P"/></g><g id="J"><use transform="matrix(0.08024691358024691,0,0,0.08024691358024691,0,0)" xlink:href="#ac"/><use transform="matrix(0.08024691358024691,0,0,0.08024691358024691,17.574074074074073,0)" xlink:href="#aa"/><use transform="matrix(0.08024691358024691,0,0,0.08024691358024691,35.148148148148145,0)" xlink:href="#au"/></g><path fill="#333" d="M182-130c37 4 62 22 62 59C244 23 116-4 24 0v-248c84 5 203-23 205 63 0 31-19 50-47 55zM76-148c40-3 101 13 101-30 0-44-60-28-101-31v61zm0 110c48-3 116 14 116-37 0-48-69-32-116-35v72" id="aA"/><use transform="matrix(0.08024691358024691,0,0,0.08024691358024691,0,0)" xlink:href="#aA" id="K"/><path fill="#333" d="M199 0l-22-63H83L61 0H9l90-248h61L250 0h-51zm-33-102l-36-108c-10 38-24 72-36 108h72" id="aB"/><use transform="matrix(0.08024691358024691,0,0,0.08024691358024691,0,0)" xlink:href="#aB" id="L"/><path fill="#333" d="M67-125c0 53 21 87 73 88 37 1 54-22 65-47l45 17C233-25 199 4 140 4 58 4 20-42 15-125 8-235 124-281 211-232c18 10 29 29 36 50l-46 12c-8-25-30-41-62-41-52 0-71 34-72 86" id="aC"/><use transform="matrix(0.08024691358024691,0,0,0.08024691358024691,0,0)" xlink:href="#aC" id="M"/></defs></g></svg>