<svg xmlns="http://www.w3.org/2000/svg" xmlns:xlink="http://www.w3.org/1999/xlink" xmlns:lucid="lucid" width="743.34" height="2346"><g transform="translate(-154 1140)" lucid:page-tab-id="0_0"><path d="M415.43-924.88c3.88-2.1 10.17-2.1 14.05 0l117.46 64.07c3.88 2.1 3.88 5.54 0 7.66l-117.46 64.07c-3.88 2.1-10.17 2.1-14.05 0l-117.47-64.07c-3.88-2.12-3.88-5.55 0-7.67z" stroke="#333" fill="#fff"/><use xlink:href="#a" transform="matrix(1,0,0,1,295.9401866967323,-923.7090955939191) translate(117.24574074074074 26.15277777777778)"/><use xlink:href="#b" transform="matrix(1,0,0,1,295.9401866967323,-923.7090955939191) translate(62.12228395061728 52.81944444444445)"/><use xlink:href="#c" transform="matrix(1,0,0,1,295.9401866967323,-923.7090955939191) translate(113.85067901234568 52.81944444444445)"/><use xlink:href="#d" transform="matrix(1,0,0,1,295.9401866967323,-923.7090955939191) translate(132.98648148148146 52.81944444444445)"/><use xlink:href="#e" transform="matrix(1,0,0,1,295.9401866967323,-923.7090955939191) translate(151.505 52.81944444444445)"/><use xlink:href="#f" transform="matrix(1,0,0,1,295.9401866967323,-923.7090955939191) translate(38.10993827160494 79.48611111111111)"/><use xlink:href="#g" transform="matrix(1,0,0,1,295.9401866967323,-923.7090955939191) translate(77.49265432098765 79.48611111111111)"/><use xlink:href="#d" transform="matrix(1,0,0,1,295.9401866967323,-923.7090955939191) translate(103.97413580246914 79.48611111111111)"/><use xlink:href="#h" transform="matrix(1,0,0,1,295.9401866967323,-923.7090955939191) translate(122.49265432098765 79.48611111111111)"/><use xlink:href="#i" transform="matrix(1,0,0,1,295.9401866967323,-923.7090955939191) translate(168.0482098765432 79.48611111111111)"/><use xlink:href="#g" transform="matrix(1,0,0,1,295.9401866967323,-923.7090955939191) translate(107.09141975308643 106.1527777777778)"/><use xlink:href="#j" transform="matrix(1,0,0,1,295.9401866967323,-923.7090955939191) translate(133.5729012345679 106.1527777777778)"/><path d="M422.95-733.08h-1v-5.45h1zm0-32.12h-1v-21.33h1z" fill="#333"/><path d="M422.95-786.52h-1v-.47l1-.08zM422.45-718.3l-4.63-14.28h9.27z" fill="#333"/><path d="M422.45-716.7l-5.32-16.38h10.65zm-3.94-15.38l3.95 12.15 3.95-12.15z" fill="#333"/><use xlink:href="#k" transform="matrix(1,0,0,1,403.3168810067771,-765.1973512240007) translate(0.004999999999999005 17.77777777777778)"/><path d="M326.8-708.2c0-4.4 3.6-8 8-8h175.3c4.42 0 8 3.6 8 8v180.67c0 4.42-3.58 8-8 8H334.8c-4.4 0-8-3.58-8-8z" stroke="#333" fill="#fff"/><use xlink:href="#l" transform="matrix(1,0,0,1,331.8072312728725,-711.1947092673712) translate(7.9135802469135825 17.77777777777778)"/><use xlink:href="#m" transform="matrix(1,0,0,1,331.8072312728725,-711.1947092673712) translate(96.49382716049382 17.77777777777778)"/><use xlink:href="#n" transform="matrix(1,0,0,1,331.8072312728725,-711.1947092673712) translate(123.53086419753086 17.77777777777778)"/><use xlink:href="#o" transform="matrix(1,0,0,1,331.8072312728725,-711.1947092673712) translate(142.04938271604937 17.77777777777778)"/><use xlink:href="#p" transform="matrix(1,0,0,1,331.8072312728725,-711.1947092673712) translate(3.5308641975308603 44.44444444444444)"/><use xlink:href="#q" transform="matrix(1,0,0,1,331.8072312728725,-711.1947092673712) translate(54.08641975308642 44.44444444444444)"/><use xlink:href="#r" transform="matrix(1,0,0,1,331.8072312728725,-711.1947092673712) translate(43.50000000000001 71.11111111111111)"/><use xlink:href="#s" transform="matrix(1,0,0,1,331.8072312728725,-711.1947092673712) translate(113.80864197530863 71.11111111111111)"/><use xlink:href="#t" transform="matrix(1,0,0,1,331.8072312728725,-711.1947092673712) translate(36.7716049382716 97.77777777777777)"/><use xlink:href="#u" transform="matrix(1,0,0,1,331.8072312728725,-711.1947092673712) translate(2.3580246913580254 124.44444444444446)"/><use xlink:href="#v" transform="matrix(1,0,0,1,331.8072312728725,-711.1947092673712) translate(87.23456790123457 124.44444444444446)"/><use xlink:href="#w" transform="matrix(1,0,0,1,331.8072312728725,-711.1947092673712) translate(140.25925925925927 124.44444444444446)"/><use xlink:href="#x" transform="matrix(1,0,0,1,331.8072312728725,-711.1947092673712) translate(38.62345679012346 151.11111111111111)"/><use xlink:href="#y" transform="matrix(1,0,0,1,331.8072312728725,-711.1947092673712) translate(110.04320987654322 151.11111111111111)"/><use xlink:href="#z" transform="matrix(1,0,0,1,331.8072312728725,-711.1947092673712) translate(50.96913580246914 177.77777777777777)"/><path d="M518.67-705.5c0-4.43 3.58-8 8-8h79.65c4.4 0 8 3.57 8 8v175.28c0 4.42-3.6 8-8 8h-79.65c-4.42 0-8-3.58-8-8z" fill="none"/><path d="M614.32-522.22c-6.6 0-11.96-5.35-11.96-11.95v-71.74c0-6.6-5.35-11.96-11.96-11.96 6.6 0 11.96-5.35 11.96-11.96v-71.73c0-6.6 5.35-11.96 11.96-11.96" stroke="#333" fill="none"/><use xlink:href="#A" transform="matrix(1,0,0,1,523.6704457614018,-708.5068281370781) translate(0.4012345679012377 95.44444444444446)"/><path d="M614.32-721.53c0-4.42 3.58-8 8-8h247.02c4.42 0 8 3.58 8 8v207.34c0 4.42-3.58 8-8 8H622.32c-4.42 0-8-3.58-8-8z" stroke="#000" stroke-opacity="0" fill="#fff" fill-opacity="0"/><use xlink:href="#B" transform="matrix(1,0,0,1,619.3158979644422,-724.5280426007045) translate(0 17.77777777777778)"/><use xlink:href="#C" transform="matrix(1,0,0,1,619.3158979644422,-724.5280426007045) translate(51.72839506172839 17.77777777777778)"/><use xlink:href="#D" transform="matrix(1,0,0,1,619.3158979644422,-724.5280426007045) translate(89.93827160493828 17.77777777777778)"/><use xlink:href="#n" transform="matrix(1,0,0,1,619.3158979644422,-724.5280426007045) translate(114.62962962962963 17.77777777777778)"/><use xlink:href="#E" transform="matrix(1,0,0,1,619.3158979644422,-724.5280426007045) translate(133.14814814814815 17.77777777777778)"/><use xlink:href="#F" transform="matrix(1,0,0,1,619.3158979644422,-724.5280426007045) translate(171.35802469135803 17.77777777777778)"/><use xlink:href="#G" transform="matrix(1,0,0,1,619.3158979644422,-724.5280426007045) translate(0 44.44444444444444)"/><use xlink:href="#H" transform="matrix(1,0,0,1,619.3158979644422,-724.5280426007045) translate(118.14814814814815 44.44444444444444)"/><use xlink:href="#I" transform="matrix(1,0,0,1,619.3158979644422,-724.5280426007045) translate(199.5679012345679 44.44444444444444)"/><use xlink:href="#J" transform="matrix(1,0,0,1,619.3158979644422,-724.5280426007045) translate(0 71.11111111111111)"/><use xlink:href="#K" transform="matrix(1,0,0,1,619.3158979644422,-724.5280426007045) translate(81.41975308641975 71.11111111111111)"/><use xlink:href="#L" transform="matrix(1,0,0,1,619.3158979644422,-724.5280426007045) translate(117.09876543209876 71.11111111111111)"/><use xlink:href="#M" transform="matrix(1,0,0,1,619.3158979644422,-724.5280426007045) translate(168.82716049382714 71.11111111111111)"/><use xlink:href="#N" transform="matrix(1,0,0,1,619.3158979644422,-724.5280426007045) translate(187.34567901234567 71.11111111111111)"/><use xlink:href="#r" transform="matrix(1,0,0,1,619.3158979644422,-724.5280426007045) translate(0 97.77777777777777)"/><use xlink:href="#O" transform="matrix(1,0,0,1,619.3158979644422,-724.5280426007045) translate(70.30864197530863 97.77777777777777)"/><use xlink:href="#P" transform="matrix(1,0,0,1,619.3158979644422,-724.5280426007045) translate(109.69135802469134 97.77777777777777)"/><use xlink:href="#Q" transform="matrix(1,0,0,1,619.3158979644422,-724.5280426007045) translate(0 124.44444444444446)"/><use xlink:href="#R" transform="matrix(1,0,0,1,619.3158979644422,-724.5280426007045) translate(84.01234567901234 124.44444444444446)"/><use xlink:href="#n" transform="matrix(1,0,0,1,619.3158979644422,-724.5280426007045) translate(140.74074074074073 124.44444444444446)"/><use xlink:href="#S" transform="matrix(1,0,0,1,619.3158979644422,-724.5280426007045) translate(159.25925925925924 124.44444444444446)"/><use xlink:href="#h" transform="matrix(1,0,0,1,619.3158979644422,-724.5280426007045) translate(0 151.11111111111111)"/><use xlink:href="#D" transform="matrix(1,0,0,1,619.3158979644422,-724.5280426007045) translate(45.55555555555556 151.11111111111111)"/><use xlink:href="#G" transform="matrix(1,0,0,1,619.3158979644422,-724.5280426007045) translate(70.24691358024691 151.11111111111111)"/><use xlink:href="#T" transform="matrix(1,0,0,1,619.3158979644422,-724.5280426007045) translate(188.39506172839506 151.11111111111111)"/><use xlink:href="#O" transform="matrix(1,0,0,1,619.3158979644422,-724.5280426007045) translate(0 177.77777777777777)"/><use xlink:href="#U" transform="matrix(1,0,0,1,619.3158979644422,-724.5280426007045) translate(39.382716049382715 177.77777777777777)"/><use xlink:href="#V" transform="matrix(1,0,0,1,619.3158979644422,-724.5280426007045) translate(0 204.44444444444443)"/><use xlink:href="#W" transform="matrix(1,0,0,1,619.3158979644422,-724.5280426007045) translate(137.8395061728395 204.44444444444443)"/><path d="M422.45-518.53v34.36c0 .16.13.3.3.3.15 0 .27.12.27.28v18.5" stroke="#333" fill="none"/><path d="M422.95-518.52h-1v-.5h1z" fill="#333"/><path d="M423.02-450.35l-4.63-14.26h9.26z" stroke="#333" fill="#333"/><path d="M415.93-446.8c3.92-2.03 10.27-2.03 14.2 0l123.58 64.36c3.92 2.04 3.92 5.35 0 7.4l-123.58 64.33c-3.92 2.03-10.27 2.03-14.2 0l-123.58-64.35c-3.9-2.04-3.9-5.35 0-7.4z" stroke="#333" fill="#fff"/><use xlink:href="#a" transform="matrix(1,0,0,1,290.24850097526644,-445.4818345787168) translate(123.24574074074074 30.34027777777778)"/><use xlink:href="#b" transform="matrix(1,0,0,1,290.24850097526644,-445.4818345787168) translate(68.12228395061729 57.00694444444445)"/><use xlink:href="#c" transform="matrix(1,0,0,1,290.24850097526644,-445.4818345787168) translate(119.85067901234568 57.00694444444445)"/><use xlink:href="#d" transform="matrix(1,0,0,1,290.24850097526644,-445.4818345787168) translate(138.98648148148146 57.00694444444445)"/><use xlink:href="#X" transform="matrix(1,0,0,1,290.24850097526644,-445.4818345787168) translate(157.505 57.00694444444445)"/><use xlink:href="#v" transform="matrix(1,0,0,1,290.24850097526644,-445.4818345787168) translate(47.782777777777774 83.67361111111111)"/><use xlink:href="#c" transform="matrix(1,0,0,1,290.24850097526644,-445.4818345787168) translate(100.80746913580246 83.67361111111111)"/><use xlink:href="#d" transform="matrix(1,0,0,1,290.24850097526644,-445.4818345787168) translate(119.94327160493826 83.67361111111111)"/><use xlink:href="#h" transform="matrix(1,0,0,1,290.24850097526644,-445.4818345787168) translate(138.46179012345678 83.67361111111111)"/><use xlink:href="#Y" transform="matrix(1,0,0,1,290.24850097526644,-445.4818345787168) translate(184.01734567901235 83.67361111111111)"/><use xlink:href="#g" transform="matrix(1,0,0,1,290.24850097526644,-445.4818345787168) translate(113.09141975308643 110.3402777777778)"/><use xlink:href="#j" transform="matrix(1,0,0,1,290.24850097526644,-445.4818345787168) translate(139.5729012345679 110.3402777777778)"/><path d="M422.95-252.7h-1v-5.64h1zm0-32.3h-1v-21.5h1zM422.95-306.5h-1v-.5h1zM422.45-237.94l-4.63-14.27h9.27z" fill="#333"/><path d="M422.45-236.33l-5.32-16.38h10.65zm-3.94-15.38l3.95 12.14 3.95-12.15z" fill="#333"/><use xlink:href="#k" transform="matrix(1,0,0,1,403.31688100677707,-285.0024114745941) translate(0.004999999999999005 17.77777777777778)"/><path d="M326.8-227.82c0-4.42 3.6-8 8-8h175.3c4.42 0 8 3.58 8 8v180.66c0 4.42-3.58 8-8 8H334.8c-4.4 0-8-3.58-8-8z" stroke="#333" fill="#fff"/><use xlink:href="#l" transform="matrix(1,0,0,1,331.8072312728725,-230.82450000836553) translate(7.9135802469135825 17.77777777777778)"/><use xlink:href="#m" transform="matrix(1,0,0,1,331.8072312728725,-230.82450000836553) translate(96.49382716049382 17.77777777777778)"/><use xlink:href="#n" transform="matrix(1,0,0,1,331.8072312728725,-230.82450000836553) translate(123.53086419753086 17.77777777777778)"/><use xlink:href="#o" transform="matrix(1,0,0,1,331.8072312728725,-230.82450000836553) translate(142.04938271604937 17.77777777777778)"/><use xlink:href="#p" transform="matrix(1,0,0,1,331.8072312728725,-230.82450000836553) translate(9.73456790123457 44.44444444444444)"/><use xlink:href="#Z" transform="matrix(1,0,0,1,331.8072312728725,-230.82450000836553) translate(60.29012345679013 44.44444444444444)"/><use xlink:href="#aa" transform="matrix(1,0,0,1,331.8072312728725,-230.82450000836553) translate(49.117283950617285 71.11111111111111)"/><use xlink:href="#D" transform="matrix(1,0,0,1,331.8072312728725,-230.82450000836553) translate(95.84567901234567 71.11111111111111)"/><use xlink:href="#ab" transform="matrix(1,0,0,1,331.8072312728725,-230.82450000836553) translate(120.53703703703704 71.11111111111111)"/><use xlink:href="#ac" transform="matrix(1,0,0,1,331.8072312728725,-230.82450000836553) translate(10.320987654320987 97.77777777777777)"/><use xlink:href="#ad" transform="matrix(1,0,0,1,331.8072312728725,-230.82450000836553) translate(119.9506172839506 97.77777777777777)"/><use xlink:href="#s" transform="matrix(1,0,0,1,331.8072312728725,-230.82450000836553) translate(146.98765432098764 97.77777777777777)"/><use xlink:href="#t" transform="matrix(1,0,0,1,331.8072312728725,-230.82450000836553) translate(36.7716049382716 124.44444444444446)"/><use xlink:href="#u" transform="matrix(1,0,0,1,331.8072312728725,-230.82450000836553) translate(35.62962962962963 151.11111111111111)"/><use xlink:href="#ae" transform="matrix(1,0,0,1,331.8072312728725,-230.82450000836553) translate(120.50617283950618 151.11111111111111)"/><use xlink:href="#af" transform="matrix(1,0,0,1,331.8072312728725,-230.82450000836553) translate(55.29012345679013 177.77777777777777)"/><path d="M518.67-225.14c0-4.4 3.58-8 8-8h79.65c4.4 0 8 3.6 8 8v175.3c0 4.4-3.6 8-8 8h-79.65c-4.42 0-8-3.6-8-8z" fill="none"/><path d="M614.32-41.85c-6.6 0-11.96-5.35-11.96-11.95v-71.74c0-6.6-5.35-11.95-11.96-11.95 6.6 0 11.96-5.34 11.96-11.95v-71.73c0-6.6 5.35-11.96 11.96-11.96" stroke="#333" fill="none"/><g><use xlink:href="#A" transform="matrix(1,0,0,1,523.6704457614018,-228.13661887807265) translate(0.4012345679012377 95.44444444444446)"/></g><path d="M614.32-280.25c0-4.42 3.58-8 8-8h223.1c4.43 0 8 3.58 8 8v260.67c0 4.42-3.57 8-8 8h-223.1c-4.42 0-8-3.58-8-8z" stroke="#000" stroke-opacity="0" fill="#fff" fill-opacity="0"/><g><use xlink:href="#B" transform="matrix(1,0,0,1,619.3158979644422,-283.24933436399556) translate(0 21.94965277777778)"/><use xlink:href="#C" transform="matrix(1,0,0,1,619.3158979644422,-283.24933436399556) translate(51.72839506172839 21.94965277777778)"/><use xlink:href="#D" transform="matrix(1,0,0,1,619.3158979644422,-283.24933436399556) translate(89.93827160493828 21.94965277777778)"/><use xlink:href="#n" transform="matrix(1,0,0,1,619.3158979644422,-283.24933436399556) translate(114.62962962962963 21.94965277777778)"/><use xlink:href="#E" transform="matrix(1,0,0,1,619.3158979644422,-283.24933436399556) translate(133.14814814814815 21.94965277777778)"/><use xlink:href="#F" transform="matrix(1,0,0,1,619.3158979644422,-283.24933436399556) translate(171.35802469135803 21.94965277777778)"/><use xlink:href="#G" transform="matrix(1,0,0,1,619.3158979644422,-283.24933436399556) translate(0 48.61631944444444)"/><use xlink:href="#H" transform="matrix(1,0,0,1,619.3158979644422,-283.24933436399556) translate(118.14814814814815 48.61631944444444)"/><use xlink:href="#I" transform="matrix(1,0,0,1,619.3158979644422,-283.24933436399556) translate(199.5679012345679 48.61631944444444)"/><use xlink:href="#J" transform="matrix(1,0,0,1,619.3158979644422,-283.24933436399556) translate(0 75.28298611111111)"/><use xlink:href="#K" transform="matrix(1,0,0,1,619.3158979644422,-283.24933436399556) translate(81.41975308641975 75.28298611111111)"/><use xlink:href="#L" transform="matrix(1,0,0,1,619.3158979644422,-283.24933436399556) translate(117.09876543209876 75.28298611111111)"/><use xlink:href="#ag" transform="matrix(1,0,0,1,619.3158979644422,-283.24933436399556) translate(168.82716049382714 75.28298611111111)"/><use xlink:href="#ah" transform="matrix(1,0,0,1,619.3158979644422,-283.24933436399556) translate(0 101.94965277777777)"/><use xlink:href="#r" transform="matrix(1,0,0,1,619.3158979644422,-283.24933436399556) translate(55.55555555555556 101.94965277777777)"/><use xlink:href="#ai" transform="matrix(1,0,0,1,619.3158979644422,-283.24933436399556) translate(125.86419753086419 101.94965277777777)"/><use xlink:href="#aj" transform="matrix(1,0,0,1,619.3158979644422,-283.24933436399556) translate(0 128.61631944444446)"/><use xlink:href="#ak" transform="matrix(1,0,0,1,619.3158979644422,-283.24933436399556) translate(102.28395061728395 128.61631944444446)"/><use xlink:href="#al" transform="matrix(1,0,0,1,619.3158979644422,-283.24933436399556) translate(146.66666666666666 128.61631944444446)"/><use xlink:href="#ae" transform="matrix(1,0,0,1,619.3158979644422,-283.24933436399556) translate(198.39506172839504 128.61631944444446)"/><use xlink:href="#x" transform="matrix(1,0,0,1,619.3158979644422,-283.24933436399556) translate(0 155.28298611111111)"/><use xlink:href="#h" transform="matrix(1,0,0,1,619.3158979644422,-283.24933436399556) translate(71.41975308641975 155.28298611111111)"/><use xlink:href="#am" transform="matrix(1,0,0,1,619.3158979644422,-283.24933436399556) translate(116.9753086419753 155.28298611111111)"/><use xlink:href="#G" transform="matrix(1,0,0,1,619.3158979644422,-283.24933436399556) translate(0 181.94965277777777)"/><use xlink:href="#T" transform="matrix(1,0,0,1,619.3158979644422,-283.24933436399556) translate(118.14814814814815 181.94965277777777)"/><use xlink:href="#U" transform="matrix(1,0,0,1,619.3158979644422,-283.24933436399556) translate(0 208.61631944444443)"/><use xlink:href="#V" transform="matrix(1,0,0,1,619.3158979644422,-283.24933436399556) translate(0 235.2829861111111)"/><use xlink:href="#an" transform="matrix(1,0,0,1,619.3158979644422,-283.24933436399556) translate(137.8395061728395 235.2829861111111)"/><use xlink:href="#K" transform="matrix(1,0,0,1,619.3158979644422,-283.24933436399556) translate(0 261.94965277777777)"/><use xlink:href="#ao" transform="matrix(1,0,0,1,619.3158979644422,-283.24933436399556) translate(35.67901234567901 261.94965277777777)"/><use xlink:href="#ap" transform="matrix(1,0,0,1,619.3158979644422,-283.24933436399556) translate(72.96296296296296 261.94965277777777)"/></g><path d="M415.93 33.58c3.92-2.04 10.27-2.04 14.2 0L553.7 97.93c3.92 2.04 3.92 5.35 0 7.4l-123.58 64.33c-3.92 2.04-10.27 2.04-14.2 0l-123.58-64.34c-3.9-2.04-3.9-5.35 0-7.4z" stroke="#333" fill="#fff"/><g><use xlink:href="#aq" transform="matrix(1,0,0,1,290.24850097526644,34.88837468028855) translate(84.1408024691358 42.90277777777778)"/><use xlink:href="#b" transform="matrix(1,0,0,1,290.24850097526644,34.88837468028855) translate(108.83216049382716 42.90277777777778)"/><use xlink:href="#ar" transform="matrix(1,0,0,1,290.24850097526644,34.88837468028855) translate(160.56055555555557 42.90277777777778)"/><use xlink:href="#d" transform="matrix(1,0,0,1,290.24850097526644,34.88837468028855) translate(103.55438271604939 69.56944444444446)"/><use xlink:href="#X" transform="matrix(1,0,0,1,290.24850097526644,34.88837468028855) translate(122.07290123456791 69.56944444444446)"/><use xlink:href="#v" transform="matrix(1,0,0,1,290.24850097526644,34.88837468028855) translate(86.57907407407409 96.23611111111111)"/><use xlink:href="#g" transform="matrix(1,0,0,1,290.24850097526644,34.88837468028855) translate(139.60376543209878 96.23611111111111)"/><use xlink:href="#j" transform="matrix(1,0,0,1,290.24850097526644,34.88837468028855) translate(166.08524691358025 96.23611111111111)"/></g><path d="M422.45-38.16v49.52" stroke="#333" fill="none"/><path d="M422.95-38.15h-1v-.5h1z" fill="#333"/><path d="M422.45 26.13l-4.63-14.27h9.27z" stroke="#333" fill="#333"/><path d="M423.52 236.7h-1V225.7h1zm0-37.68h-1v-26.9h1z" fill="#333"/><path d="M423.52 172.12h-1v-.47l1-.1zM423.02 251.47l-4.63-14.26h9.26z" fill="#333"/><path d="M423.02 253.1l-5.32-16.4h10.65zm-3.94-15.4l3.94 12.16 3.95-12.15z" fill="#333"/><g><use xlink:href="#k" transform="matrix(1,0,0,1,403.88919108922545,199.0159674416082) translate(0.004999999999999005 17.77777777777778)"/></g><path d="M327.38 261.6c0-4.43 3.58-8 8-8h175.3c4.4 0 8 3.57 8 8v154c0 4.4-3.6 8-8 8h-175.3c-4.42 0-8-3.6-8-8z" stroke="#333" fill="#fff"/><g><use xlink:href="#l" transform="matrix(1,0,0,1,332.37954135532084,258.59314609636704) translate(27.01851851851852 17.77777777777778)"/><use xlink:href="#m" transform="matrix(1,0,0,1,332.37954135532084,258.59314609636704) translate(115.59876543209876 17.77777777777778)"/><use xlink:href="#ab" transform="matrix(1,0,0,1,332.37954135532084,258.59314609636704) translate(142.6358024691358 17.77777777777778)"/><use xlink:href="#as" transform="matrix(1,0,0,1,332.37954135532084,258.59314609636704) translate(52.79012345679012 44.44444444444444)"/><use xlink:href="#at" transform="matrix(1,0,0,1,332.37954135532084,258.59314609636704) translate(1.6481481481481524 71.11111111111111)"/><use xlink:href="#aa" transform="matrix(1,0,0,1,332.37954135532084,258.59314609636704) translate(115.10493827160494 71.11111111111111)"/><use xlink:href="#am" transform="matrix(1,0,0,1,332.37954135532084,258.59314609636704) translate(161.83333333333331 71.11111111111111)"/><use xlink:href="#n" transform="matrix(1,0,0,1,332.37954135532084,258.59314609636704) translate(1.0617283950617207 97.77777777777777)"/><use xlink:href="#ac" transform="matrix(1,0,0,1,332.37954135532084,258.59314609636704) translate(19.58024691358024 97.77777777777777)"/><use xlink:href="#ad" transform="matrix(1,0,0,1,332.37954135532084,258.59314609636704) translate(129.20987654320987 97.77777777777777)"/><use xlink:href="#s" transform="matrix(1,0,0,1,332.37954135532084,258.59314609636704) translate(156.2469135802469 97.77777777777777)"/><use xlink:href="#au" transform="matrix(1,0,0,1,332.37954135532084,258.59314609636704) translate(55.84567901234568 124.44444444444446)"/><use xlink:href="#t" transform="matrix(1,0,0,1,332.37954135532084,258.59314609636704) translate(36.7716049382716 151.11111111111111)"/></g><path d="M518.1 253.1c0-4.43 3.58-8 8-8h79.64c4.42 0 8 3.57 8 8v175.28c0 4.42-3.58 8-8 8H526.1c-4.42 0-8-3.58-8-8z" fill="none"/><path d="M613.74 436.38c-6.6 0-11.95-5.35-11.95-11.95V352.7c0-6.6-5.36-11.96-11.97-11.96 6.6 0 11.96-5.36 11.96-11.96v-71.73c0-6.6 5.34-11.96 11.94-11.96" stroke="#333" fill="none"/><g><use xlink:href="#A" transform="matrix(1,0,0,1,523.0981356789534,250.09064213712955) translate(0.4012345679012377 95.44444444444446)"/></g><path d="M613.74 248.26c0-4.42 3.6-8 8-8h175.3c4.4 0 8 3.58 8 8v180.67c0 4.4-3.6 8-8 8h-175.3c-4.4 0-8-3.6-8-8z" stroke="#000" stroke-opacity="0" fill="#fff" fill-opacity="0"/><g><use xlink:href="#B" transform="matrix(1,0,0,1,618.7435878819938,245.25981276303372) translate(0 17.77777777777778)"/><use xlink:href="#C" transform="matrix(1,0,0,1,618.7435878819938,245.25981276303372) translate(51.72839506172839 17.77777777777778)"/><use xlink:href="#D" transform="matrix(1,0,0,1,618.7435878819938,245.25981276303372) translate(89.93827160493828 17.77777777777778)"/><use xlink:href="#n" transform="matrix(1,0,0,1,618.7435878819938,245.25981276303372) translate(114.62962962962963 17.77777777777778)"/><use xlink:href="#o" transform="matrix(1,0,0,1,618.7435878819938,245.25981276303372) translate(133.14814814814815 17.77777777777778)"/><use xlink:href="#ad" transform="matrix(1,0,0,1,618.7435878819938,245.25981276303372) translate(0 44.44444444444444)"/><use xlink:href="#av" transform="matrix(1,0,0,1,618.7435878819938,245.25981276303372) translate(27.037037037037035 44.44444444444444)"/><use xlink:href="#H" transform="matrix(1,0,0,1,618.7435878819938,245.25981276303372) translate(0 71.11111111111111)"/><use xlink:href="#aw" transform="matrix(1,0,0,1,618.7435878819938,245.25981276303372) translate(81.41975308641975 71.11111111111111)"/><use xlink:href="#ax" transform="matrix(1,0,0,1,618.7435878819938,245.25981276303372) translate(101.1111111111111 71.11111111111111)"/><use xlink:href="#ay" transform="matrix(1,0,0,1,618.7435878819938,245.25981276303372) translate(143.0864197530864 71.11111111111111)"/><use xlink:href="#az" transform="matrix(1,0,0,1,618.7435878819938,245.25981276303372) translate(0 97.77777777777777)"/><use xlink:href="#aA" transform="matrix(1,0,0,1,618.7435878819938,245.25981276303372) translate(57.901234567901234 97.77777777777777)"/><use xlink:href="#aB" transform="matrix(1,0,0,1,618.7435878819938,245.25981276303372) translate(0 124.44444444444446)"/><use xlink:href="#ai" transform="matrix(1,0,0,1,618.7435878819938,245.25981276303372) translate(103.51851851851852 124.44444444444446)"/><use xlink:href="#aC" transform="matrix(1,0,0,1,618.7435878819938,245.25981276303372) translate(0 151.11111111111111)"/><use xlink:href="#aD" transform="matrix(1,0,0,1,618.7435878819938,245.25981276303372) translate(61.54320987654321 151.11111111111111)"/><use xlink:href="#aE" transform="matrix(1,0,0,1,618.7435878819938,245.25981276303372) translate(0 177.77777777777777)"/></g><path d="M255.1-500.76l.4 3 1.13 2.77 1.83 2.4 2.4 1.83 2.75 1.14 3.03.4h144.43l3.2.42 3 1.23 2.6 2 2 2.6 1.24 3 .42 3.2v11.66h-1v-11.6l-.4-3-1.13-2.77-1.85-2.4-2.4-1.82-2.74-1.14-3-.4H266.55l-3.2-.4-3-1.25-2.6-2-2-2.6-1.25-3-.4-3.2v-74.6h1zm39-355.72h-27.47l-3.02.4-2.75 1.14-2.4 1.84-1.82 2.4-1.14 2.74-.4 3.02v242.97h-1V-845l.4-3.22 1.26-3 2-2.6 2.6-2 3-1.23 3.2-.43h27.53z" fill="#333"/><path d="M294.53-857.2l.22.72h-.67v-1h.57zM423.02-450.35l-4.63-14.26h9.26z" fill="#333"/><path d="M423.02-448.73l-5.32-16.38h10.65zm-3.94-15.38l3.94 12.13 3.95-12.14z" fill="#333"/><g><use xlink:href="#aF" transform="matrix(1,0,0,1,239.84025723040574,-601.9703797482188) translate(0.005000000000000782 17.77777777777778)"/></g><path d="M249.5-20.4l.4 3.02 1.14 2.76 1.83 2.4 2.4 1.82L258-9.26l3 .4h150.04l3.2.42 3 1.24 2.6 2 2 2.6 1.24 3 .42 3.2v11.66h-1V3.66l-.4-3L421-2.1l-1.85-2.4-2.4-1.82-2.74-1.15-3-.4H260.96l-3.22-.4-3-1.25-2.6-2-2-2.6-1.23-3-.42-3.2v-72.9h1zm39-357.85h-27.47l-3 .4-2.77 1.14-2.4 1.82-1.82 2.4-1.15 2.75-.4 3v246.86h-1v-246.9l.42-3.22 1.24-3 2-2.6 2.6-1.98 3-1.25 3.2-.42h27.54z" fill="#333"/><path d="M288.9-379.14l.24.9h-.65v-1h.45zM423.02 30.02l-4.63-14.26h9.26z" fill="#333"/><path d="M423.02 31.64l-5.32-16.38h10.65zm-3.94-15.38l3.94 12.14 3.95-12.14z" fill="#333"/><g><use xlink:href="#aF" transform="matrix(1,0,0,1,234.24564497453903,-119.8743384831816) translate(0.005000000000000782 17.77777777777778)"/></g><path d="M249.5 455.7l.4 3 1.14 2.76 1.83 2.4 2.4 1.83 2.75 1.13 3 .4h150.6l3.22.4 3 1.26 2.6 1.98 2 2.6 1.24 3 .42 3.2v11.66h-1v-11.58l-.4-3.02-1.14-2.76-1.83-2.38-2.4-1.84-2.75-1.14-3.02-.4h-150.6l-3.2-.42-3-1.24-2.6-2-2-2.6-1.24-3-.42-3.2V385.3h1zm39-353.58h-27.47l-3 .4-2.77 1.14-2.4 1.83-1.82 2.38-1.15 2.76-.4 3.02v244.98h-1V113.6l.42-3.22 1.24-3 2-2.6 2.6-2 3-1.24 3.2-.42h27.54z" fill="#333"/><path d="M288.9 101.23l.24.9h-.65v-1h.45zM423.6 506.1l-4.64-14.26h9.27z" fill="#333"/><path d="M423.6 507.72l-5.33-16.38h10.65zm-3.95-15.38l3.95 12.15 3.94-12.16z" fill="#333"/><g><use xlink:href="#aF" transform="matrix(1,0,0,1,234.24564497453903,358.6390775732449) translate(0.005000000000000782 17.77777777777778)"/></g><path d="M416.5 509.67c3.92-2.04 10.27-2.04 14.2 0L554.27 574c3.92 2.05 3.92 5.36 0 7.4l-123.6 64.35c-3.9 2.04-10.26 2.04-14.18 0L292.92 581.4c-3.92-2.04-3.92-5.35 0-7.4z" stroke="#333" fill="#fff"/><g><use xlink:href="#a" transform="matrix(1,0,0,1,290.8208110577148,510.9726874516878) translate(123.24574074074074 30.34027777777778)"/><use xlink:href="#b" transform="matrix(1,0,0,1,290.8208110577148,510.9726874516878) translate(64.44944444444445 57.00694444444445)"/><use xlink:href="#g" transform="matrix(1,0,0,1,290.8208110577148,510.9726874516878) translate(116.17783950617284 57.00694444444445)"/><use xlink:href="#d" transform="matrix(1,0,0,1,290.8208110577148,510.9726874516878) translate(142.65932098765433 57.00694444444445)"/><use xlink:href="#X" transform="matrix(1,0,0,1,290.8208110577148,510.9726874516878) translate(161.17783950617286 57.00694444444445)"/><use xlink:href="#v" transform="matrix(1,0,0,1,290.8208110577148,510.9726874516878) translate(47.782777777777774 83.67361111111111)"/><use xlink:href="#c" transform="matrix(1,0,0,1,290.8208110577148,510.9726874516878) translate(100.80746913580246 83.67361111111111)"/><use xlink:href="#d" transform="matrix(1,0,0,1,290.8208110577148,510.9726874516878) translate(119.94327160493826 83.67361111111111)"/><use xlink:href="#h" transform="matrix(1,0,0,1,290.8208110577148,510.9726874516878) translate(138.46179012345678 83.67361111111111)"/><use xlink:href="#Y" transform="matrix(1,0,0,1,290.8208110577148,510.9726874516878) translate(184.01734567901235 83.67361111111111)"/><use xlink:href="#c" transform="matrix(1,0,0,1,290.8208110577148,510.9726874516878) translate(116.76425925925926 110.3402777777778)"/><use xlink:href="#j" transform="matrix(1,0,0,1,290.8208110577148,510.9726874516878) translate(135.90006172839506 110.3402777777778)"/></g><path d="M424.1 699.46h-1v-4.36h1zm0-31.03h-1V648.2h1zM424.1 648.2h-1v-.47l1-.08zM423.6 714.23l-4.64-14.27h9.27z" fill="#333"/><path d="M423.6 715.84l-5.33-16.38h10.65zm-3.95-15.38l3.95 12.15 3.94-12.14z" fill="#333"/><g><use xlink:href="#k" transform="matrix(1,0,0,1,404.46150117167383,668.4336135463406) translate(0.004999999999999005 17.77777777777778)"/></g><path d="M327.95 724.34c0-4.4 3.58-8 8-8h175.3c4.4 0 8 3.6 8 8V905c0 4.43-3.6 8-8 8h-175.3c-4.42 0-8-3.57-8-8z" stroke="#333" fill="#fff"/><g><use xlink:href="#l" transform="matrix(1,0,0,1,332.95185143776916,721.3441255344327) translate(27.01851851851852 17.77777777777778)"/><use xlink:href="#m" transform="matrix(1,0,0,1,332.95185143776916,721.3441255344327) translate(115.59876543209876 17.77777777777778)"/><use xlink:href="#ab" transform="matrix(1,0,0,1,332.95185143776916,721.3441255344327) translate(142.6358024691358 17.77777777777778)"/><use xlink:href="#as" transform="matrix(1,0,0,1,332.95185143776916,721.3441255344327) translate(52.79012345679012 44.44444444444444)"/><use xlink:href="#aG" transform="matrix(1,0,0,1,332.95185143776916,721.3441255344327) translate(5.475308641975317 71.11111111111111)"/><use xlink:href="#aH" transform="matrix(1,0,0,1,332.95185143776916,721.3441255344327) translate(135.96913580246914 71.11111111111111)"/><use xlink:href="#D" transform="matrix(1,0,0,1,332.95185143776916,721.3441255344327) translate(4.148148148148152 97.77777777777777)"/><use xlink:href="#n" transform="matrix(1,0,0,1,332.95185143776916,721.3441255344327) translate(28.83950617283951 97.77777777777777)"/><use xlink:href="#ac" transform="matrix(1,0,0,1,332.95185143776916,721.3441255344327) translate(47.358024691358025 97.77777777777777)"/><use xlink:href="#F" transform="matrix(1,0,0,1,332.95185143776916,721.3441255344327) translate(156.98765432098764 97.77777777777777)"/><use xlink:href="#aI" transform="matrix(1,0,0,1,332.95185143776916,721.3441255344327) translate(19.58024691358024 124.44444444444446)"/><use xlink:href="#aD" transform="matrix(1,0,0,1,332.95185143776916,721.3441255344327) translate(50.444444444444436 124.44444444444446)"/><use xlink:href="#aJ" transform="matrix(1,0,0,1,332.95185143776916,721.3441255344327) translate(4.73456790123457 151.11111111111111)"/><use xlink:href="#aa" transform="matrix(1,0,0,1,332.95185143776916,721.3441255344327) translate(79.98148148148148 151.11111111111111)"/><use xlink:href="#aK" transform="matrix(1,0,0,1,332.95185143776916,721.3441255344327) translate(126.70987654320987 151.11111111111111)"/><use xlink:href="#al" transform="matrix(1,0,0,1,332.95185143776916,721.3441255344327) translate(6.648148148148152 177.77777777777777)"/><use xlink:href="#O" transform="matrix(1,0,0,1,332.95185143776916,721.3441255344327) translate(58.376543209876544 177.77777777777777)"/><use xlink:href="#aL" transform="matrix(1,0,0,1,332.95185143776916,721.3441255344327) translate(97.75925925925927 177.77777777777777)"/></g><path d="M518.67 729.17c0-4.4 3.58-8 8-8h79.65c4.4 0 8 3.6 8 8v175.3c0 4.4-3.6 8-8 8h-79.65c-4.42 0-8-3.6-8-8z" fill="none"/><path d="M614.32 912.47c-6.6 0-11.96-5.36-11.96-11.96V828.8c0-6.6-5.35-11.96-11.96-11.96 6.6 0 11.96-5.35 11.96-11.96v-71.73c0-6.6 5.35-11.96 11.96-11.96" stroke="#333" fill="none"/><g><use xlink:href="#A" transform="matrix(1,0,0,1,523.6704457614018,726.1749549085288) translate(0.4012345679012377 95.44444444444446)"/></g><path d="M614.32 697.68c0-4.42 3.58-8 8-8h199.2c4.42 0 8 3.58 8 8v234c0 4.42-3.58 8-8 8h-199.2c-4.42 0-8-3.58-8-8z" stroke="#000" stroke-opacity="0" fill="#fff" fill-opacity="0"/><g><use xlink:href="#B" transform="matrix(1,0,0,1,619.3158979644422,694.6774588677663) translate(0 25.27777777777778)"/><use xlink:href="#C" transform="matrix(1,0,0,1,619.3158979644422,694.6774588677663) translate(51.72839506172839 25.27777777777778)"/><use xlink:href="#D" transform="matrix(1,0,0,1,619.3158979644422,694.6774588677663) translate(89.93827160493828 25.27777777777778)"/><use xlink:href="#n" transform="matrix(1,0,0,1,619.3158979644422,694.6774588677663) translate(114.62962962962963 25.27777777777778)"/><use xlink:href="#E" transform="matrix(1,0,0,1,619.3158979644422,694.6774588677663) translate(133.14814814814815 25.27777777777778)"/><use xlink:href="#F" transform="matrix(1,0,0,1,619.3158979644422,694.6774588677663) translate(171.35802469135803 25.27777777777778)"/><use xlink:href="#G" transform="matrix(1,0,0,1,619.3158979644422,694.6774588677663) translate(0 51.94444444444445)"/><use xlink:href="#aM" transform="matrix(1,0,0,1,619.3158979644422,694.6774588677663) translate(118.14814814814815 51.94444444444445)"/><use xlink:href="#aw" transform="matrix(1,0,0,1,619.3158979644422,694.6774588677663) translate(0 78.61111111111111)"/><use xlink:href="#J" transform="matrix(1,0,0,1,619.3158979644422,694.6774588677663) translate(19.691358024691358 78.61111111111111)"/><use xlink:href="#aN" transform="matrix(1,0,0,1,619.3158979644422,694.6774588677663) translate(101.1111111111111 78.61111111111111)"/><use xlink:href="#aO" transform="matrix(1,0,0,1,619.3158979644422,694.6774588677663) translate(0 105.2777777777778)"/><use xlink:href="#ad" transform="matrix(1,0,0,1,619.3158979644422,694.6774588677663) translate(85.18518518518518 105.2777777777778)"/><use xlink:href="#aP" transform="matrix(1,0,0,1,619.3158979644422,694.6774588677663) translate(112.22222222222221 105.2777777777778)"/><use xlink:href="#aQ" transform="matrix(1,0,0,1,619.3158979644422,694.6774588677663) translate(0 131.94444444444446)"/><use xlink:href="#ax" transform="matrix(1,0,0,1,619.3158979644422,694.6774588677663) translate(70.24691358024691 131.94444444444446)"/><use xlink:href="#ay" transform="matrix(1,0,0,1,619.3158979644422,694.6774588677663) translate(112.22222222222223 131.94444444444446)"/><use xlink:href="#aR" transform="matrix(1,0,0,1,619.3158979644422,694.6774588677663) translate(0 158.61111111111111)"/><use xlink:href="#aS" transform="matrix(1,0,0,1,619.3158979644422,694.6774588677663) translate(110.86419753086419 158.61111111111111)"/><use xlink:href="#ai" transform="matrix(1,0,0,1,619.3158979644422,694.6774588677663) translate(161.35802469135803 158.61111111111111)"/><use xlink:href="#av" transform="matrix(1,0,0,1,619.3158979644422,694.6774588677663) translate(0 185.27777777777777)"/><use xlink:href="#aJ" transform="matrix(1,0,0,1,619.3158979644422,694.6774588677663) translate(0 211.94444444444443)"/><use xlink:href="#aa" transform="matrix(1,0,0,1,619.3158979644422,694.6774588677663) translate(75.24691358024691 211.94444444444443)"/><use xlink:href="#aT" transform="matrix(1,0,0,1,619.3158979644422,694.6774588677663) translate(121.9753086419753 211.94444444444443)"/><use xlink:href="#aU" transform="matrix(1,0,0,1,619.3158979644422,694.6774588677663) translate(0 238.6111111111111)"/><use xlink:href="#ad" transform="matrix(1,0,0,1,619.3158979644422,694.6774588677663) translate(70.2469135802469 238.6111111111111)"/><use xlink:href="#aV" transform="matrix(1,0,0,1,619.3158979644422,694.6774588677663) translate(97.28395061728394 238.6111111111111)"/></g><path d="M250.07 955.58l.4 3 1.14 2.77 1.84 2.4 2.4 1.82 2.75 1.15 3 .4h150.03l3.2.4 3 1.26 2.6 2 2 2.6 1.25 3 .42 3.2v11.65h-1v-11.6l-.4-3-1.14-2.76-1.83-2.4-2.4-1.82-2.75-1.14-3.02-.4H261.54l-3.2-.4-3-1.25-2.6-2-2-2.6-1.25-3-.43-3.2V873h1zm39-377.37H261.6l-3 .4-2.77 1.14-2.4 1.84-1.82 2.4-1.13 2.74-.4 3.02v256.6h-1V589.67l.42-3.2 1.23-3 2-2.6 2.6-2 3-1.24 3.2-.42h27.54zM289.46 577.32l.25.9h-.64v-1h.46zM423.6 1006l-4.64-14.27h9.27z" fill="#333"/><path d="M423.6 1007.6l-5.33-16.37h10.65zm-3.95-15.37l3.95 12.15 3.94-12.15z" fill="#333"/><g><use xlink:href="#aF" transform="matrix(1,0,0,1,234.81795505698736,846.3388418095102) translate(0.005000000000000782 17.77777777777778)"/></g><path d="M423.02 424.6v64.99" stroke="#333" fill="none"/><path d="M423.52 424.6h-1v-.5h1z" fill="#333"/><path d="M423.02 504.35l-4.63-14.26h9.26z" stroke="#333" fill="#333"/><path d="M423.6 914v77.23" stroke="#333" fill="none"/><path d="M424.1 914.02h-1v-.5h1z" fill="#333"/><path d="M423.6 1006l-4.64-14.27h9.27z" stroke="#333" fill="#333"/><path d="M327.95 1016.1c0-4.4 3.58-8 8-8h175.3c4.4 0 8 3.6 8 8v127.48c0 4.42-3.6 8-8 8h-175.3c-4.42 0-8-3.58-8-8z" stroke="#333" fill="#fff"/><g><use xlink:href="#aW" transform="matrix(1,0,0,1,332.95185143776916,1013.1113115176499) translate(28.160493827160494 42.90277777777778)"/><use xlink:href="#aX" transform="matrix(1,0,0,1,332.95185143776916,1013.1113115176499) translate(120.62962962962963 42.90277777777778)"/><use xlink:href="#aj" transform="matrix(1,0,0,1,332.95185143776916,1013.1113115176499) translate(15.228395061728406 69.56944444444446)"/><use xlink:href="#aY" transform="matrix(1,0,0,1,332.95185143776916,1013.1113115176499) translate(117.51234567901236 69.56944444444446)"/><use xlink:href="#aZ" transform="matrix(1,0,0,1,332.95185143776916,1013.1113115176499) translate(47.882716049382715 96.23611111111111)"/></g><path d="M471.42-1072.18c0 26.4-21.4 47.83-47.82 47.83-26.4 0-47.83-21.42-47.83-47.83 0-26.4 21.42-47.82 47.83-47.82 26.4 0 47.82 21.4 47.82 47.82z" stroke="#333" fill="#fff"/><g><use xlink:href="#ba" transform="matrix(1,0,0,1,380.7745775392894,-1115) translate(35.00617283950617 47.34027777777778)"/></g><path d="M423.6-1023.35v78.27" stroke="#333" fill="none"/><path d="M423.58-1023.85h.15l.37-.02v.53h-1v-.54z" fill="#333"/><path d="M423.6-930.33l-4.64-14.26h9.27z" stroke="#333" fill="#333"/><path d="M358.9-1071.68H172.02l-3 .4-2.77 1.14-2.4 1.83-1.82 2.38-1.14 2.76-.4 3.02v2248.1l.4 3.02 1.14 2.76 1.83 2.4 2.4 1.82 2.75 1.14 3 .4h239.54l3.02-.4 2.76-1.14 2.4-1.83 1.82-2.4 1.14-2.75.4-3v-35.4h1v35.45l-.42 3.2-1.25 3-2 2.6-2.6 2-3 1.25-3.2.42H171.97l-3.2-.42-3-1.24-2.6-2-2-2.6-1.25-3-.42-3.2v-2248.25l.42-3.22 1.24-3 2-2.6 2.6-2 3-1.24 3.2-.42H358.9z" fill="#333"/><path d="M424.1 1152.6h-1v-.52h1zM373.66-1072.18l-14.27 4.64v-9.27z" fill="#333"/><path d="M375.27-1072.18l-16.38 5.33v-10.65zm-15.38 3.95l12.14-3.95-12.15-3.94z" fill="#333"/><defs><path fill="#333" d="M25-224v-37h50v37H25zM25 0v-190h50V0H25" id="bb"/><path fill="#333" d="M137-138c1-29-70-34-71-4 15 46 118 7 119 86 1 83-164 76-172 9l43-7c4 19 20 25 44 25 33 8 57-30 24-41C81-84 22-81 20-136c-2-80 154-74 161-7" id="bc"/><g id="a"><use transform="matrix(0.06172839506172839,0,0,0.06172839506172839,0,0)" xlink:href="#bb"/><use transform="matrix(0.06172839506172839,0,0,0.06172839506172839,6.172839506172839,0)" xlink:href="#bc"/></g><path fill="#333" d="M85 4C-2 5 27-109 22-190h50c7 57-23 150 33 157 60-5 35-97 40-157h50l1 190h-47c-2-12 1-28-3-38-12 25-28 42-61 42" id="bd"/><path fill="#333" d="M135-194c52 0 70 43 70 98 0 56-19 99-73 100-30 1-46-15-58-35L72 0H24l1-261h50v104c11-23 29-37 60-37zM114-30c31 0 40-27 40-66 0-37-7-63-39-63s-41 28-41 65c0 36 8 64 40 64" id="be"/><path fill="#333" d="M25-224v-37h50v37H25zM75 22c2 45-34 59-81 51V38c22 5 31-5 31-27v-201h50V22" id="bf"/><g id="b"><use transform="matrix(0.06172839506172839,0,0,0.06172839506172839,0,0)" xlink:href="#bc"/><use transform="matrix(0.06172839506172839,0,0,0.06172839506172839,12.345679012345679,0)" xlink:href="#bd"/><use transform="matrix(0.06172839506172839,0,0,0.06172839506172839,25.864197530864196,0)" xlink:href="#be"/><use transform="matrix(0.06172839506172839,0,0,0.06172839506172839,39.382716049382715,0)" xlink:href="#bf"/></g><path fill="#333" d="M15-148v-39h180v39H15zm0 97v-39h180v39H15" id="bg"/><use transform="matrix(0.06172839506172839,0,0,0.06172839506172839,0,0)" xlink:href="#bg" id="c"/><path fill="#333" d="M101-251c68 0 84 54 84 127C185-50 166 4 99 4S15-52 14-124c-1-75 17-127 87-127zm-1 216c37-5 36-46 36-89s4-89-36-89c-39 0-36 45-36 89 0 43-3 85 36 89" id="bh"/><use transform="matrix(0.06172839506172839,0,0,0.06172839506172839,0,0)" xlink:href="#bh" id="d"/><path fill="#333" d="M133-34C117-15 103 5 69 4 32 3 11-16 11-54c-1-60 55-63 116-61 1-26-3-47-28-47-18 1-26 9-28 27l-52-2c7-38 36-58 82-57s74 22 75 68l1 82c-1 14 12 18 25 15v27c-30 8-71 5-69-32zm-48 3c29 0 43-24 42-57-32 0-66-3-65 30 0 17 8 27 23 27" id="bi"/><path fill="#333" d="M135-194c87-1 58 113 63 194h-50c-7-57 23-157-34-157-59 0-34 97-39 157H25l-1-190h47c2 12-1 28 3 38 12-26 28-41 61-42" id="bj"/><path fill="#333" d="M88-194c31-1 46 15 58 34l-1-101h50l1 261h-48c-2-10 0-23-3-31C134-8 116 4 84 4 32 4 16-41 15-95c0-56 19-97 73-99zm17 164c33 0 40-30 41-66 1-37-9-64-41-64s-38 30-39 65c0 43 13 65 39 65" id="bk"/><g id="e"><use transform="matrix(0.06172839506172839,0,0,0.06172839506172839,0,0)" xlink:href="#bi"/><use transform="matrix(0.06172839506172839,0,0,0.06172839506172839,12.345679012345679,0)" xlink:href="#bj"/><use transform="matrix(0.06172839506172839,0,0,0.06172839506172839,25.864197530864196,0)" xlink:href="#bk"/></g><path fill="#333" d="M110-194c64 0 96 36 96 99 0 64-35 99-97 99-61 0-95-36-95-99 0-62 34-99 96-99zm-1 164c35 0 45-28 45-65 0-40-10-65-43-65-34 0-45 26-45 65 0 36 10 65 43 65" id="bl"/><g id="f"><use transform="matrix(0.06172839506172839,0,0,0.06172839506172839,0,0)" xlink:href="#bl"/><use transform="matrix(0.06172839506172839,0,0,0.06172839506172839,13.518518518518517,0)" xlink:href="#be"/><use transform="matrix(0.06172839506172839,0,0,0.06172839506172839,27.037037037037035,0)" xlink:href="#bf"/></g><path fill="#333" d="M80-75H40l-6-173h52zM34 0v-47h51V0H34" id="bm"/><g id="g"><use transform="matrix(0.06172839506172839,0,0,0.06172839506172839,0,0)" xlink:href="#bm"/><use transform="matrix(0.06172839506172839,0,0,0.06172839506172839,7.345679012345679,0)" xlink:href="#bg"/></g><g id="h"><use transform="matrix(0.06172839506172839,0,0,0.06172839506172839,0,0)" xlink:href="#bi"/><use transform="matrix(0.06172839506172839,0,0,0.06172839506172839,12.345679012345679,0)" xlink:href="#bj"/><use transform="matrix(0.06172839506172839,0,0,0.06172839506172839,25.864197530864196,0)" xlink:href="#bk"/></g><path fill="#333" d="M128 0H69L1-190h53L99-40l48-150h52" id="bn"/><path fill="#333" d="M185-48c-13 30-37 53-82 52C43 2 14-33 14-96s30-98 90-98c62 0 83 45 84 108H66c0 31 8 55 39 56 18 0 30-7 34-22zm-45-69c5-46-57-63-70-21-2 6-4 13-4 21h74" id="bo"/><path fill="#333" d="M135-150c-39-12-60 13-60 57V0H25l-1-190h47c2 13-1 29 3 40 6-28 27-53 61-41v41" id="bp"/><g id="i"><use transform="matrix(0.06172839506172839,0,0,0.06172839506172839,0,0)" xlink:href="#bn"/><use transform="matrix(0.06172839506172839,0,0,0.06172839506172839,12.345679012345679,0)" xlink:href="#bo"/><use transform="matrix(0.06172839506172839,0,0,0.06172839506172839,24.691358024691358,0)" xlink:href="#bp"/><use transform="matrix(0.06172839506172839,0,0,0.06172839506172839,33.33333333333333,0)" xlink:href="#be"/></g><use transform="matrix(0.06172839506172839,0,0,0.06172839506172839,0,0)" xlink:href="#bh" id="j"/><path fill="#333" d="M146-102V0H94v-102L6-248h54l60 105 60-105h54" id="bq"/><g id="k"><use transform="matrix(0.06172839506172839,0,0,0.06172839506172839,0,0)" xlink:href="#bq"/><use transform="matrix(0.06172839506172839,0,0,0.06172839506172839,13.580246913580245,0)" xlink:href="#bo"/><use transform="matrix(0.06172839506172839,0,0,0.06172839506172839,25.925925925925924,0)" xlink:href="#bc"/></g><path fill="#333" d="M199 0l-22-63H83L61 0H9l90-248h61L250 0h-51zm-33-102l-36-108c-10 38-24 72-36 108h72" id="br"/><path fill="#333" d="M135-194c53 0 70 44 70 98 0 56-19 98-73 100-31 1-45-17-59-34 3 33 2 69 2 105H25l-1-265h48c2 10 0 23 3 31 11-24 29-35 60-35zM114-30c33 0 39-31 40-66 0-38-9-64-40-64-56 0-55 130 0 130" id="bs"/><g id="l"><use transform="matrix(0.06172839506172839,0,0,0.06172839506172839,0,0)" xlink:href="#br"/><use transform="matrix(0.06172839506172839,0,0,0.06172839506172839,15.987654320987653,0)" xlink:href="#bs"/><use transform="matrix(0.06172839506172839,0,0,0.06172839506172839,29.50617283950617,0)" xlink:href="#bs"/><use transform="matrix(0.06172839506172839,0,0,0.06172839506172839,43.02469135802469,0)" xlink:href="#bo"/><use transform="matrix(0.06172839506172839,0,0,0.06172839506172839,55.37037037037037,0)" xlink:href="#bj"/><use transform="matrix(0.06172839506172839,0,0,0.06172839506172839,68.88888888888889,0)" xlink:href="#bk"/></g><path fill="#333" d="M115-3C79 11 28 4 28-45v-112H4v-33h27l15-45h31v45h36v33H77v99c-1 23 16 31 38 25v30" id="bt"/><g id="m"><use transform="matrix(0.06172839506172839,0,0,0.06172839506172839,0,0)" xlink:href="#bt"/><use transform="matrix(0.06172839506172839,0,0,0.06172839506172839,7.345679012345679,0)" xlink:href="#bl"/></g><use transform="matrix(0.06172839506172839,0,0,0.06172839506172839,0,0)" xlink:href="#bi" id="n"/><path fill="#333" d="M25 0v-261h50V0H25" id="bu"/><g id="o"><use transform="matrix(0.06172839506172839,0,0,0.06172839506172839,0,0)" xlink:href="#bu"/><use transform="matrix(0.06172839506172839,0,0,0.06172839506172839,6.172839506172839,0)" xlink:href="#bb"/><use transform="matrix(0.06172839506172839,0,0,0.06172839506172839,12.345679012345679,0)" xlink:href="#bc"/><use transform="matrix(0.06172839506172839,0,0,0.06172839506172839,24.691358024691358,0)" xlink:href="#bt"/></g><path fill="#333" d="M67-93c0 74 22 123 53 168H70C40 30 18-18 18-93s22-123 52-168h50c-32 44-53 94-53 168" id="bv"/><path fill="#333" d="M123 10C108 53 80 86 19 72V37c35 8 53-11 59-39L3-190h52l48 148c12-52 28-100 44-148h51" id="bw"/><g id="p"><use transform="matrix(0.06172839506172839,0,0,0.06172839506172839,0,0)" xlink:href="#bv"/><use transform="matrix(0.06172839506172839,0,0,0.06172839506172839,7.345679012345679,0)" xlink:href="#bc"/><use transform="matrix(0.06172839506172839,0,0,0.06172839506172839,19.691358024691358,0)" xlink:href="#bi"/><use transform="matrix(0.06172839506172839,0,0,0.06172839506172839,32.03703703703704,0)" xlink:href="#bw"/></g><path fill="#333" d="M220-157c-53 9-28 100-34 157h-49v-107c1-27-5-49-29-50C55-147 81-57 75 0H25l-1-190h47c2 12-1 28 3 38 10-53 101-56 108 0 13-22 24-43 59-42 82 1 51 116 57 194h-49v-107c-1-25-5-48-29-50" id="bx"/><path fill="#333" d="M102-93c0 74-22 123-52 168H0C30 29 54-18 53-93c0-74-22-123-53-168h50c30 45 52 94 52 168" id="by"/><g id="q"><use transform="matrix(0.06172839506172839,0,0,0.06172839506172839,0,0)" xlink:href="#bo"/><use transform="matrix(0.06172839506172839,0,0,0.06172839506172839,12.345679012345679,0)" xlink:href="#bx"/><use transform="matrix(0.06172839506172839,0,0,0.06172839506172839,32.098765432098766,0)" xlink:href="#bs"/><use transform="matrix(0.06172839506172839,0,0,0.06172839506172839,45.617283950617285,0)" xlink:href="#bc"/><use transform="matrix(0.06172839506172839,0,0,0.06172839506172839,57.96296296296296,0)" xlink:href="#bd"/><use transform="matrix(0.06172839506172839,0,0,0.06172839506172839,71.48148148148148,0)" xlink:href="#be"/><use transform="matrix(0.06172839506172839,0,0,0.06172839506172839,85,0)" xlink:href="#bf"/><use transform="matrix(0.06172839506172839,0,0,0.06172839506172839,91.17283950617283,0)" xlink:href="#bu"/><use transform="matrix(0.06172839506172839,0,0,0.06172839506172839,97.34567901234567,0)" xlink:href="#bc"/><use transform="matrix(0.06172839506172839,0,0,0.06172839506172839,109.69135802469135,0)" xlink:href="#bt"/><use transform="matrix(0.06172839506172839,0,0,0.06172839506172839,117.03703703703704,0)" xlink:href="#by"/></g><path fill="#333" d="M231 0h-52l-39-155L100 0H48L-1-190h46L77-45c9-52 24-97 36-145h53l37 145 32-145h46" id="bz"/><path fill="#333" d="M114-157C55-157 80-60 75 0H25v-261h50l-1 109c12-26 28-41 61-42 86-1 58 113 63 194h-50c-7-57 23-157-34-157" id="bA"/><g id="r"><use transform="matrix(0.06172839506172839,0,0,0.06172839506172839,0,0)" xlink:href="#bz"/><use transform="matrix(0.06172839506172839,0,0,0.06172839506172839,17.28395061728395,0)" xlink:href="#bA"/><use transform="matrix(0.06172839506172839,0,0,0.06172839506172839,30.80246913580247,0)" xlink:href="#bo"/><use transform="matrix(0.06172839506172839,0,0,0.06172839506172839,43.148148148148145,0)" xlink:href="#bp"/><use transform="matrix(0.06172839506172839,0,0,0.06172839506172839,51.79012345679012,0)" xlink:href="#bo"/></g><g id="s"><use transform="matrix(0.06172839506172839,0,0,0.06172839506172839,0,0)" xlink:href="#bi"/><use transform="matrix(0.06172839506172839,0,0,0.06172839506172839,12.345679012345679,0)" xlink:href="#bu"/><use transform="matrix(0.06172839506172839,0,0,0.06172839506172839,18.51851851851852,0)" xlink:href="#bu"/></g><path fill="#333" d="M190-63c-7 42-38 67-86 67-59 0-84-38-90-98-12-110 154-137 174-36l-49 2c-2-19-15-32-35-32-30 0-35 28-38 64-6 74 65 87 74 30" id="bB"/><g id="t"><use transform="matrix(0.06172839506172839,0,0,0.06172839506172839,0,0)" xlink:href="#bc"/><use transform="matrix(0.06172839506172839,0,0,0.06172839506172839,12.345679012345679,0)" xlink:href="#bo"/><use transform="matrix(0.06172839506172839,0,0,0.06172839506172839,24.691358024691358,0)" xlink:href="#bj"/><use transform="matrix(0.06172839506172839,0,0,0.06172839506172839,38.20987654320987,0)" xlink:href="#bt"/><use transform="matrix(0.06172839506172839,0,0,0.06172839506172839,45.55555555555555,0)" xlink:href="#bo"/><use transform="matrix(0.06172839506172839,0,0,0.06172839506172839,57.90123456790123,0)" xlink:href="#bj"/><use transform="matrix(0.06172839506172839,0,0,0.06172839506172839,71.41975308641975,0)" xlink:href="#bB"/><use transform="matrix(0.06172839506172839,0,0,0.06172839506172839,83.76543209876543,0)" xlink:href="#bo"/><use transform="matrix(0.06172839506172839,0,0,0.06172839506172839,96.11111111111111,0)" xlink:href="#bc"/></g><g id="u"><use transform="matrix(0.06172839506172839,0,0,0.06172839506172839,0,0)" xlink:href="#bz"/><use transform="matrix(0.06172839506172839,0,0,0.06172839506172839,17.28395061728395,0)" xlink:href="#bb"/><use transform="matrix(0.06172839506172839,0,0,0.06172839506172839,23.456790123456788,0)" xlink:href="#bt"/><use transform="matrix(0.06172839506172839,0,0,0.06172839506172839,30.80246913580247,0)" xlink:href="#bA"/><use transform="matrix(0.06172839506172839,0,0,0.06172839506172839,44.32098765432099,0)" xlink:href="#bl"/><use transform="matrix(0.06172839506172839,0,0,0.06172839506172839,57.839506172839506,0)" xlink:href="#bd"/><use transform="matrix(0.06172839506172839,0,0,0.06172839506172839,71.35802469135803,0)" xlink:href="#bt"/></g><g id="v"><use transform="matrix(0.06172839506172839,0,0,0.06172839506172839,0,0)" xlink:href="#bn"/><use transform="matrix(0.06172839506172839,0,0,0.06172839506172839,12.345679012345679,0)" xlink:href="#bo"/><use transform="matrix(0.06172839506172839,0,0,0.06172839506172839,24.691358024691358,0)" xlink:href="#bp"/><use transform="matrix(0.06172839506172839,0,0,0.06172839506172839,33.33333333333333,0)" xlink:href="#be"/></g><g id="w"><use transform="matrix(0.06172839506172839,0,0,0.06172839506172839,0,0)" xlink:href="#bi"/><use transform="matrix(0.06172839506172839,0,0,0.06172839506172839,12.345679012345679,0)" xlink:href="#bj"/><use transform="matrix(0.06172839506172839,0,0,0.06172839506172839,25.864197530864196,0)" xlink:href="#bk"/></g><g id="x"><use transform="matrix(0.06172839506172839,0,0,0.06172839506172839,0,0)" xlink:href="#bl"/><use transform="matrix(0.06172839506172839,0,0,0.06172839506172839,13.518518518518517,0)" xlink:href="#be"/><use transform="matrix(0.06172839506172839,0,0,0.06172839506172839,27.037037037037035,0)" xlink:href="#bf"/><use transform="matrix(0.06172839506172839,0,0,0.06172839506172839,33.20987654320987,0)" xlink:href="#bo"/><use transform="matrix(0.06172839506172839,0,0,0.06172839506172839,45.55555555555555,0)" xlink:href="#bB"/><use transform="matrix(0.06172839506172839,0,0,0.06172839506172839,57.90123456790123,0)" xlink:href="#bt"/></g><g id="y"><use transform="matrix(0.06172839506172839,0,0,0.06172839506172839,0,0)" xlink:href="#bi"/><use transform="matrix(0.06172839506172839,0,0,0.06172839506172839,12.345679012345679,0)" xlink:href="#bp"/><use transform="matrix(0.06172839506172839,0,0,0.06172839506172839,20.98765432098765,0)" xlink:href="#bo"/></g><g id="z"><use transform="matrix(0.06172839506172839,0,0,0.06172839506172839,0,0)" xlink:href="#bs"/><use transform="matrix(0.06172839506172839,0,0,0.06172839506172839,13.518518518518517,0)" xlink:href="#bp"/><use transform="matrix(0.06172839506172839,0,0,0.06172839506172839,22.160493827160494,0)" xlink:href="#bo"/><use transform="matrix(0.06172839506172839,0,0,0.06172839506172839,34.50617283950617,0)" xlink:href="#bc"/><use transform="matrix(0.06172839506172839,0,0,0.06172839506172839,46.85185185185185,0)" xlink:href="#bo"/><use transform="matrix(0.06172839506172839,0,0,0.06172839506172839,59.197530864197525,0)" xlink:href="#bj"/><use transform="matrix(0.06172839506172839,0,0,0.06172839506172839,72.71604938271604,0)" xlink:href="#bt"/></g><path fill="#333" d="M175 0L67-191c6 58 2 128 3 191H24v-248h59L193-55c-6-58-2-129-3-193h46V0h-61" id="bC"/><g id="A"><use transform="matrix(0.06172839506172839,0,0,0.06172839506172839,0,0)" xlink:href="#bC"/><use transform="matrix(0.06172839506172839,0,0,0.06172839506172839,15.987654320987653,0)" xlink:href="#bl"/><use transform="matrix(0.06172839506172839,0,0,0.06172839506172839,29.50617283950617,0)" xlink:href="#bt"/><use transform="matrix(0.06172839506172839,0,0,0.06172839506172839,36.85185185185185,0)" xlink:href="#bo"/></g><path fill="#333" d="M136-208V0H84v-208H4v-40h212v40h-80" id="bD"/><g id="B"><use transform="matrix(0.06172839506172839,0,0,0.06172839506172839,0,0)" xlink:href="#bD"/><use transform="matrix(0.06172839506172839,0,0,0.06172839506172839,13.518518518518517,0)" xlink:href="#bA"/><use transform="matrix(0.06172839506172839,0,0,0.06172839506172839,27.037037037037035,0)" xlink:href="#bb"/><use transform="matrix(0.06172839506172839,0,0,0.06172839506172839,33.20987654320987,0)" xlink:href="#bc"/></g><g id="C"><use transform="matrix(0.06172839506172839,0,0,0.06172839506172839,0,0)" xlink:href="#bu"/><use transform="matrix(0.06172839506172839,0,0,0.06172839506172839,6.172839506172839,0)" xlink:href="#bb"/><use transform="matrix(0.06172839506172839,0,0,0.06172839506172839,12.345679012345679,0)" xlink:href="#bc"/><use transform="matrix(0.06172839506172839,0,0,0.06172839506172839,24.691358024691358,0)" xlink:href="#bt"/></g><g id="D"><use transform="matrix(0.06172839506172839,0,0,0.06172839506172839,0,0)" xlink:href="#bb"/><use transform="matrix(0.06172839506172839,0,0,0.06172839506172839,6.172839506172839,0)" xlink:href="#bc"/></g><g id="E"><use transform="matrix(0.06172839506172839,0,0,0.06172839506172839,0,0)" xlink:href="#bu"/><use transform="matrix(0.06172839506172839,0,0,0.06172839506172839,6.172839506172839,0)" xlink:href="#bb"/><use transform="matrix(0.06172839506172839,0,0,0.06172839506172839,12.345679012345679,0)" xlink:href="#bc"/><use transform="matrix(0.06172839506172839,0,0,0.06172839506172839,24.691358024691358,0)" xlink:href="#bt"/></g><path fill="#333" d="M121-226c-27-7-43 5-38 36h38v33H83V0H34v-157H6v-33h28c-9-59 32-81 87-68v32" id="bE"/><g id="F"><use transform="matrix(0.06172839506172839,0,0,0.06172839506172839,0,0)" xlink:href="#bl"/><use transform="matrix(0.06172839506172839,0,0,0.06172839506172839,13.518518518518517,0)" xlink:href="#bE"/></g><g id="G"><use transform="matrix(0.06172839506172839,0,0,0.06172839506172839,0,0)" xlink:href="#bk"/><use transform="matrix(0.06172839506172839,0,0,0.06172839506172839,13.518518518518517,0)" xlink:href="#bo"/><use transform="matrix(0.06172839506172839,0,0,0.06172839506172839,25.864197530864196,0)" xlink:href="#bs"/><use transform="matrix(0.06172839506172839,0,0,0.06172839506172839,39.382716049382715,0)" xlink:href="#bo"/><use transform="matrix(0.06172839506172839,0,0,0.06172839506172839,51.72839506172839,0)" xlink:href="#bj"/><use transform="matrix(0.06172839506172839,0,0,0.06172839506172839,65.24691358024691,0)" xlink:href="#bk"/><use transform="matrix(0.06172839506172839,0,0,0.06172839506172839,78.76543209876543,0)" xlink:href="#bo"/><use transform="matrix(0.06172839506172839,0,0,0.06172839506172839,91.11111111111111,0)" xlink:href="#bj"/><use transform="matrix(0.06172839506172839,0,0,0.06172839506172839,104.62962962962963,0)" xlink:href="#bt"/></g><path fill="#333" d="M24 0v-54h51V0H24" id="bF"/><g id="H"><use transform="matrix(0.06172839506172839,0,0,0.06172839506172839,0,0)" xlink:href="#bB"/><use transform="matrix(0.06172839506172839,0,0,0.06172839506172839,12.345679012345679,0)" xlink:href="#bu"/><use transform="matrix(0.06172839506172839,0,0,0.06172839506172839,18.51851851851852,0)" xlink:href="#bi"/><use transform="matrix(0.06172839506172839,0,0,0.06172839506172839,30.864197530864196,0)" xlink:href="#bd"/><use transform="matrix(0.06172839506172839,0,0,0.06172839506172839,44.382716049382715,0)" xlink:href="#bc"/><use transform="matrix(0.06172839506172839,0,0,0.06172839506172839,56.72839506172839,0)" xlink:href="#bo"/><use transform="matrix(0.06172839506172839,0,0,0.06172839506172839,69.07407407407408,0)" xlink:href="#bF"/></g><path fill="#333" d="M24 0v-248h52V0H24" id="bG"/><g id="I"><use transform="matrix(0.06172839506172839,0,0,0.06172839506172839,0,0)" xlink:href="#bG"/><use transform="matrix(0.06172839506172839,0,0,0.06172839506172839,6.172839506172839,0)" xlink:href="#bt"/></g><path fill="#333" d="M147 0L96-86 75-71V0H25v-261h50v150l67-79h53l-66 74L201 0h-54" id="bH"/><g id="J"><use transform="matrix(0.06172839506172839,0,0,0.06172839506172839,0,0)" xlink:href="#bB"/><use transform="matrix(0.06172839506172839,0,0,0.06172839506172839,12.345679012345679,0)" xlink:href="#bA"/><use transform="matrix(0.06172839506172839,0,0,0.06172839506172839,25.864197530864196,0)" xlink:href="#bo"/><use transform="matrix(0.06172839506172839,0,0,0.06172839506172839,38.20987654320987,0)" xlink:href="#bB"/><use transform="matrix(0.06172839506172839,0,0,0.06172839506172839,50.55555555555555,0)" xlink:href="#bH"/><use transform="matrix(0.06172839506172839,0,0,0.06172839506172839,62.90123456790123,0)" xlink:href="#bc"/></g><g id="K"><use transform="matrix(0.06172839506172839,0,0,0.06172839506172839,0,0)" xlink:href="#bE"/><use transform="matrix(0.06172839506172839,0,0,0.06172839506172839,7.345679012345679,0)" xlink:href="#bl"/><use transform="matrix(0.06172839506172839,0,0,0.06172839506172839,20.864197530864196,0)" xlink:href="#bp"/></g><g id="L"><use transform="matrix(0.06172839506172839,0,0,0.06172839506172839,0,0)" xlink:href="#bt"/><use transform="matrix(0.06172839506172839,0,0,0.06172839506172839,7.345679012345679,0)" xlink:href="#bw"/><use transform="matrix(0.06172839506172839,0,0,0.06172839506172839,19.691358024691358,0)" xlink:href="#bs"/><use transform="matrix(0.06172839506172839,0,0,0.06172839506172839,33.20987654320987,0)" xlink:href="#bo"/></g><path fill="#333" d="M182-182c0 78-84 86-111 141h115V0H12c-6-101 99-100 120-180 1-22-12-31-33-32-23 0-32 14-35 34l-49-3c5-45 32-70 84-70 51 0 83 22 83 69" id="bI"/><use transform="matrix(0.06172839506172839,0,0,0.06172839506172839,0,0)" xlink:href="#bI" id="M"/><g id="N"><use transform="matrix(0.06172839506172839,0,0,0.06172839506172839,0,0)" xlink:href="#bB"/><use transform="matrix(0.06172839506172839,0,0,0.06172839506172839,12.345679012345679,0)" xlink:href="#bi"/><use transform="matrix(0.06172839506172839,0,0,0.06172839506172839,24.691358024691358,0)" xlink:href="#bc"/><use transform="matrix(0.06172839506172839,0,0,0.06172839506172839,37.03703703703704,0)" xlink:href="#bo"/></g><g id="O"><use transform="matrix(0.06172839506172839,0,0,0.06172839506172839,0,0)" xlink:href="#bt"/><use transform="matrix(0.06172839506172839,0,0,0.06172839506172839,7.345679012345679,0)" xlink:href="#bA"/><use transform="matrix(0.06172839506172839,0,0,0.06172839506172839,20.864197530864196,0)" xlink:href="#bo"/></g><g id="P"><use transform="matrix(0.06172839506172839,0,0,0.06172839506172839,0,0)" xlink:href="#bc"/><use transform="matrix(0.06172839506172839,0,0,0.06172839506172839,12.345679012345679,0)" xlink:href="#bo"/><use transform="matrix(0.06172839506172839,0,0,0.06172839506172839,24.691358024691358,0)" xlink:href="#bj"/><use transform="matrix(0.06172839506172839,0,0,0.06172839506172839,38.20987654320987,0)" xlink:href="#bt"/><use transform="matrix(0.06172839506172839,0,0,0.06172839506172839,45.55555555555555,0)" xlink:href="#bo"/><use transform="matrix(0.06172839506172839,0,0,0.06172839506172839,57.90123456790123,0)" xlink:href="#bj"/><use transform="matrix(0.06172839506172839,0,0,0.06172839506172839,71.41975308641975,0)" xlink:href="#bB"/><use transform="matrix(0.06172839506172839,0,0,0.06172839506172839,83.76543209876543,0)" xlink:href="#bo"/></g><path fill="#333" d="M62-158H24l-5-90h48" id="bJ"/><g id="Q"><use transform="matrix(0.06172839506172839,0,0,0.06172839506172839,0,0)" xlink:href="#bk"/><use transform="matrix(0.06172839506172839,0,0,0.06172839506172839,13.518518518518517,0)" xlink:href="#bl"/><use transform="matrix(0.06172839506172839,0,0,0.06172839506172839,27.037037037037035,0)" xlink:href="#bo"/><use transform="matrix(0.06172839506172839,0,0,0.06172839506172839,39.382716049382715,0)" xlink:href="#bc"/><use transform="matrix(0.06172839506172839,0,0,0.06172839506172839,51.72839506172839,0)" xlink:href="#bj"/><use transform="matrix(0.06172839506172839,0,0,0.06172839506172839,65.24691358024691,0)" xlink:href="#bJ"/><use transform="matrix(0.06172839506172839,0,0,0.06172839506172839,70.49382716049382,0)" xlink:href="#bt"/></g><g id="R"><use transform="matrix(0.06172839506172839,0,0,0.06172839506172839,0,0)" xlink:href="#bA"/><use transform="matrix(0.06172839506172839,0,0,0.06172839506172839,13.518518518518517,0)" xlink:href="#bi"/><use transform="matrix(0.06172839506172839,0,0,0.06172839506172839,25.864197530864196,0)" xlink:href="#bn"/><use transform="matrix(0.06172839506172839,0,0,0.06172839506172839,38.20987654320987,0)" xlink:href="#bo"/></g><g id="S"><use transform="matrix(0.06172839506172839,0,0,0.06172839506172839,0,0)" xlink:href="#bc"/><use transform="matrix(0.06172839506172839,0,0,0.06172839506172839,12.345679012345679,0)" xlink:href="#bd"/><use transform="matrix(0.06172839506172839,0,0,0.06172839506172839,25.864197530864196,0)" xlink:href="#be"/><use transform="matrix(0.06172839506172839,0,0,0.06172839506172839,39.382716049382715,0)" xlink:href="#bf"/><use transform="matrix(0.06172839506172839,0,0,0.06172839506172839,45.55555555555556,0)" xlink:href="#bo"/><use transform="matrix(0.06172839506172839,0,0,0.06172839506172839,57.901234567901234,0)" xlink:href="#bB"/><use transform="matrix(0.06172839506172839,0,0,0.06172839506172839,70.24691358024691,0)" xlink:href="#bt"/></g><g id="T"><use transform="matrix(0.06172839506172839,0,0,0.06172839506172839,0,0)" xlink:href="#bl"/><use transform="matrix(0.06172839506172839,0,0,0.06172839506172839,13.518518518518517,0)" xlink:href="#bj"/></g><g id="U"><use transform="matrix(0.06172839506172839,0,0,0.06172839506172839,0,0)" xlink:href="#bs"/><use transform="matrix(0.06172839506172839,0,0,0.06172839506172839,13.518518518518517,0)" xlink:href="#bp"/><use transform="matrix(0.06172839506172839,0,0,0.06172839506172839,22.160493827160494,0)" xlink:href="#bo"/><use transform="matrix(0.06172839506172839,0,0,0.06172839506172839,34.50617283950617,0)" xlink:href="#bn"/><use transform="matrix(0.06172839506172839,0,0,0.06172839506172839,46.85185185185185,0)" xlink:href="#bb"/><use transform="matrix(0.06172839506172839,0,0,0.06172839506172839,53.02469135802469,0)" xlink:href="#bl"/><use transform="matrix(0.06172839506172839,0,0,0.06172839506172839,66.5432098765432,0)" xlink:href="#bd"/><use transform="matrix(0.06172839506172839,0,0,0.06172839506172839,80.06172839506172,0)" xlink:href="#bc"/></g><g id="V"><use transform="matrix(0.06172839506172839,0,0,0.06172839506172839,0,0)" xlink:href="#bb"/><use transform="matrix(0.06172839506172839,0,0,0.06172839506172839,6.172839506172839,0)" xlink:href="#bj"/><use transform="matrix(0.06172839506172839,0,0,0.06172839506172839,19.691358024691358,0)" xlink:href="#bk"/><use transform="matrix(0.06172839506172839,0,0,0.06172839506172839,33.20987654320987,0)" xlink:href="#bo"/><use transform="matrix(0.06172839506172839,0,0,0.06172839506172839,45.55555555555555,0)" xlink:href="#bs"/><use transform="matrix(0.06172839506172839,0,0,0.06172839506172839,59.07407407407407,0)" xlink:href="#bo"/><use transform="matrix(0.06172839506172839,0,0,0.06172839506172839,71.41975308641975,0)" xlink:href="#bj"/><use transform="matrix(0.06172839506172839,0,0,0.06172839506172839,84.93827160493827,0)" xlink:href="#bk"/><use transform="matrix(0.06172839506172839,0,0,0.06172839506172839,98.45679012345678,0)" xlink:href="#bo"/><use transform="matrix(0.06172839506172839,0,0,0.06172839506172839,110.80246913580247,0)" xlink:href="#bj"/><use transform="matrix(0.06172839506172839,0,0,0.06172839506172839,124.32098765432099,0)" xlink:href="#bt"/></g><g id="W"><use transform="matrix(0.06172839506172839,0,0,0.06172839506172839,0,0)" xlink:href="#bB"/><use transform="matrix(0.06172839506172839,0,0,0.06172839506172839,12.345679012345679,0)" xlink:href="#bu"/><use transform="matrix(0.06172839506172839,0,0,0.06172839506172839,18.51851851851852,0)" xlink:href="#bi"/><use transform="matrix(0.06172839506172839,0,0,0.06172839506172839,30.864197530864196,0)" xlink:href="#bd"/><use transform="matrix(0.06172839506172839,0,0,0.06172839506172839,44.382716049382715,0)" xlink:href="#bc"/><use transform="matrix(0.06172839506172839,0,0,0.06172839506172839,56.72839506172839,0)" xlink:href="#bo"/></g><g id="X"><use transform="matrix(0.06172839506172839,0,0,0.06172839506172839,0,0)" xlink:href="#bi"/><use transform="matrix(0.06172839506172839,0,0,0.06172839506172839,12.345679012345679,0)" xlink:href="#bj"/><use transform="matrix(0.06172839506172839,0,0,0.06172839506172839,25.864197530864196,0)" xlink:href="#bk"/></g><g id="Y"><use transform="matrix(0.06172839506172839,0,0,0.06172839506172839,0,0)" xlink:href="#bl"/><use transform="matrix(0.06172839506172839,0,0,0.06172839506172839,13.518518518518517,0)" xlink:href="#be"/><use transform="matrix(0.06172839506172839,0,0,0.06172839506172839,27.037037037037035,0)" xlink:href="#bf"/></g><g id="Z"><use transform="matrix(0.06172839506172839,0,0,0.06172839506172839,0,0)" xlink:href="#bl"/><use transform="matrix(0.06172839506172839,0,0,0.06172839506172839,13.518518518518517,0)" xlink:href="#bj"/><use transform="matrix(0.06172839506172839,0,0,0.06172839506172839,27.037037037037035,0)" xlink:href="#bu"/><use transform="matrix(0.06172839506172839,0,0,0.06172839506172839,33.20987654320987,0)" xlink:href="#bw"/><use transform="matrix(0.06172839506172839,0,0,0.06172839506172839,45.55555555555555,0)" xlink:href="#bl"/><use transform="matrix(0.06172839506172839,0,0,0.06172839506172839,59.07407407407407,0)" xlink:href="#be"/><use transform="matrix(0.06172839506172839,0,0,0.06172839506172839,72.59259259259258,0)" xlink:href="#bf"/><use transform="matrix(0.06172839506172839,0,0,0.06172839506172839,78.76543209876542,0)" xlink:href="#bu"/><use transform="matrix(0.06172839506172839,0,0,0.06172839506172839,84.93827160493825,0)" xlink:href="#bc"/><use transform="matrix(0.06172839506172839,0,0,0.06172839506172839,97.28395061728394,0)" xlink:href="#bt"/><use transform="matrix(0.06172839506172839,0,0,0.06172839506172839,104.62962962962962,0)" xlink:href="#by"/></g><g id="aa"><use transform="matrix(0.06172839506172839,0,0,0.06172839506172839,0,0)" xlink:href="#bt"/><use transform="matrix(0.06172839506172839,0,0,0.06172839506172839,7.345679012345679,0)" xlink:href="#bA"/><use transform="matrix(0.06172839506172839,0,0,0.06172839506172839,20.864197530864196,0)" xlink:href="#bi"/><use transform="matrix(0.06172839506172839,0,0,0.06172839506172839,33.20987654320987,0)" xlink:href="#bt"/></g><use transform="matrix(0.06172839506172839,0,0,0.06172839506172839,0,0)" xlink:href="#bi" id="ab"/><g id="ac"><use transform="matrix(0.06172839506172839,0,0,0.06172839506172839,0,0)" xlink:href="#bB"/><use transform="matrix(0.06172839506172839,0,0,0.06172839506172839,12.345679012345679,0)" xlink:href="#bl"/><use transform="matrix(0.06172839506172839,0,0,0.06172839506172839,25.864197530864196,0)" xlink:href="#bu"/><use transform="matrix(0.06172839506172839,0,0,0.06172839506172839,32.03703703703704,0)" xlink:href="#bu"/><use transform="matrix(0.06172839506172839,0,0,0.06172839506172839,38.20987654320988,0)" xlink:href="#bo"/><use transform="matrix(0.06172839506172839,0,0,0.06172839506172839,50.55555555555556,0)" xlink:href="#bB"/><use transform="matrix(0.06172839506172839,0,0,0.06172839506172839,62.901234567901234,0)" xlink:href="#bt"/><use transform="matrix(0.06172839506172839,0,0,0.06172839506172839,70.24691358024691,0)" xlink:href="#bb"/><use transform="matrix(0.06172839506172839,0,0,0.06172839506172839,76.41975308641975,0)" xlink:href="#bl"/><use transform="matrix(0.06172839506172839,0,0,0.06172839506172839,89.93827160493827,0)" xlink:href="#bj"/></g><g id="ad"><use transform="matrix(0.06172839506172839,0,0,0.06172839506172839,0,0)" xlink:href="#bl"/><use transform="matrix(0.06172839506172839,0,0,0.06172839506172839,13.518518518518517,0)" xlink:href="#bE"/></g><g id="ae"><use transform="matrix(0.06172839506172839,0,0,0.06172839506172839,0,0)" xlink:href="#bi"/><use transform="matrix(0.06172839506172839,0,0,0.06172839506172839,12.345679012345679,0)" xlink:href="#bj"/></g><g id="af"><use transform="matrix(0.06172839506172839,0,0,0.06172839506172839,0,0)" xlink:href="#bl"/><use transform="matrix(0.06172839506172839,0,0,0.06172839506172839,13.518518518518517,0)" xlink:href="#be"/><use transform="matrix(0.06172839506172839,0,0,0.06172839506172839,27.037037037037035,0)" xlink:href="#bf"/><use transform="matrix(0.06172839506172839,0,0,0.06172839506172839,33.20987654320987,0)" xlink:href="#bo"/><use transform="matrix(0.06172839506172839,0,0,0.06172839506172839,45.55555555555555,0)" xlink:href="#bB"/><use transform="matrix(0.06172839506172839,0,0,0.06172839506172839,57.90123456790123,0)" xlink:href="#bt"/><use transform="matrix(0.06172839506172839,0,0,0.06172839506172839,65.24691358024691,0)" xlink:href="#bF"/></g><path fill="#333" d="M128-127c34 4 56 21 59 58 7 91-148 94-172 28-4-9-6-17-7-26l51-5c1 24 16 35 40 36 23 0 39-12 38-36-1-31-31-36-65-34v-40c32 2 59-3 59-33 0-20-13-33-34-33s-33 13-35 32l-50-3c6-44 37-68 86-68 50 0 83 20 83 66 0 35-22 52-53 58" id="bK"/><use transform="matrix(0.06172839506172839,0,0,0.06172839506172839,0,0)" xlink:href="#bK" id="ag"/><g id="ah"><use transform="matrix(0.06172839506172839,0,0,0.06172839506172839,0,0)" xlink:href="#bB"/><use transform="matrix(0.06172839506172839,0,0,0.06172839506172839,12.345679012345679,0)" xlink:href="#bi"/><use transform="matrix(0.06172839506172839,0,0,0.06172839506172839,24.691358024691358,0)" xlink:href="#bc"/><use transform="matrix(0.06172839506172839,0,0,0.06172839506172839,37.03703703703704,0)" xlink:href="#bo"/></g><g id="ai"><use transform="matrix(0.06172839506172839,0,0,0.06172839506172839,0,0)" xlink:href="#bt"/><use transform="matrix(0.06172839506172839,0,0,0.06172839506172839,7.345679012345679,0)" xlink:href="#bA"/><use transform="matrix(0.06172839506172839,0,0,0.06172839506172839,20.864197530864196,0)" xlink:href="#bo"/></g><g id="aj"><use transform="matrix(0.06172839506172839,0,0,0.06172839506172839,0,0)" xlink:href="#bc"/><use transform="matrix(0.06172839506172839,0,0,0.06172839506172839,12.345679012345679,0)" xlink:href="#bo"/><use transform="matrix(0.06172839506172839,0,0,0.06172839506172839,24.691358024691358,0)" xlink:href="#bj"/><use transform="matrix(0.06172839506172839,0,0,0.06172839506172839,38.20987654320987,0)" xlink:href="#bt"/><use transform="matrix(0.06172839506172839,0,0,0.06172839506172839,45.55555555555555,0)" xlink:href="#bo"/><use transform="matrix(0.06172839506172839,0,0,0.06172839506172839,57.90123456790123,0)" xlink:href="#bj"/><use transform="matrix(0.06172839506172839,0,0,0.06172839506172839,71.41975308641975,0)" xlink:href="#bB"/><use transform="matrix(0.06172839506172839,0,0,0.06172839506172839,83.76543209876543,0)" xlink:href="#bo"/></g><g id="ak"><use transform="matrix(0.06172839506172839,0,0,0.06172839506172839,0,0)" xlink:href="#bA"/><use transform="matrix(0.06172839506172839,0,0,0.06172839506172839,13.518518518518517,0)" xlink:href="#bi"/><use transform="matrix(0.06172839506172839,0,0,0.06172839506172839,25.864197530864196,0)" xlink:href="#bc"/></g><g id="al"><use transform="matrix(0.06172839506172839,0,0,0.06172839506172839,0,0)" xlink:href="#bl"/><use transform="matrix(0.06172839506172839,0,0,0.06172839506172839,13.518518518518517,0)" xlink:href="#bj"/><use transform="matrix(0.06172839506172839,0,0,0.06172839506172839,27.037037037037035,0)" xlink:href="#bu"/><use transform="matrix(0.06172839506172839,0,0,0.06172839506172839,33.20987654320987,0)" xlink:href="#bw"/></g><g id="am"><use transform="matrix(0.06172839506172839,0,0,0.06172839506172839,0,0)" xlink:href="#bb"/><use transform="matrix(0.06172839506172839,0,0,0.06172839506172839,6.172839506172839,0)" xlink:href="#bc"/></g><g id="an"><use transform="matrix(0.06172839506172839,0,0,0.06172839506172839,0,0)" xlink:href="#bB"/><use transform="matrix(0.06172839506172839,0,0,0.06172839506172839,12.345679012345679,0)" xlink:href="#bu"/><use transform="matrix(0.06172839506172839,0,0,0.06172839506172839,18.51851851851852,0)" xlink:href="#bi"/><use transform="matrix(0.06172839506172839,0,0,0.06172839506172839,30.864197530864196,0)" xlink:href="#bd"/><use transform="matrix(0.06172839506172839,0,0,0.06172839506172839,44.382716049382715,0)" xlink:href="#bc"/><use transform="matrix(0.06172839506172839,0,0,0.06172839506172839,56.72839506172839,0)" xlink:href="#bo"/></g><g id="ao"><use transform="matrix(0.06172839506172839,0,0,0.06172839506172839,0,0)" xlink:href="#bb"/><use transform="matrix(0.06172839506172839,0,0,0.06172839506172839,6.172839506172839,0)" xlink:href="#bt"/><use transform="matrix(0.06172839506172839,0,0,0.06172839506172839,13.518518518518519,0)" xlink:href="#bJ"/><use transform="matrix(0.06172839506172839,0,0,0.06172839506172839,18.76543209876543,0)" xlink:href="#bc"/></g><g id="ap"><use transform="matrix(0.06172839506172839,0,0,0.06172839506172839,0,0)" xlink:href="#bB"/><use transform="matrix(0.06172839506172839,0,0,0.06172839506172839,12.345679012345679,0)" xlink:href="#bl"/><use transform="matrix(0.06172839506172839,0,0,0.06172839506172839,25.864197530864196,0)" xlink:href="#bx"/><use transform="matrix(0.06172839506172839,0,0,0.06172839506172839,45.61728395061728,0)" xlink:href="#bs"/><use transform="matrix(0.06172839506172839,0,0,0.06172839506172839,59.1358024691358,0)" xlink:href="#bu"/><use transform="matrix(0.06172839506172839,0,0,0.06172839506172839,65.30864197530863,0)" xlink:href="#bo"/><use transform="matrix(0.06172839506172839,0,0,0.06172839506172839,77.65432098765432,0)" xlink:href="#bt"/><use transform="matrix(0.06172839506172839,0,0,0.06172839506172839,85,0)" xlink:href="#bb"/><use transform="matrix(0.06172839506172839,0,0,0.06172839506172839,91.17283950617283,0)" xlink:href="#bl"/><use transform="matrix(0.06172839506172839,0,0,0.06172839506172839,104.69135802469135,0)" xlink:href="#bj"/></g><g id="aq"><use transform="matrix(0.06172839506172839,0,0,0.06172839506172839,0,0)" xlink:href="#bb"/><use transform="matrix(0.06172839506172839,0,0,0.06172839506172839,6.172839506172839,0)" xlink:href="#bc"/></g><g id="ar"><use transform="matrix(0.06172839506172839,0,0,0.06172839506172839,0,0)" xlink:href="#bm"/><use transform="matrix(0.06172839506172839,0,0,0.06172839506172839,7.345679012345679,0)" xlink:href="#bg"/></g><g id="as"><use transform="matrix(0.06172839506172839,0,0,0.06172839506172839,0,0)" xlink:href="#bu"/><use transform="matrix(0.06172839506172839,0,0,0.06172839506172839,6.172839506172839,0)" xlink:href="#bb"/><use transform="matrix(0.06172839506172839,0,0,0.06172839506172839,12.345679012345679,0)" xlink:href="#bc"/><use transform="matrix(0.06172839506172839,0,0,0.06172839506172839,24.691358024691358,0)" xlink:href="#bt"/><use transform="matrix(0.06172839506172839,0,0,0.06172839506172839,32.03703703703704,0)" xlink:href="#bv"/><use transform="matrix(0.06172839506172839,0,0,0.06172839506172839,39.382716049382715,0)" xlink:href="#bc"/><use transform="matrix(0.06172839506172839,0,0,0.06172839506172839,51.72839506172839,0)" xlink:href="#bi"/><use transform="matrix(0.06172839506172839,0,0,0.06172839506172839,64.07407407407408,0)" xlink:href="#bw"/></g><g id="at"><use transform="matrix(0.06172839506172839,0,0,0.06172839506172839,0,0)" xlink:href="#bi"/><use transform="matrix(0.06172839506172839,0,0,0.06172839506172839,12.345679012345679,0)" xlink:href="#bu"/><use transform="matrix(0.06172839506172839,0,0,0.06172839506172839,18.51851851851852,0)" xlink:href="#bu"/><use transform="matrix(0.06172839506172839,0,0,0.06172839506172839,24.691358024691358,0)" xlink:href="#bi"/><use transform="matrix(0.06172839506172839,0,0,0.06172839506172839,37.03703703703704,0)" xlink:href="#bn"/><use transform="matrix(0.06172839506172839,0,0,0.06172839506172839,49.382716049382715,0)" xlink:href="#bi"/><use transform="matrix(0.06172839506172839,0,0,0.06172839506172839,61.72839506172839,0)" xlink:href="#bb"/><use transform="matrix(0.06172839506172839,0,0,0.06172839506172839,67.90123456790123,0)" xlink:href="#bu"/><use transform="matrix(0.06172839506172839,0,0,0.06172839506172839,74.07407407407406,0)" xlink:href="#bu"/><use transform="matrix(0.06172839506172839,0,0,0.06172839506172839,80.2469135802469,0)" xlink:href="#bc"/><use transform="matrix(0.06172839506172839,0,0,0.06172839506172839,92.59259259259258,0)" xlink:href="#bt"/><use transform="matrix(0.06172839506172839,0,0,0.06172839506172839,99.93827160493827,0)" xlink:href="#by"/></g><g id="au"><use transform="matrix(0.06172839506172839,0,0,0.06172839506172839,0,0)" xlink:href="#bc"/><use transform="matrix(0.06172839506172839,0,0,0.06172839506172839,12.345679012345679,0)" xlink:href="#bb"/><use transform="matrix(0.06172839506172839,0,0,0.06172839506172839,18.51851851851852,0)" xlink:href="#bx"/><use transform="matrix(0.06172839506172839,0,0,0.06172839506172839,38.27160493827161,0)" xlink:href="#bs"/><use transform="matrix(0.06172839506172839,0,0,0.06172839506172839,51.79012345679013,0)" xlink:href="#bu"/><use transform="matrix(0.06172839506172839,0,0,0.06172839506172839,57.96296296296297,0)" xlink:href="#bo"/></g><g id="av"><use transform="matrix(0.06172839506172839,0,0,0.06172839506172839,0,0)" xlink:href="#bb"/><use transform="matrix(0.06172839506172839,0,0,0.06172839506172839,6.172839506172839,0)" xlink:href="#bj"/><use transform="matrix(0.06172839506172839,0,0,0.06172839506172839,19.691358024691358,0)" xlink:href="#bk"/><use transform="matrix(0.06172839506172839,0,0,0.06172839506172839,33.20987654320987,0)" xlink:href="#bo"/><use transform="matrix(0.06172839506172839,0,0,0.06172839506172839,45.55555555555555,0)" xlink:href="#bs"/><use transform="matrix(0.06172839506172839,0,0,0.06172839506172839,59.07407407407407,0)" xlink:href="#bo"/><use transform="matrix(0.06172839506172839,0,0,0.06172839506172839,71.41975308641975,0)" xlink:href="#bj"/><use transform="matrix(0.06172839506172839,0,0,0.06172839506172839,84.93827160493827,0)" xlink:href="#bk"/><use transform="matrix(0.06172839506172839,0,0,0.06172839506172839,98.45679012345678,0)" xlink:href="#bo"/><use transform="matrix(0.06172839506172839,0,0,0.06172839506172839,110.80246913580247,0)" xlink:href="#bj"/><use transform="matrix(0.06172839506172839,0,0,0.06172839506172839,124.32098765432099,0)" xlink:href="#bt"/></g><g id="aw"><use transform="matrix(0.06172839506172839,0,0,0.06172839506172839,0,0)" xlink:href="#bG"/><use transform="matrix(0.06172839506172839,0,0,0.06172839506172839,6.172839506172839,0)" xlink:href="#bt"/></g><g id="ax"><use transform="matrix(0.06172839506172839,0,0,0.06172839506172839,0,0)" xlink:href="#bz"/><use transform="matrix(0.06172839506172839,0,0,0.06172839506172839,17.28395061728395,0)" xlink:href="#bb"/><use transform="matrix(0.06172839506172839,0,0,0.06172839506172839,23.456790123456788,0)" xlink:href="#bu"/><use transform="matrix(0.06172839506172839,0,0,0.06172839506172839,29.629629629629626,0)" xlink:href="#bu"/></g><g id="ay"><use transform="matrix(0.06172839506172839,0,0,0.06172839506172839,0,0)" xlink:href="#be"/><use transform="matrix(0.06172839506172839,0,0,0.06172839506172839,13.518518518518517,0)" xlink:href="#bo"/></g><g id="az"><use transform="matrix(0.06172839506172839,0,0,0.06172839506172839,0,0)" xlink:href="#bd"/><use transform="matrix(0.06172839506172839,0,0,0.06172839506172839,13.518518518518517,0)" xlink:href="#bc"/><use transform="matrix(0.06172839506172839,0,0,0.06172839506172839,25.864197530864196,0)" xlink:href="#bo"/><use transform="matrix(0.06172839506172839,0,0,0.06172839506172839,38.20987654320987,0)" xlink:href="#bk"/></g><g id="aA"><use transform="matrix(0.06172839506172839,0,0,0.06172839506172839,0,0)" xlink:href="#bt"/><use transform="matrix(0.06172839506172839,0,0,0.06172839506172839,7.345679012345679,0)" xlink:href="#bl"/></g><g id="aB"><use transform="matrix(0.06172839506172839,0,0,0.06172839506172839,0,0)" xlink:href="#bB"/><use transform="matrix(0.06172839506172839,0,0,0.06172839506172839,12.345679012345679,0)" xlink:href="#bl"/><use transform="matrix(0.06172839506172839,0,0,0.06172839506172839,25.864197530864196,0)" xlink:href="#bx"/><use transform="matrix(0.06172839506172839,0,0,0.06172839506172839,45.61728395061728,0)" xlink:href="#bs"/><use transform="matrix(0.06172839506172839,0,0,0.06172839506172839,59.1358024691358,0)" xlink:href="#bu"/><use transform="matrix(0.06172839506172839,0,0,0.06172839506172839,65.30864197530863,0)" xlink:href="#bo"/><use transform="matrix(0.06172839506172839,0,0,0.06172839506172839,77.65432098765432,0)" xlink:href="#bt"/><use transform="matrix(0.06172839506172839,0,0,0.06172839506172839,85,0)" xlink:href="#bo"/></g><g id="aC"><use transform="matrix(0.06172839506172839,0,0,0.06172839506172839,0,0)" xlink:href="#bl"/><use transform="matrix(0.06172839506172839,0,0,0.06172839506172839,13.518518518518517,0)" xlink:href="#bt"/><use transform="matrix(0.06172839506172839,0,0,0.06172839506172839,20.864197530864196,0)" xlink:href="#bA"/><use transform="matrix(0.06172839506172839,0,0,0.06172839506172839,34.382716049382715,0)" xlink:href="#bo"/><use transform="matrix(0.06172839506172839,0,0,0.06172839506172839,46.72839506172839,0)" xlink:href="#bp"/></g><g id="aD"><use transform="matrix(0.06172839506172839,0,0,0.06172839506172839,0,0)" xlink:href="#bk"/><use transform="matrix(0.06172839506172839,0,0,0.06172839506172839,13.518518518518517,0)" xlink:href="#bo"/><use transform="matrix(0.06172839506172839,0,0,0.06172839506172839,25.864197530864196,0)" xlink:href="#bs"/><use transform="matrix(0.06172839506172839,0,0,0.06172839506172839,39.382716049382715,0)" xlink:href="#bo"/><use transform="matrix(0.06172839506172839,0,0,0.06172839506172839,51.72839506172839,0)" xlink:href="#bj"/><use transform="matrix(0.06172839506172839,0,0,0.06172839506172839,65.24691358024691,0)" xlink:href="#bk"/><use transform="matrix(0.06172839506172839,0,0,0.06172839506172839,78.76543209876543,0)" xlink:href="#bo"/><use transform="matrix(0.06172839506172839,0,0,0.06172839506172839,91.11111111111111,0)" xlink:href="#bj"/><use transform="matrix(0.06172839506172839,0,0,0.06172839506172839,104.62962962962963,0)" xlink:href="#bt"/></g><g id="aE"><use transform="matrix(0.06172839506172839,0,0,0.06172839506172839,0,0)" xlink:href="#bB"/><use transform="matrix(0.06172839506172839,0,0,0.06172839506172839,12.345679012345679,0)" xlink:href="#bu"/><use transform="matrix(0.06172839506172839,0,0,0.06172839506172839,18.51851851851852,0)" xlink:href="#bi"/><use transform="matrix(0.06172839506172839,0,0,0.06172839506172839,30.864197530864196,0)" xlink:href="#bd"/><use transform="matrix(0.06172839506172839,0,0,0.06172839506172839,44.382716049382715,0)" xlink:href="#bc"/><use transform="matrix(0.06172839506172839,0,0,0.06172839506172839,56.72839506172839,0)" xlink:href="#bo"/><use transform="matrix(0.06172839506172839,0,0,0.06172839506172839,69.07407407407408,0)" xlink:href="#bF"/></g><g id="aF"><use transform="matrix(0.06172839506172839,0,0,0.06172839506172839,0,0)" xlink:href="#bC"/><use transform="matrix(0.06172839506172839,0,0,0.06172839506172839,15.987654320987653,0)" xlink:href="#bl"/></g><g id="aG"><use transform="matrix(0.06172839506172839,0,0,0.06172839506172839,0,0)" xlink:href="#bl"/><use transform="matrix(0.06172839506172839,0,0,0.06172839506172839,13.518518518518517,0)" xlink:href="#bj"/><use transform="matrix(0.06172839506172839,0,0,0.06172839506172839,27.037037037037035,0)" xlink:href="#bu"/><use transform="matrix(0.06172839506172839,0,0,0.06172839506172839,33.20987654320987,0)" xlink:href="#bw"/><use transform="matrix(0.06172839506172839,0,0,0.06172839506172839,45.55555555555555,0)" xlink:href="#bc"/><use transform="matrix(0.06172839506172839,0,0,0.06172839506172839,57.90123456790123,0)" xlink:href="#bd"/><use transform="matrix(0.06172839506172839,0,0,0.06172839506172839,71.41975308641975,0)" xlink:href="#be"/><use transform="matrix(0.06172839506172839,0,0,0.06172839506172839,84.93827160493827,0)" xlink:href="#bf"/><use transform="matrix(0.06172839506172839,0,0,0.06172839506172839,91.1111111111111,0)" xlink:href="#bu"/><use transform="matrix(0.06172839506172839,0,0,0.06172839506172839,97.28395061728394,0)" xlink:href="#bc"/><use transform="matrix(0.06172839506172839,0,0,0.06172839506172839,109.62962962962962,0)" xlink:href="#bt"/><use transform="matrix(0.06172839506172839,0,0,0.06172839506172839,116.9753086419753,0)" xlink:href="#by"/></g><g id="aH"><use transform="matrix(0.06172839506172839,0,0,0.06172839506172839,0,0)" xlink:href="#bt"/><use transform="matrix(0.06172839506172839,0,0,0.06172839506172839,7.345679012345679,0)" xlink:href="#bA"/><use transform="matrix(0.06172839506172839,0,0,0.06172839506172839,20.864197530864196,0)" xlink:href="#bi"/><use transform="matrix(0.06172839506172839,0,0,0.06172839506172839,33.20987654320987,0)" xlink:href="#bt"/></g><g id="aI"><use transform="matrix(0.06172839506172839,0,0,0.06172839506172839,0,0)" xlink:href="#bi"/><use transform="matrix(0.06172839506172839,0,0,0.06172839506172839,12.345679012345679,0)" xlink:href="#bu"/><use transform="matrix(0.06172839506172839,0,0,0.06172839506172839,18.51851851851852,0)" xlink:href="#bu"/></g><g id="aJ"><use transform="matrix(0.06172839506172839,0,0,0.06172839506172839,0,0)" xlink:href="#bB"/><use transform="matrix(0.06172839506172839,0,0,0.06172839506172839,12.345679012345679,0)" xlink:href="#bu"/><use transform="matrix(0.06172839506172839,0,0,0.06172839506172839,18.51851851851852,0)" xlink:href="#bi"/><use transform="matrix(0.06172839506172839,0,0,0.06172839506172839,30.864197530864196,0)" xlink:href="#bd"/><use transform="matrix(0.06172839506172839,0,0,0.06172839506172839,44.382716049382715,0)" xlink:href="#bc"/><use transform="matrix(0.06172839506172839,0,0,0.06172839506172839,56.72839506172839,0)" xlink:href="#bo"/></g><g id="aK"><use transform="matrix(0.06172839506172839,0,0,0.06172839506172839,0,0)" xlink:href="#bA"/><use transform="matrix(0.06172839506172839,0,0,0.06172839506172839,13.518518518518517,0)" xlink:href="#bi"/><use transform="matrix(0.06172839506172839,0,0,0.06172839506172839,25.864197530864196,0)" xlink:href="#bn"/><use transform="matrix(0.06172839506172839,0,0,0.06172839506172839,38.20987654320987,0)" xlink:href="#bo"/></g><g id="aL"><use transform="matrix(0.06172839506172839,0,0,0.06172839506172839,0,0)" xlink:href="#bc"/><use transform="matrix(0.06172839506172839,0,0,0.06172839506172839,12.345679012345679,0)" xlink:href="#bd"/><use transform="matrix(0.06172839506172839,0,0,0.06172839506172839,25.864197530864196,0)" xlink:href="#be"/><use transform="matrix(0.06172839506172839,0,0,0.06172839506172839,39.382716049382715,0)" xlink:href="#bf"/><use transform="matrix(0.06172839506172839,0,0,0.06172839506172839,45.55555555555556,0)" xlink:href="#bo"/><use transform="matrix(0.06172839506172839,0,0,0.06172839506172839,57.901234567901234,0)" xlink:href="#bB"/><use transform="matrix(0.06172839506172839,0,0,0.06172839506172839,70.24691358024691,0)" xlink:href="#bt"/></g><g id="aM"><use transform="matrix(0.06172839506172839,0,0,0.06172839506172839,0,0)" xlink:href="#bB"/><use transform="matrix(0.06172839506172839,0,0,0.06172839506172839,12.345679012345679,0)" xlink:href="#bu"/><use transform="matrix(0.06172839506172839,0,0,0.06172839506172839,18.51851851851852,0)" xlink:href="#bi"/><use transform="matrix(0.06172839506172839,0,0,0.06172839506172839,30.864197530864196,0)" xlink:href="#bd"/><use transform="matrix(0.06172839506172839,0,0,0.06172839506172839,44.382716049382715,0)" xlink:href="#bc"/><use transform="matrix(0.06172839506172839,0,0,0.06172839506172839,56.72839506172839,0)" xlink:href="#bo"/><use transform="matrix(0.06172839506172839,0,0,0.06172839506172839,69.07407407407408,0)" xlink:href="#bF"/></g><g id="aN"><use transform="matrix(0.06172839506172839,0,0,0.06172839506172839,0,0)" xlink:href="#bE"/><use transform="matrix(0.06172839506172839,0,0,0.06172839506172839,7.345679012345679,0)" xlink:href="#bl"/><use transform="matrix(0.06172839506172839,0,0,0.06172839506172839,20.864197530864196,0)" xlink:href="#bp"/></g><g id="aO"><use transform="matrix(0.06172839506172839,0,0,0.06172839506172839,0,0)" xlink:href="#bp"/><use transform="matrix(0.06172839506172839,0,0,0.06172839506172839,8.641975308641975,0)" xlink:href="#bo"/><use transform="matrix(0.06172839506172839,0,0,0.06172839506172839,20.98765432098765,0)" xlink:href="#bn"/><use transform="matrix(0.06172839506172839,0,0,0.06172839506172839,33.33333333333333,0)" xlink:href="#bo"/><use transform="matrix(0.06172839506172839,0,0,0.06172839506172839,45.679012345679006,0)" xlink:href="#bp"/><use transform="matrix(0.06172839506172839,0,0,0.06172839506172839,54.32098765432098,0)" xlink:href="#bc"/><use transform="matrix(0.06172839506172839,0,0,0.06172839506172839,66.66666666666666,0)" xlink:href="#bo"/></g><g id="aP"><use transform="matrix(0.06172839506172839,0,0,0.06172839506172839,0,0)" xlink:href="#bt"/><use transform="matrix(0.06172839506172839,0,0,0.06172839506172839,7.345679012345679,0)" xlink:href="#bw"/><use transform="matrix(0.06172839506172839,0,0,0.06172839506172839,19.691358024691358,0)" xlink:href="#bs"/><use transform="matrix(0.06172839506172839,0,0,0.06172839506172839,33.20987654320987,0)" xlink:href="#bo"/></g><g id="aQ"><use transform="matrix(0.06172839506172839,0,0,0.06172839506172839,0,0)" xlink:href="#bK"/><use transform="matrix(0.06172839506172839,0,0,0.06172839506172839,12.345679012345679,0)" xlink:href="#bF"/><use transform="matrix(0.06172839506172839,0,0,0.06172839506172839,18.51851851851852,0)" xlink:href="#bD"/><use transform="matrix(0.06172839506172839,0,0,0.06172839506172839,32.03703703703704,0)" xlink:href="#bA"/><use transform="matrix(0.06172839506172839,0,0,0.06172839506172839,45.55555555555556,0)" xlink:href="#bb"/><use transform="matrix(0.06172839506172839,0,0,0.06172839506172839,51.7283950617284,0)" xlink:href="#bc"/></g><g id="aR"><use transform="matrix(0.06172839506172839,0,0,0.06172839506172839,0,0)" xlink:href="#bB"/><use transform="matrix(0.06172839506172839,0,0,0.06172839506172839,12.345679012345679,0)" xlink:href="#bl"/><use transform="matrix(0.06172839506172839,0,0,0.06172839506172839,25.864197530864196,0)" xlink:href="#bx"/><use transform="matrix(0.06172839506172839,0,0,0.06172839506172839,45.61728395061728,0)" xlink:href="#be"/><use transform="matrix(0.06172839506172839,0,0,0.06172839506172839,59.1358024691358,0)" xlink:href="#bb"/><use transform="matrix(0.06172839506172839,0,0,0.06172839506172839,65.30864197530863,0)" xlink:href="#bj"/><use transform="matrix(0.06172839506172839,0,0,0.06172839506172839,78.82716049382715,0)" xlink:href="#bo"/><use transform="matrix(0.06172839506172839,0,0,0.06172839506172839,91.17283950617283,0)" xlink:href="#bk"/></g><g id="aS"><use transform="matrix(0.06172839506172839,0,0,0.06172839506172839,0,0)" xlink:href="#bz"/><use transform="matrix(0.06172839506172839,0,0,0.06172839506172839,17.28395061728395,0)" xlink:href="#bb"/><use transform="matrix(0.06172839506172839,0,0,0.06172839506172839,23.456790123456788,0)" xlink:href="#bt"/><use transform="matrix(0.06172839506172839,0,0,0.06172839506172839,30.80246913580247,0)" xlink:href="#bA"/></g><g id="aT"><use transform="matrix(0.06172839506172839,0,0,0.06172839506172839,0,0)" xlink:href="#bB"/><use transform="matrix(0.06172839506172839,0,0,0.06172839506172839,12.345679012345679,0)" xlink:href="#bl"/><use transform="matrix(0.06172839506172839,0,0,0.06172839506172839,25.864197530864196,0)" xlink:href="#bx"/><use transform="matrix(0.06172839506172839,0,0,0.06172839506172839,45.61728395061728,0)" xlink:href="#bo"/><use transform="matrix(0.06172839506172839,0,0,0.06172839506172839,57.962962962962955,0)" xlink:href="#bc"/></g><g id="aU"><use transform="matrix(0.06172839506172839,0,0,0.06172839506172839,0,0)" xlink:href="#bi"/><use transform="matrix(0.06172839506172839,0,0,0.06172839506172839,12.345679012345679,0)" xlink:href="#bA"/><use transform="matrix(0.06172839506172839,0,0,0.06172839506172839,25.864197530864196,0)" xlink:href="#bo"/><use transform="matrix(0.06172839506172839,0,0,0.06172839506172839,38.20987654320987,0)" xlink:href="#bi"/><use transform="matrix(0.06172839506172839,0,0,0.06172839506172839,50.55555555555555,0)" xlink:href="#bk"/></g><g id="aV"><use transform="matrix(0.06172839506172839,0,0,0.06172839506172839,0,0)" xlink:href="#bb"/><use transform="matrix(0.06172839506172839,0,0,0.06172839506172839,6.172839506172839,0)" xlink:href="#bt"/><use transform="matrix(0.06172839506172839,0,0,0.06172839506172839,13.518518518518519,0)" xlink:href="#bF"/></g><path fill="#333" d="M240-174c0 40-23 61-54 70L253 0h-59l-57-94H76V0H24v-248c93 4 217-23 216 74zM76-134c48-2 112 12 112-38 0-48-66-32-112-35v73" id="bL"/><g id="aW"><use transform="matrix(0.06172839506172839,0,0,0.06172839506172839,0,0)" xlink:href="#bL"/><use transform="matrix(0.06172839506172839,0,0,0.06172839506172839,15.987654320987653,0)" xlink:href="#bo"/><use transform="matrix(0.06172839506172839,0,0,0.06172839506172839,28.333333333333332,0)" xlink:href="#bx"/><use transform="matrix(0.06172839506172839,0,0,0.06172839506172839,48.08641975308642,0)" xlink:href="#bl"/><use transform="matrix(0.06172839506172839,0,0,0.06172839506172839,61.60493827160494,0)" xlink:href="#bn"/><use transform="matrix(0.06172839506172839,0,0,0.06172839506172839,73.95061728395062,0)" xlink:href="#bo"/></g><g id="aX"><use transform="matrix(0.06172839506172839,0,0,0.06172839506172839,0,0)" xlink:href="#bt"/><use transform="matrix(0.06172839506172839,0,0,0.06172839506172839,7.345679012345679,0)" xlink:href="#bA"/><use transform="matrix(0.06172839506172839,0,0,0.06172839506172839,20.864197530864196,0)" xlink:href="#bo"/></g><g id="aY"><use transform="matrix(0.06172839506172839,0,0,0.06172839506172839,0,0)" xlink:href="#bE"/><use transform="matrix(0.06172839506172839,0,0,0.06172839506172839,7.345679012345679,0)" xlink:href="#bp"/><use transform="matrix(0.06172839506172839,0,0,0.06172839506172839,15.987654320987653,0)" xlink:href="#bl"/><use transform="matrix(0.06172839506172839,0,0,0.06172839506172839,29.50617283950617,0)" xlink:href="#bx"/></g><g id="aZ"><use transform="matrix(0.06172839506172839,0,0,0.06172839506172839,0,0)" xlink:href="#be"/><use transform="matrix(0.06172839506172839,0,0,0.06172839506172839,13.518518518518517,0)" xlink:href="#bp"/><use transform="matrix(0.06172839506172839,0,0,0.06172839506172839,22.160493827160494,0)" xlink:href="#bl"/><use transform="matrix(0.06172839506172839,0,0,0.06172839506172839,35.67901234567901,0)" xlink:href="#bH"/><use transform="matrix(0.06172839506172839,0,0,0.06172839506172839,48.02469135802469,0)" xlink:href="#bo"/><use transform="matrix(0.06172839506172839,0,0,0.06172839506172839,60.37037037037037,0)" xlink:href="#bu"/><use transform="matrix(0.06172839506172839,0,0,0.06172839506172839,66.5432098765432,0)" xlink:href="#bc"/><use transform="matrix(0.06172839506172839,0,0,0.06172839506172839,78.88888888888889,0)" xlink:href="#bt"/></g><path fill="#333" d="M67-125c0 53 21 87 73 88 37 1 54-22 65-47l45 17C233-25 199 4 140 4 58 4 20-42 15-125 8-235 124-281 211-232c18 10 29 29 36 50l-46 12c-8-25-30-41-62-41-52 0-71 34-72 86" id="bM"/><use transform="matrix(0.06172839506172839,0,0,0.06172839506172839,0,0)" xlink:href="#bM" id="ba"/></defs></g></svg>