<svg xmlns="http://www.w3.org/2000/svg" xmlns:xlink="http://www.w3.org/1999/xlink" xmlns:lucid="lucid" width="1181.1" height="2420"><g transform="translate(-60 1200)" lucid:page-tab-id="0_0"><path d="M366.9-1180c39.62 0 71.73 29.2 71.73 65.2 0 36.02-32.1 65.2-71.73 65.2H151.73c-39.62 0-71.73-29.18-71.73-65.2 0-36 32.1-65.2 71.73-65.2z" stroke="#000" stroke-opacity="0" stroke-width="2" fill="#d2d3d5"/><use xlink:href="#a" transform="matrix(1,0,0,1,85,-1175) translate(53.90740740740735 64.93055555555556)"/><path d="M259.32-1049.1v44.25" stroke="#333" fill="none"/><path d="M259.82-1049.08h-1v-.5h1z" fill="#333"/><path d="M259.32-990.1l-4.64-14.25h9.27z" stroke="#333" fill="#333"/><path d="M128.9-979.97c0-4.42 3.6-8 8-8h244.83c4.4 0 8 3.58 8 8v317.2c0 4.42-3.6 8-8 8H136.9c-4.4 0-8-3.58-8-8z" stroke="#333" fill="#fff"/><use xlink:href="#b" transform="matrix(1,0,0,1,133.9041095890411,-982.9698630136987) translate(5.654320987654302 65.11805555555556)"/><use xlink:href="#c" transform="matrix(1,0,0,1,133.9041095890411,-982.9698630136987) translate(63.84567901234567 65.11805555555556)"/><use xlink:href="#d" transform="matrix(1,0,0,1,133.9041095890411,-982.9698630136987) translate(97.79629629629629 65.11805555555556)"/><use xlink:href="#e" transform="matrix(1,0,0,1,133.9041095890411,-982.9698630136987) translate(24.632716049382694 94.4513888888889)"/><use xlink:href="#f" transform="matrix(1,0,0,1,133.9041095890411,-982.9698630136987) translate(183.0462962962963 94.4513888888889)"/><use xlink:href="#g" transform="matrix(1,0,0,1,133.9041095890411,-982.9698630136987) translate(25.27777777777777 123.78472222222224)"/><use xlink:href="#h" transform="matrix(1,0,0,1,133.9041095890411,-982.9698630136987) translate(118.70987654320987 123.78472222222224)"/><use xlink:href="#i" transform="matrix(1,0,0,1,133.9041095890411,-982.9698630136987) translate(140.37037037037038 123.78472222222224)"/><use xlink:href="#j" transform="matrix(1,0,0,1,133.9041095890411,-982.9698630136987) translate(170.11111111111111 123.78472222222224)"/><use xlink:href="#k" transform="matrix(1,0,0,1,133.9041095890411,-982.9698630136987) translate(190.4814814814815 123.78472222222224)"/><use xlink:href="#l" transform="matrix(1,0,0,1,133.9041095890411,-982.9698630136987) translate(4.126543209876516 153.1180555555556)"/><use xlink:href="#m" transform="matrix(1,0,0,1,133.9041095890411,-982.9698630136987) translate(59.73765432098764 153.1180555555556)"/><use xlink:href="#n" transform="matrix(1,0,0,1,133.9041095890411,-982.9698630136987) translate(130.2191358024691 153.1180555555556)"/><use xlink:href="#o" transform="matrix(1,0,0,1,133.9041095890411,-982.9698630136987) translate(206.13271604938274 153.1180555555556)"/><use xlink:href="#p" transform="matrix(1,0,0,1,133.9041095890411,-982.9698630136987) translate(233.29320987654324 153.1180555555556)"/><use xlink:href="#q" transform="matrix(1,0,0,1,133.9041095890411,-982.9698630136987) translate(36.753086419753075 182.4513888888889)"/><use xlink:href="#r" transform="matrix(1,0,0,1,133.9041095890411,-982.9698630136987) translate(157.34567901234567 182.4513888888889)"/><use xlink:href="#s" transform="matrix(1,0,0,1,133.9041095890411,-982.9698630136987) translate(187.08641975308643 182.4513888888889)"/><use xlink:href="#t" transform="matrix(1,0,0,1,133.9041095890411,-982.9698630136987) translate(51.72530864197529 211.78472222222229)"/><use xlink:href="#e" transform="matrix(1,0,0,1,133.9041095890411,-982.9698630136987) translate(13.80246913580244 241.1180555555556)"/><use xlink:href="#u" transform="matrix(1,0,0,1,133.9041095890411,-982.9698630136987) translate(172.21604938271605 241.1180555555556)"/><use xlink:href="#v" transform="matrix(1,0,0,1,133.9041095890411,-982.9698630136987) translate(200.66666666666669 241.1180555555556)"/><use xlink:href="#w" transform="matrix(1,0,0,1,133.9041095890411,-982.9698630136987) translate(69.24382716049382 270.45138888888897)"/><path d="M259.32-653.77V-573" stroke="#333" fill="none"/><path d="M259.82-653.76h-1v-.5h1z" fill="#333"/><path d="M259.32-558.23l-4.64-14.27h9.27z" stroke="#333" fill="#333"/><path d="M252.92-555.75c3.53-2.65 9.26-2.65 12.8 0l117.6 88.2c3.54 2.66 3.54 6.96 0 9.6l-117.6 88.22c-3.54 2.65-9.27 2.65-12.8 0l-117.62-88.2c-3.53-2.66-3.53-6.96 0-9.6z" stroke="#333" fill="#fff"/><use xlink:href="#x" transform="matrix(1,0,0,1,133.9041095890411,-555.5479452054794) translate(37.369197530864184 95.11805555555556)"/><use xlink:href="#y" transform="matrix(1,0,0,1,133.9041095890411,-555.5479452054794) translate(64.52969135802468 95.11805555555556)"/><use xlink:href="#z" transform="matrix(1,0,0,1,133.9041095890411,-555.5479452054794) translate(126.93092592592592 95.11805555555556)"/><path d="M259.82-285h-1v-19.07h1zm0-48.4h-1v-34.97h1z" fill="#333"/><path d="M259.82-368.35h-1v-3.52h1zM259.32-270.22l-4.64-14.27h9.27z" fill="#333"/><path d="M259.32-268.6L254-285h10.64zm-3.95-15.4l3.95 12.16 3.94-12.15z" fill="#333"/><use xlink:href="#A" transform="matrix(1,0,0,1,243.0866734314223,-333.4004366777372) translate(0.004999999999999005 19.555555555555557)"/><path d="M128.9-260.1c0-4.42 3.6-8 8-8h244.83c4.4 0 8 3.58 8 8v246.78c0 4.4-3.6 8-8 8H136.9c-4.4 0-8-3.6-8-8z" stroke="#333" fill="#fff"/><use xlink:href="#b" transform="matrix(1,0,0,1,133.9041095890411,-263.1013698630136) translate(39.503086419753075 43.27430555555556)"/><use xlink:href="#c" transform="matrix(1,0,0,1,133.9041095890411,-263.1013698630136) translate(97.69444444444444 43.27430555555556)"/><use xlink:href="#B" transform="matrix(1,0,0,1,133.9041095890411,-263.1013698630136) translate(131.64506172839506 43.27430555555556)"/><use xlink:href="#g" transform="matrix(1,0,0,1,133.9041095890411,-263.1013698630136) translate(46.2932098765432 72.60763888888889)"/><use xlink:href="#h" transform="matrix(1,0,0,1,133.9041095890411,-263.1013698630136) translate(139.7253086419753 72.60763888888889)"/><use xlink:href="#i" transform="matrix(1,0,0,1,133.9041095890411,-263.1013698630136) translate(161.3858024691358 72.60763888888889)"/><use xlink:href="#p" transform="matrix(1,0,0,1,133.9041095890411,-263.1013698630136) translate(191.12654320987656 72.60763888888889)"/><use xlink:href="#q" transform="matrix(1,0,0,1,133.9041095890411,-263.1013698630136) translate(40.7932098765432 101.94097222222223)"/><use xlink:href="#C" transform="matrix(1,0,0,1,133.9041095890411,-263.1013698630136) translate(161.3858024691358 101.94097222222223)"/><use xlink:href="#D" transform="matrix(1,0,0,1,133.9041095890411,-263.1013698630136) translate(14.549382716049351 131.27430555555554)"/><use xlink:href="#E" transform="matrix(1,0,0,1,133.9041095890411,-263.1013698630136) translate(120.0679012345679 131.27430555555554)"/><use xlink:href="#F" transform="matrix(1,0,0,1,133.9041095890411,-263.1013698630136) translate(171.46913580246917 131.27430555555554)"/><use xlink:href="#G" transform="matrix(1,0,0,1,133.9041095890411,-263.1013698630136) translate(31.422839506172835 160.6076388888889)"/><use xlink:href="#H" transform="matrix(1,0,0,1,133.9041095890411,-263.1013698630136) translate(74.74382716049382 160.6076388888889)"/><use xlink:href="#I" transform="matrix(1,0,0,1,133.9041095890411,-263.1013698630136) translate(141.01543209876544 160.6076388888889)"/><use xlink:href="#J" transform="matrix(1,0,0,1,133.9041095890411,-263.1013698630136) translate(191.12654320987656 160.6076388888889)"/><use xlink:href="#K" transform="matrix(1,0,0,1,133.9041095890411,-263.1013698630136) translate(42.253086419753075 189.94097222222223)"/><use xlink:href="#u" transform="matrix(1,0,0,1,133.9041095890411,-263.1013698630136) translate(143.76543209876542 189.94097222222223)"/><use xlink:href="#v" transform="matrix(1,0,0,1,133.9041095890411,-263.1013698630136) translate(172.21604938271605 189.94097222222223)"/><use xlink:href="#w" transform="matrix(1,0,0,1,133.9041095890411,-263.1013698630136) translate(69.24382716049382 219.2743055555556)"/><path d="M259.32-4.32v83.38" stroke="#333" fill="none"/><path d="M259.82-4.3h-1v-.52h1z" fill="#333"/><path d="M259.32 93.82l-4.64-14.26h9.27z" stroke="#333" fill="#333"/><path d="M252.92 96.3c3.53-2.64 9.26-2.64 12.8 0l117.6 88.22c3.54 2.65 3.54 6.94 0 9.6l-117.6 88.2c-3.54 2.65-9.27 2.65-12.8 0l-117.62-88.2c-3.53-2.66-3.53-6.95 0-9.6z" stroke="#333" fill="#fff"/><use xlink:href="#x" transform="matrix(1,0,0,1,133.9041095890411,96.50684931506845) translate(62.5605555555555 83.49305555555556)"/><use xlink:href="#L" transform="matrix(1,0,0,1,133.9041095890411,96.50684931506845) translate(89.721049382716 83.49305555555556)"/><use xlink:href="#z" transform="matrix(1,0,0,1,133.9041095890411,96.50684931506845) translate(82.150061728395 112.8263888888889)"/><path d="M259.82 384.68h-1v-27.9h1zm0-57.22h-1V283.7h1zM259.82 283.7h-1v-3.5h1zM259.32 399.44l-4.64-14.26h9.27z" fill="#333"/><path d="M259.32 401.06L254 384.68h10.64zm-3.95-15.38l3.95 12.14 3.94-12.14z" fill="#333"/><use xlink:href="#A" transform="matrix(1,0,0,1,243.0866734314223,327.4570975688378) translate(0.004999999999999005 19.555555555555557)"/><path d="M128.9 409.56c0-4.42 3.6-8 8-8h244.83c4.4 0 8 3.58 8 8v211.57c0 4.4-3.6 8-8 8H136.9c-4.4 0-8-3.6-8-8z" stroke="#333" fill="#fff"/><use xlink:href="#b" transform="matrix(1,0,0,1,133.9041095890411,406.55890410958864) translate(10.984567901234541 53.61805555555556)"/><use xlink:href="#c" transform="matrix(1,0,0,1,133.9041095890411,406.55890410958864) translate(69.17592592592591 53.61805555555556)"/><use xlink:href="#M" transform="matrix(1,0,0,1,133.9041095890411,406.55890410958864) translate(103.12654320987653 53.61805555555556)"/><use xlink:href="#u" transform="matrix(1,0,0,1,133.9041095890411,406.55890410958864) translate(175.03395061728395 53.61805555555556)"/><use xlink:href="#v" transform="matrix(1,0,0,1,133.9041095890411,406.55890410958864) translate(203.48456790123458 53.61805555555556)"/><use xlink:href="#N" transform="matrix(1,0,0,1,133.9041095890411,406.55890410958864) translate(0.8672839506172636 82.95138888888889)"/><use xlink:href="#I" transform="matrix(1,0,0,1,133.9041095890411,406.55890410958864) translate(113.37962962962963 82.95138888888889)"/><use xlink:href="#O" transform="matrix(1,0,0,1,133.9041095890411,406.55890410958864) translate(163.49074074074076 82.95138888888889)"/><use xlink:href="#h" transform="matrix(1,0,0,1,133.9041095890411,406.55890410958864) translate(8.30246913580244 112.28472222222223)"/><use xlink:href="#i" transform="matrix(1,0,0,1,133.9041095890411,406.55890410958864) translate(29.962962962962937 112.28472222222223)"/><use xlink:href="#j" transform="matrix(1,0,0,1,133.9041095890411,406.55890410958864) translate(59.70370370370368 112.28472222222223)"/><use xlink:href="#P" transform="matrix(1,0,0,1,133.9041095890411,406.55890410958864) translate(80.07407407407406 112.28472222222223)"/><use xlink:href="#Q" transform="matrix(1,0,0,1,133.9041095890411,406.55890410958864) translate(16.41666666666663 141.61805555555554)"/><use xlink:href="#r" transform="matrix(1,0,0,1,133.9041095890411,406.55890410958864) translate(111.27469135802468 141.61805555555554)"/><use xlink:href="#M" transform="matrix(1,0,0,1,133.9041095890411,406.55890410958864) translate(141.01543209876542 141.61805555555554)"/><use xlink:href="#R" transform="matrix(1,0,0,1,133.9041095890411,406.55890410958864) translate(212.92283950617286 141.61805555555554)"/><use xlink:href="#G" transform="matrix(1,0,0,1,133.9041095890411,406.55890410958864) translate(47.583333333333314 170.9513888888889)"/><use xlink:href="#S" transform="matrix(1,0,0,1,133.9041095890411,406.55890410958864) translate(90.9043209876543 170.9513888888889)"/><path d="M252.92 715.76c3.53-2.65 9.26-2.65 12.8 0l117.6 88.2c3.54 2.66 3.54 6.96 0 9.6l-117.6 88.22c-3.54 2.65-9.27 2.65-12.8 0l-117.62-88.2c-3.53-2.66-3.53-6.96 0-9.6z" stroke="#333" fill="#fff"/><use xlink:href="#x" transform="matrix(1,0,0,1,133.9041095890411,715.958904109589) translate(71.93092592592586 83.49305555555556)"/><use xlink:href="#T" transform="matrix(1,0,0,1,133.9041095890411,715.958904109589) translate(99.09141975308637 83.49305555555556)"/><use xlink:href="#z" transform="matrix(1,0,0,1,133.9041095890411,715.958904109589) translate(82.150061728395 112.8263888888889)"/><path d="M259.82 1052.7h-1v-52.17h1zm0-81.5h-1v-68.06h1z" fill="#333"/><path d="M259.82 903.15h-1v-3.5h1zM259.32 1067.47l-4.64-14.26h9.27z" fill="#333"/><path d="M259.32 1069.1l-5.33-16.4h10.64zm-3.95-15.4l3.95 12.15 3.94-12.14z" fill="#333"/><g><use xlink:href="#A" transform="matrix(1,0,0,1,243.0866734314223,971.198193459249) translate(0.004999999999999005 19.555555555555557)"/></g><path d="M259.32 630.13v68.38" stroke="#333" fill="none"/><path d="M259.82 630.14h-1v-.5h1z" fill="#333"/><path d="M259.32 713.28L254.68 699h9.27z" stroke="#333" fill="#333"/><path d="M337.56 1069.6c28.8 0 52.17 29.18 52.17 65.2 0 36-23.36 65.2-52.17 65.2h-156.5c-28.8 0-52.16-29.2-52.16-65.2 0-36.02 23.36-65.2 52.17-65.2z" stroke="#333" fill="#fff"/><g><use xlink:href="#U" transform="matrix(1,0,0,1,133.9041095890411,1074.5890410958903) translate(19.816728395061673 34.68055555555556)"/><use xlink:href="#c" transform="matrix(1,0,0,1,133.9041095890411,1074.5890410958903) translate(105.10067901234564 34.68055555555556)"/><use xlink:href="#G" transform="matrix(1,0,0,1,133.9041095890411,1074.5890410958903) translate(139.05129629629624 34.68055555555556)"/><use xlink:href="#V" transform="matrix(1,0,0,1,133.9041095890411,1074.5890410958903) translate(182.37228395061726 34.68055555555556)"/><use xlink:href="#W" transform="matrix(1,0,0,1,133.9041095890411,1074.5890410958903) translate(27.95987654320986 64.01388888888889)"/><use xlink:href="#I" transform="matrix(1,0,0,1,133.9041095890411,1074.5890410958903) translate(121.52777777777777 64.01388888888889)"/><use xlink:href="#X" transform="matrix(1,0,0,1,133.9041095890411,1074.5890410958903) translate(171.6388888888889 64.01388888888889)"/><use xlink:href="#Y" transform="matrix(1,0,0,1,133.9041095890411,1074.5890410958903) translate(98.44635802469136 93.34722222222223)"/></g><path d="M455.35-462.24h-70.6v-1h70.6zm96.8 0h-54.7v-1h54.7z" fill="#333"/><path d="M384.76-462.24h-3.5v-1h3.5zM566.92-462.74l-14.26 4.64v-9.28z" fill="#333"/><path d="M568.54-462.74l-16.38 5.32v-10.64zm-15.38 3.95l12.15-3.94-12.14-3.95z" fill="#333"/><g><use xlink:href="#Z" transform="matrix(1,0,0,1,455.3462834978393,-477.4063926940639) translate(0.004999999999999005 19.555555555555557)"/></g><path d="M569.04-552.55c0-4.42 3.58-8 8-8h244.82c4.42 0 8 3.58 8 8v179.62c0 4.42-3.58 8-8 8H577.04c-4.42 0-8-3.58-8-8z" stroke="#333" fill="#fff"/><g><use xlink:href="#aa" transform="matrix(1,0,0,1,574.041095890411,-555.5479452054794) translate(10.373456790123456 66.05555555555556)"/><use xlink:href="#ab" transform="matrix(1,0,0,1,574.041095890411,-555.5479452054794) translate(107.81172839506173 66.05555555555556)"/><use xlink:href="#f" transform="matrix(1,0,0,1,574.041095890411,-555.5479452054794) translate(197.30555555555554 66.05555555555556)"/><use xlink:href="#K" transform="matrix(1,0,0,1,574.041095890411,-555.5479452054794) translate(14.447530864197518 95.3888888888889)"/><use xlink:href="#ac" transform="matrix(1,0,0,1,574.041095890411,-555.5479452054794) translate(115.95987654320987 95.3888888888889)"/><use xlink:href="#ad" transform="matrix(1,0,0,1,574.041095890411,-555.5479452054794) translate(149.9104938271605 95.3888888888889)"/><use xlink:href="#i" transform="matrix(1,0,0,1,574.041095890411,-555.5479452054794) translate(170.2808641975309 95.3888888888889)"/><use xlink:href="#v" transform="matrix(1,0,0,1,574.041095890411,-555.5479452054794) translate(200.02160493827162 95.3888888888889)"/><use xlink:href="#ae" transform="matrix(1,0,0,1,574.041095890411,-555.5479452054794) translate(104.48456790123456 124.72222222222224)"/></g><path d="M261.35-302.34l-1.14 2.76-.38 3v11.6h-1v-11.65l.42-3.22 1.24-3 .94-1.22h1.26zM861.6-462.82l3 1.24 2.6 2 2 2.6 1.24 3 .42 3.2v130.2l-.42 3.22-1.24 3-2 2.6-2.6 2-3 1.24-3.2.42H275.54v-1h582.8l3-.4 2.76-1.14 2.4-1.83 1.83-2.4 1.14-2.75.4-3v-130.1l-.4-3-1.14-2.76-1.84-2.4-2.4-1.82-2.75-1.14-3.02-.4h-27.47v-1h27.54z" fill="#333"/><path d="M830.88-462.24h-.52v-1h.52zM259.32-270.22l-4.64-14.27h9.27z" fill="#333"/><path d="M259.32-268.6L254-285h10.64zm-3.95-15.4l3.95 12.16 3.94-12.15z" fill="#333"/><path d="M829.86-650.36c0-4.4 3.58-8 8-8h114.4c4.43 0 8 3.6 8 8v244.83c0 4.4-3.57 8-8 8h-114.4c-4.42 0-8-3.6-8-8z" fill="none"/><path d="M960.27-397.53c-9 0-16.3-7.3-16.3-16.3v-97.8c0-9.02-7.3-16.32-16.3-16.32 9 0 16.3-7.3 16.3-16.3v-97.8c0-9 7.3-16.3 16.3-16.3" stroke="#333" fill="none"/><g><use xlink:href="#af" transform="matrix(1,0,0,1,834.8630136986303,-653.3561643835617) translate(8.941358024691358 130.38888888888889)"/></g><path d="M960.27-666.66c0-4.42 3.6-8 8-8h212.22c4.4 0 8 3.58 8 8v261.13c0 4.4-3.6 8-8 8H968.26c-4.4 0-8-3.6-8-8z" stroke="#000" stroke-opacity="0" fill="#fff" fill-opacity="0"/><g><use xlink:href="#ag" transform="matrix(1,0,0,1,965.2739726027401,-669.6575342465753) translate(0 78.18055555555556)"/><use xlink:href="#ah" transform="matrix(1,0,0,1,965.2739726027401,-669.6575342465753) translate(93.50000000000001 78.18055555555556)"/><use xlink:href="#ai" transform="matrix(1,0,0,1,965.2739726027401,-669.6575342465753) translate(0 107.5138888888889)"/><use xlink:href="#i" transform="matrix(1,0,0,1,965.2739726027401,-669.6575342465753) translate(121.88271604938272 107.5138888888889)"/><use xlink:href="#aj" transform="matrix(1,0,0,1,965.2739726027401,-669.6575342465753) translate(151.62345679012347 107.5138888888889)"/><use xlink:href="#h" transform="matrix(1,0,0,1,965.2739726027401,-669.6575342465753) translate(0 136.84722222222223)"/><use xlink:href="#ak" transform="matrix(1,0,0,1,965.2739726027401,-669.6575342465753) translate(21.660493827160497 136.84722222222223)"/><use xlink:href="#i" transform="matrix(1,0,0,1,965.2739726027401,-669.6575342465753) translate(82.77160493827162 136.84722222222223)"/><use xlink:href="#al" transform="matrix(1,0,0,1,965.2739726027401,-669.6575342465753) translate(112.51234567901237 136.84722222222223)"/><use xlink:href="#am" transform="matrix(1,0,0,1,965.2739726027401,-669.6575342465753) translate(0 166.1805555555556)"/><use xlink:href="#G" transform="matrix(1,0,0,1,965.2739726027401,-669.6575342465753) translate(100.29012345679014 166.1805555555556)"/><use xlink:href="#an" transform="matrix(1,0,0,1,965.2739726027401,-669.6575342465753) translate(143.61111111111114 166.1805555555556)"/><use xlink:href="#ao" transform="matrix(1,0,0,1,965.2739726027401,-669.6575342465753) translate(185.64197530864203 166.1805555555556)"/><use xlink:href="#ap" transform="matrix(1,0,0,1,965.2739726027401,-669.6575342465753) translate(0 195.5138888888889)"/><use xlink:href="#aq" transform="matrix(1,0,0,1,965.2739726027401,-669.6575342465753) translate(78.62962962962965 195.5138888888889)"/><use xlink:href="#ar" transform="matrix(1,0,0,1,965.2739726027401,-669.6575342465753) translate(109.79629629629632 195.5138888888889)"/></g><path d="M389.73-943.78c0-4.42 3.58-8 8-8h114.4c4.43 0 8 3.58 8 8v244.82c0 4.42-3.57 8-8 8h-114.4c-4.42 0-8-3.58-8-8z" fill="none"/><path d="M520.14-690.96c-9 0-16.3-7.3-16.3-16.3v-97.8c0-9-7.3-16.3-16.3-16.3 9 0 16.3-7.3 16.3-16.3v-97.82c0-9 7.3-16.3 16.3-16.3" stroke="#333" fill="none"/><g><use xlink:href="#af" transform="matrix(1,0,0,1,394.72602739726034,-946.7808219178083) translate(8.941358024691358 130.38888888888889)"/></g><path d="M520.14-943.78c0-4.42 3.58-8 8-8h179.6c4.43 0 8 3.58 8 8v244.82c0 4.42-3.57 8-8 8h-179.6c-4.42 0-8-3.58-8-8z" stroke="#000" stroke-opacity="0" fill="#fff" fill-opacity="0"/><g><use xlink:href="#as" transform="matrix(1,0,0,1,525.1369863013699,-946.7808219178083) translate(0 74.46180555555556)"/><use xlink:href="#at" transform="matrix(1,0,0,1,525.1369863013699,-946.7808219178083) translate(46.037037037037045 74.46180555555556)"/><use xlink:href="#au" transform="matrix(1,0,0,1,525.1369863013699,-946.7808219178083) translate(108.4382716049383 74.46180555555556)"/><use xlink:href="#av" transform="matrix(1,0,0,1,525.1369863013699,-946.7808219178083) translate(0 103.7951388888889)"/><use xlink:href="#aw" transform="matrix(1,0,0,1,525.1369863013699,-946.7808219178083) translate(70.48148148148148 103.7951388888889)"/><use xlink:href="#ax" transform="matrix(1,0,0,1,525.1369863013699,-946.7808219178083) translate(0 133.12847222222223)"/><use xlink:href="#ay" transform="matrix(1,0,0,1,525.1369863013699,-946.7808219178083) translate(39.38271604938272 133.12847222222223)"/><use xlink:href="#az" transform="matrix(1,0,0,1,525.1369863013699,-946.7808219178083) translate(88.20370370370372 133.12847222222223)"/><use xlink:href="#aq" transform="matrix(1,0,0,1,525.1369863013699,-946.7808219178083) translate(0 162.4618055555556)"/><use xlink:href="#aA" transform="matrix(1,0,0,1,525.1369863013699,-946.7808219178083) translate(31.166666666666668 162.4618055555556)"/><use xlink:href="#aB" transform="matrix(1,0,0,1,525.1369863013699,-946.7808219178083) translate(101.03703703703705 162.4618055555556)"/><use xlink:href="#aC" transform="matrix(1,0,0,1,525.1369863013699,-946.7808219178083) translate(152.4382716049383 162.4618055555556)"/><use xlink:href="#aD" transform="matrix(1,0,0,1,525.1369863013699,-946.7808219178083) translate(0 191.7951388888889)"/></g><path d="M862.47 18c0-4.42 3.58-8 8-8h114.4c4.42 0 8 3.58 8 8v244.82c0 4.42-3.58 8-8 8h-114.4c-4.42 0-8-3.58-8-8z" fill="none"/><path d="M992.88 270.82c-9 0-16.3-7.3-16.3-16.3v-97.8c0-9-7.3-16.3-16.3-16.3 9 0 16.3-7.3 16.3-16.3V26.3c0-9 7.3-16.3 16.3-16.3" stroke="#333" fill="none"/><g><use xlink:href="#af" transform="matrix(1,0,0,1,867.4657534246578,14.999999999999915) translate(8.941358024691358 130.38888888888889)"/></g><path d="M992.88 1.7c0-4.42 3.58-8 8-8h212.22c4.4 0 8 3.58 8 8v261.12c0 4.42-3.6 8-8 8h-212.22c-4.42 0-8-3.58-8-8z" stroke="#000" stroke-opacity="0" fill="#fff" fill-opacity="0"/><g><use xlink:href="#aE" transform="matrix(1,0,0,1,997.8767123287676,-1.3013698630138038) translate(0 78.18055555555556)"/><use xlink:href="#ah" transform="matrix(1,0,0,1,997.8767123287676,-1.3013698630138038) translate(120.52469135802471 78.18055555555556)"/><use xlink:href="#ai" transform="matrix(1,0,0,1,997.8767123287676,-1.3013698630138038) translate(0 107.5138888888889)"/><use xlink:href="#i" transform="matrix(1,0,0,1,997.8767123287676,-1.3013698630138038) translate(121.88271604938272 107.5138888888889)"/><use xlink:href="#aj" transform="matrix(1,0,0,1,997.8767123287676,-1.3013698630138038) translate(151.62345679012347 107.5138888888889)"/><use xlink:href="#h" transform="matrix(1,0,0,1,997.8767123287676,-1.3013698630138038) translate(0 136.84722222222223)"/><use xlink:href="#ak" transform="matrix(1,0,0,1,997.8767123287676,-1.3013698630138038) translate(21.660493827160497 136.84722222222223)"/><use xlink:href="#i" transform="matrix(1,0,0,1,997.8767123287676,-1.3013698630138038) translate(82.77160493827162 136.84722222222223)"/><use xlink:href="#al" transform="matrix(1,0,0,1,997.8767123287676,-1.3013698630138038) translate(112.51234567901237 136.84722222222223)"/><use xlink:href="#am" transform="matrix(1,0,0,1,997.8767123287676,-1.3013698630138038) translate(0 166.1805555555556)"/><use xlink:href="#G" transform="matrix(1,0,0,1,997.8767123287676,-1.3013698630138038) translate(100.29012345679014 166.1805555555556)"/><use xlink:href="#an" transform="matrix(1,0,0,1,997.8767123287676,-1.3013698630138038) translate(143.61111111111114 166.1805555555556)"/><use xlink:href="#ao" transform="matrix(1,0,0,1,997.8767123287676,-1.3013698630138038) translate(185.64197530864203 166.1805555555556)"/><use xlink:href="#ap" transform="matrix(1,0,0,1,997.8767123287676,-1.3013698630138038) translate(0 195.5138888888889)"/><use xlink:href="#aq" transform="matrix(1,0,0,1,997.8767123287676,-1.3013698630138038) translate(78.62962962962965 195.5138888888889)"/><use xlink:href="#ar" transform="matrix(1,0,0,1,997.8767123287676,-1.3013698630138038) translate(109.79629629629632 195.5138888888889)"/></g><path d="M813.56 637.45c0-4.42 3.58-8 8-8h114.4c4.43 0 8 3.58 8 8v244.82c0 4.42-3.57 8-8 8h-114.4c-4.42 0-8-3.58-8-8z" fill="none"/><path d="M943.97 890.27c-9 0-16.3-7.3-16.3-16.3v-97.8c0-9-7.3-16.3-16.3-16.3 9 0 16.3-7.3 16.3-16.3v-97.82c0-9 7.3-16.3 16.3-16.3" stroke="#333" fill="none"/><g><use xlink:href="#af" transform="matrix(1,0,0,1,818.5616438356166,634.4520547945207) translate(8.941358024691358 130.38888888888889)"/></g><path d="M943.97 621.15c0-4.42 3.58-8 8-8h212.22c4.4 0 8 3.58 8 8v261.12c0 4.42-3.6 8-8 8H951.96c-4.42 0-8-3.58-8-8z" stroke="#000" stroke-opacity="0" fill="#fff" fill-opacity="0"/><g><use xlink:href="#aF" transform="matrix(1,0,0,1,948.9726027397264,618.1506849315069) translate(0 78.18055555555556)"/><use xlink:href="#ah" transform="matrix(1,0,0,1,948.9726027397264,618.1506849315069) translate(111.22222222222224 78.18055555555556)"/><use xlink:href="#ai" transform="matrix(1,0,0,1,948.9726027397264,618.1506849315069) translate(0 107.5138888888889)"/><use xlink:href="#i" transform="matrix(1,0,0,1,948.9726027397264,618.1506849315069) translate(121.88271604938272 107.5138888888889)"/><use xlink:href="#aj" transform="matrix(1,0,0,1,948.9726027397264,618.1506849315069) translate(151.62345679012347 107.5138888888889)"/><use xlink:href="#h" transform="matrix(1,0,0,1,948.9726027397264,618.1506849315069) translate(0 136.84722222222223)"/><use xlink:href="#ak" transform="matrix(1,0,0,1,948.9726027397264,618.1506849315069) translate(21.660493827160497 136.84722222222223)"/><use xlink:href="#i" transform="matrix(1,0,0,1,948.9726027397264,618.1506849315069) translate(82.77160493827162 136.84722222222223)"/><use xlink:href="#al" transform="matrix(1,0,0,1,948.9726027397264,618.1506849315069) translate(112.51234567901237 136.84722222222223)"/><use xlink:href="#am" transform="matrix(1,0,0,1,948.9726027397264,618.1506849315069) translate(0 166.1805555555556)"/><use xlink:href="#G" transform="matrix(1,0,0,1,948.9726027397264,618.1506849315069) translate(100.29012345679014 166.1805555555556)"/><use xlink:href="#an" transform="matrix(1,0,0,1,948.9726027397264,618.1506849315069) translate(143.61111111111114 166.1805555555556)"/><use xlink:href="#ao" transform="matrix(1,0,0,1,948.9726027397264,618.1506849315069) translate(185.64197530864203 166.1805555555556)"/><use xlink:href="#ap" transform="matrix(1,0,0,1,948.9726027397264,618.1506849315069) translate(0 195.5138888888889)"/><use xlink:href="#aq" transform="matrix(1,0,0,1,948.9726027397264,618.1506849315069) translate(78.62962962962965 195.5138888888889)"/><use xlink:href="#ar" transform="matrix(1,0,0,1,948.9726027397264,618.1506849315069) translate(109.79629629629632 195.5138888888889)"/></g><path d="M601.64 99.5c0-4.4 3.6-8 8-8h244.83c4.4 0 8 3.6 8 8v179.62c0 4.42-3.6 8-8 8H609.64c-4.4 0-8-3.58-8-8z" stroke="#333" fill="#fff"/><g><use xlink:href="#aa" transform="matrix(1,0,0,1,606.6438356164384,96.50684931506845) translate(19.91358024691357 66.05555555555556)"/><use xlink:href="#aG" transform="matrix(1,0,0,1,606.6438356164384,96.50684931506845) translate(117.35185185185185 66.05555555555556)"/><use xlink:href="#I" transform="matrix(1,0,0,1,606.6438356164384,96.50684931506845) translate(11.052469135802454 95.3888888888889)"/><use xlink:href="#K" transform="matrix(1,0,0,1,606.6438356164384,96.50684931506845) translate(61.163580246913575 95.3888888888889)"/><use xlink:href="#ac" transform="matrix(1,0,0,1,606.6438356164384,96.50684931506845) translate(162.67592592592592 95.3888888888889)"/><use xlink:href="#ad" transform="matrix(1,0,0,1,606.6438356164384,96.50684931506845) translate(196.62654320987653 95.3888888888889)"/><use xlink:href="#aH" transform="matrix(1,0,0,1,606.6438356164384,96.50684931506845) translate(216.9969135802469 95.3888888888889)"/><use xlink:href="#G" transform="matrix(1,0,0,1,606.6438356164384,96.50684931506845) translate(82.82407407407406 124.72222222222224)"/><use xlink:href="#ae" transform="matrix(1,0,0,1,606.6438356164384,96.50684931506845) translate(126.14506172839506 124.72222222222224)"/></g><path d="M471.65 189.82h-86.9v-1h86.9zm113.1 0h-71v-1h71z" fill="#333"/><path d="M384.76 189.82h-3.5v-1h3.5zM599.53 189.32l-14.27 4.63v-9.27z" fill="#333"/><path d="M601.14 189.32l-16.38 5.32V184zm-15.38 3.94l12.15-3.94-12.14-3.95z" fill="#333"/><g><use xlink:href="#Z" transform="matrix(1,0,0,1,471.647653360853,174.648401826484) translate(0.004999999999999005 19.555555555555557)"/></g><path d="M894.2 189.24l3 1.24 2.6 2 2 2.6 1.25 3 .42 3.2v147.8l-.43 3.22-1.24 3-2 2.6-2.6 2-3 1.24-3.2.42H271.35l-3.02.4-2.75 1.14-2.4 1.83-1.83 2.4-1.14 2.75-.38 3v11.6h-1v-11.65l.42-3.22 1.24-2.98 2-2.6 2.6-2 3-1.24 3.2-.42h619.65l3.02-.4 2.75-1.14 2.4-1.83 1.83-2.4 1.14-2.76.4-3v-147.7l-.4-3-1.14-2.76-1.84-2.4-2.4-1.83-2.75-1.14-3.02-.38h-27.46v-1H891z" fill="#333"/><path d="M863.48 189.82h-.5v-1h.5zM259.32 399.44l-4.64-14.26h9.27z" fill="#333"/><path d="M259.32 401.06L254 384.68h10.64zm-3.95-15.38l3.95 12.14 3.94-12.14z" fill="#333"/><path d="M552.74 718.96c0-4.42 3.58-8 8-8h244.82c4.42 0 8 3.58 8 8v179.62c0 4.4-3.58 8-8 8H560.74c-4.42 0-8-3.6-8-8z" stroke="#333" fill="#fff"/><g><use xlink:href="#aa" transform="matrix(1,0,0,1,557.7397260273973,715.958904109589) translate(24.56481481481481 66.05555555555556)"/><use xlink:href="#aI" transform="matrix(1,0,0,1,557.7397260273973,715.958904109589) translate(122.00308641975309 66.05555555555556)"/><use xlink:href="#I" transform="matrix(1,0,0,1,557.7397260273973,715.958904109589) translate(11.052469135802454 95.3888888888889)"/><use xlink:href="#K" transform="matrix(1,0,0,1,557.7397260273973,715.958904109589) translate(61.163580246913575 95.3888888888889)"/><use xlink:href="#ac" transform="matrix(1,0,0,1,557.7397260273973,715.958904109589) translate(162.67592592592592 95.3888888888889)"/><use xlink:href="#ad" transform="matrix(1,0,0,1,557.7397260273973,715.958904109589) translate(196.62654320987653 95.3888888888889)"/><use xlink:href="#aH" transform="matrix(1,0,0,1,557.7397260273973,715.958904109589) translate(216.9969135802469 95.3888888888889)"/><use xlink:href="#G" transform="matrix(1,0,0,1,557.7397260273973,715.958904109589) translate(82.82407407407406 124.72222222222224)"/><use xlink:href="#ae" transform="matrix(1,0,0,1,557.7397260273973,715.958904109589) translate(126.14506172839506 124.72222222222224)"/></g><path d="M845.3 808.7l3 1.23 2.6 2 2 2.6 1.24 3 .42 3.2v196.4l-.42 3.2-1.24 3-2 2.6-2.6 2-3 1.24-3.2.42H271.34l-3.02.38-2.75 1.15-2.4 1.83-1.83 2.4-1.14 2.75-.38 3.02v11.6h-1v-11.66l.42-3.22 1.24-3 2-2.6 2.6-2 3-1.23 3.2-.4h570.75l3-.4 2.77-1.15 2.4-1.83 1.82-2.4 1.15-2.75.4-3V820.8l-.4-3.02-1.15-2.75-1.83-2.4-2.4-1.83-2.75-1.14-3.02-.4h-27.47v-1h27.53z" fill="#333"/><path d="M814.57 809.27h-.5v-1h.5zM259.32 1067.47l-4.64-14.26h9.27z" fill="#333"/><path d="M259.32 1069.1l-5.33-16.4h10.64zm-3.95-15.4l3.95 12.15 3.94-12.14zM452.02 809.27h-67.27v-1h67.27zm83.84 0h-51.4v-1h51.4z" fill="#333"/><path d="M384.76 809.27h-3.5v-1h3.5zM550.62 808.77l-14.26 4.63v-9.27z" fill="#333"/><path d="M552.24 808.77l-16.38 5.32v-10.66zm-15.38 3.94l12.14-3.93-12.14-3.95z" fill="#333"/><g><use xlink:href="#A" transform="matrix(1,0,0,1,452.0165862206534,794.1004566210046) translate(0.004999999999999005 19.555555555555557)"/></g><defs><path fill="#3d4752" d="M195-6C206 82 75 100 31 46c-4-6-6-13-8-21l49-6c3 16 16 24 34 25 40 0 42-37 40-79-11 22-30 35-61 35-53 0-70-43-70-97 0-56 18-96 73-97 30 0 46 14 59 34l2-30h47zm-90-29c32 0 41-27 41-63 0-35-9-62-40-62-32 0-39 29-40 63 0 36 9 62 39 62" id="aJ"/><path fill="#3d4752" d="M185-48c-13 30-37 53-82 52C43 2 14-33 14-96s30-98 90-98c62 0 83 45 84 108H66c0 31 8 55 39 56 18 0 30-7 34-22zm-45-69c5-46-57-63-70-21-2 6-4 13-4 21h74" id="aK"/><path fill="#3d4752" d="M115-3C79 11 28 4 28-45v-112H4v-33h27l15-45h31v45h36v33H77v99c-1 23 16 31 38 25v30" id="aL"/><path fill="#3d4752" d="M24-248c93 1 206-16 204 79-1 75-69 88-152 82V0H24v-248zm52 121c47 0 100 7 100-41 0-47-54-39-100-39v80" id="aM"/><path fill="#3d4752" d="M140-251c80 0 125 45 125 126S219 4 139 4C58 4 15-44 15-125s44-126 125-126zm-1 214c52 0 73-35 73-88 0-50-21-86-72-86-52 0-73 35-73 86s22 88 72 88" id="aN"/><path fill="#3d4752" d="M169-182c-1-43-94-46-97-3 18 66 151 10 154 114 3 95-165 93-204 36-6-8-10-19-12-30l50-8c3 46 112 56 116 5-17-69-150-10-154-114-4-87 153-88 188-35 5 8 8 18 10 28" id="aO"/><path fill="#3d4752" d="M25 0v-261h50V0H25" id="aP"/><path fill="#3d4752" d="M137-138c1-29-70-34-71-4 15 46 118 7 119 86 1 83-164 76-172 9l43-7c4 19 20 25 44 25 33 8 57-30 24-41C81-84 22-81 20-136c-2-80 154-74 161-7" id="aQ"/><path fill="#3d4752" d="M67-93c0 74 22 123 53 168H70C40 30 18-18 18-93s22-123 52-168h50c-32 44-53 94-53 168" id="aR"/><path fill="#3d4752" d="M135-194c87-1 58 113 63 194h-50c-7-57 23-157-34-157-59 0-34 97-39 157H25l-1-190h47c2 12-1 28 3 38 12-26 28-41 61-42" id="aS"/><path fill="#3d4752" d="M190-63c-7 42-38 67-86 67-59 0-84-38-90-98-12-110 154-137 174-36l-49 2c-2-19-15-32-35-32-30 0-35 28-38 64-6 74 65 87 74 30" id="aT"/><path fill="#3d4752" d="M102-93c0 74-22 123-52 168H0C30 29 54-18 53-93c0-74-22-123-53-168h50c30 45 52 94 52 168" id="aU"/><g id="a"><use transform="matrix(0.06790123456790124,0,0,0.06790123456790124,0,0)" xlink:href="#aJ"/><use transform="matrix(0.06790123456790124,0,0,0.06790123456790124,14.870370370370372,0)" xlink:href="#aK"/><use transform="matrix(0.06790123456790124,0,0,0.06790123456790124,28.45061728395062,0)" xlink:href="#aL"/><use transform="matrix(0.06790123456790124,0,0,0.06790123456790124,36.53086419753087,0)" xlink:href="#aM"/><use transform="matrix(0.06790123456790124,0,0,0.06790123456790124,52.827160493827165,0)" xlink:href="#aN"/><use transform="matrix(0.06790123456790124,0,0,0.06790123456790124,71.83950617283952,0)" xlink:href="#aO"/><use transform="matrix(0.06790123456790124,0,0,0.06790123456790124,88.13580246913583,0)" xlink:href="#aP"/><use transform="matrix(0.06790123456790124,0,0,0.06790123456790124,94.92592592592595,0)" xlink:href="#aQ"/><use transform="matrix(0.06790123456790124,0,0,0.06790123456790124,108.5061728395062,0)" xlink:href="#aL"/><use transform="matrix(0.06790123456790124,0,0,0.06790123456790124,116.58641975308645,0)" xlink:href="#aR"/><use transform="matrix(0.06790123456790124,0,0,0.06790123456790124,124.66666666666671,0)" xlink:href="#aO"/><use transform="matrix(0.06790123456790124,0,0,0.06790123456790124,140.96296296296302,0)" xlink:href="#aK"/><use transform="matrix(0.06790123456790124,0,0,0.06790123456790124,154.54320987654327,0)" xlink:href="#aS"/><use transform="matrix(0.06790123456790124,0,0,0.06790123456790124,169.41358024691365,0)" xlink:href="#aL"/><use transform="matrix(0.06790123456790124,0,0,0.06790123456790124,177.4938271604939,0)" xlink:href="#aK"/><use transform="matrix(0.06790123456790124,0,0,0.06790123456790124,191.07407407407416,0)" xlink:href="#aS"/><use transform="matrix(0.06790123456790124,0,0,0.06790123456790124,205.94444444444454,0)" xlink:href="#aT"/><use transform="matrix(0.06790123456790124,0,0,0.06790123456790124,219.5246913580248,0)" xlink:href="#aK"/><use transform="matrix(0.06790123456790124,0,0,0.06790123456790124,233.10493827160508,0)" xlink:href="#aU"/></g><path fill="#333" d="M76-208v77h127v40H76V0H24v-248h183v40H76" id="aV"/><path fill="#333" d="M25-224v-37h50v37H25zM25 0v-190h50V0H25" id="aW"/><path fill="#333" d="M135-194c87-1 58 113 63 194h-50c-7-57 23-157-34-157-59 0-34 97-39 157H25l-1-190h47c2 12-1 28 3 38 12-26 28-41 61-42" id="aX"/><path fill="#333" d="M88-194c31-1 46 15 58 34l-1-101h50l1 261h-48c-2-10 0-23-3-31C134-8 116 4 84 4 32 4 16-41 15-95c0-56 19-97 73-99zm17 164c33 0 40-30 41-66 1-37-9-64-41-64s-38 30-39 65c0 43 13 65 39 65" id="aY"/><g id="b"><use transform="matrix(0.06790123456790124,0,0,0.06790123456790124,0,0)" xlink:href="#aV"/><use transform="matrix(0.06790123456790124,0,0,0.06790123456790124,14.870370370370372,0)" xlink:href="#aW"/><use transform="matrix(0.06790123456790124,0,0,0.06790123456790124,21.660493827160497,0)" xlink:href="#aX"/><use transform="matrix(0.06790123456790124,0,0,0.06790123456790124,36.53086419753087,0)" xlink:href="#aY"/></g><path fill="#333" d="M133-34C117-15 103 5 69 4 32 3 11-16 11-54c-1-60 55-63 116-61 1-26-3-47-28-47-18 1-26 9-28 27l-52-2c7-38 36-58 82-57s74 22 75 68l1 82c-1 14 12 18 25 15v27c-30 8-71 5-69-32zm-48 3c29 0 43-24 42-57-32 0-66-3-65 30 0 17 8 27 23 27" id="aZ"/><path fill="#333" d="M25 0v-261h50V0H25" id="ba"/><g id="c"><use transform="matrix(0.06790123456790124,0,0,0.06790123456790124,0,0)" xlink:href="#aZ"/><use transform="matrix(0.06790123456790124,0,0,0.06790123456790124,13.580246913580249,0)" xlink:href="#ba"/><use transform="matrix(0.06790123456790124,0,0,0.06790123456790124,20.370370370370374,0)" xlink:href="#ba"/></g><path fill="#333" d="M190-63c-7 42-38 67-86 67-59 0-84-38-90-98-12-110 154-137 174-36l-49 2c-2-19-15-32-35-32-30 0-35 28-38 64-6 74 65 87 74 30" id="bb"/><path fill="#333" d="M110-194c64 0 96 36 96 99 0 64-35 99-97 99-61 0-95-36-95-99 0-62 34-99 96-99zm-1 164c35 0 45-28 45-65 0-40-10-65-43-65-34 0-45 26-45 65 0 36 10 65 43 65" id="bc"/><path fill="#333" d="M135-150c-39-12-60 13-60 57V0H25l-1-190h47c2 13-1 29 3 40 6-28 27-53 61-41v41" id="bd"/><path fill="#333" d="M115-3C79 11 28 4 28-45v-112H4v-33h27l15-45h31v45h36v33H77v99c-1 23 16 31 38 25v30" id="be"/><path fill="#333" d="M195-6C206 82 75 100 31 46c-4-6-6-13-8-21l49-6c3 16 16 24 34 25 40 0 42-37 40-79-11 22-30 35-61 35-53 0-70-43-70-97 0-56 18-96 73-97 30 0 46 14 59 34l2-30h47zm-90-29c32 0 41-27 41-63 0-35-9-62-40-62-32 0-39 29-40 63 0 36 9 62 39 62" id="bf"/><g id="d"><use transform="matrix(0.06790123456790124,0,0,0.06790123456790124,0,0)" xlink:href="#bb"/><use transform="matrix(0.06790123456790124,0,0,0.06790123456790124,13.580246913580249,0)" xlink:href="#bc"/><use transform="matrix(0.06790123456790124,0,0,0.06790123456790124,28.45061728395062,0)" xlink:href="#bc"/><use transform="matrix(0.06790123456790124,0,0,0.06790123456790124,43.320987654320994,0)" xlink:href="#bd"/><use transform="matrix(0.06790123456790124,0,0,0.06790123456790124,52.827160493827165,0)" xlink:href="#aY"/><use transform="matrix(0.06790123456790124,0,0,0.06790123456790124,67.69753086419753,0)" xlink:href="#aW"/><use transform="matrix(0.06790123456790124,0,0,0.06790123456790124,74.48765432098766,0)" xlink:href="#aX"/><use transform="matrix(0.06790123456790124,0,0,0.06790123456790124,89.35802469135803,0)" xlink:href="#aZ"/><use transform="matrix(0.06790123456790124,0,0,0.06790123456790124,102.9382716049383,0)" xlink:href="#be"/><use transform="matrix(0.06790123456790124,0,0,0.06790123456790124,111.01851851851853,0)" xlink:href="#aW"/><use transform="matrix(0.06790123456790124,0,0,0.06790123456790124,117.80864197530866,0)" xlink:href="#aX"/><use transform="matrix(0.06790123456790124,0,0,0.06790123456790124,132.67901234567904,0)" xlink:href="#bf"/></g><path fill="#333" d="M25-224v-37h50v37H25zM75 22c2 45-34 59-81 51V38c22 5 31-5 31-27v-201h50V22" id="bg"/><path fill="#333" d="M85 4C-2 5 27-109 22-190h50c7 57-23 150 33 157 60-5 35-97 40-157h50l1 190h-47c-2-12 1-28-3-38-12 25-28 42-61 42" id="bh"/><path fill="#333" d="M137-138c1-29-70-34-71-4 15 46 118 7 119 86 1 83-164 76-172 9l43-7c4 19 20 25 44 25 33 8 57-30 24-41C81-84 22-81 20-136c-2-80 154-74 161-7" id="bi"/><g id="e"><use transform="matrix(0.06790123456790124,0,0,0.06790123456790124,0,0)" xlink:href="#bb"/><use transform="matrix(0.06790123456790124,0,0,0.06790123456790124,13.580246913580249,0)" xlink:href="#bc"/><use transform="matrix(0.06790123456790124,0,0,0.06790123456790124,28.45061728395062,0)" xlink:href="#aX"/><use transform="matrix(0.06790123456790124,0,0,0.06790123456790124,43.320987654320994,0)" xlink:href="#bg"/><use transform="matrix(0.06790123456790124,0,0,0.06790123456790124,50.11111111111112,0)" xlink:href="#bh"/><use transform="matrix(0.06790123456790124,0,0,0.06790123456790124,64.9814814814815,0)" xlink:href="#aX"/><use transform="matrix(0.06790123456790124,0,0,0.06790123456790124,79.85185185185186,0)" xlink:href="#bb"/><use transform="matrix(0.06790123456790124,0,0,0.06790123456790124,93.43209876543212,0)" xlink:href="#be"/><use transform="matrix(0.06790123456790124,0,0,0.06790123456790124,101.51234567901237,0)" xlink:href="#aW"/><use transform="matrix(0.06790123456790124,0,0,0.06790123456790124,108.3024691358025,0)" xlink:href="#bc"/><use transform="matrix(0.06790123456790124,0,0,0.06790123456790124,123.17283950617286,0)" xlink:href="#aX"/><use transform="matrix(0.06790123456790124,0,0,0.06790123456790124,138.04320987654324,0)" xlink:href="#bi"/></g><g id="f"><use transform="matrix(0.06790123456790124,0,0,0.06790123456790124,0,0)" xlink:href="#aZ"/><use transform="matrix(0.06790123456790124,0,0,0.06790123456790124,13.580246913580249,0)" xlink:href="#aX"/><use transform="matrix(0.06790123456790124,0,0,0.06790123456790124,28.45061728395062,0)" xlink:href="#aY"/></g><path fill="#333" d="M135-194c53 0 70 44 70 98 0 56-19 98-73 100-31 1-45-17-59-34 3 33 2 69 2 105H25l-1-265h48c2 10 0 23 3 31 11-24 29-35 60-35zM114-30c33 0 39-31 40-66 0-38-9-64-40-64-56 0-55 130 0 130" id="bj"/><path fill="#333" d="M185-48c-13 30-37 53-82 52C43 2 14-33 14-96s30-98 90-98c62 0 83 45 84 108H66c0 31 8 55 39 56 18 0 30-7 34-22zm-45-69c5-46-57-63-70-21-2 6-4 13-4 21h74" id="bk"/><g id="g"><use transform="matrix(0.06790123456790124,0,0,0.06790123456790124,0,0)" xlink:href="#aZ"/><use transform="matrix(0.06790123456790124,0,0,0.06790123456790124,13.580246913580249,0)" xlink:href="#bj"/><use transform="matrix(0.06790123456790124,0,0,0.06790123456790124,28.45061728395062,0)" xlink:href="#bj"/><use transform="matrix(0.06790123456790124,0,0,0.06790123456790124,43.320987654320994,0)" xlink:href="#bk"/><use transform="matrix(0.06790123456790124,0,0,0.06790123456790124,56.90123456790124,0)" xlink:href="#aX"/><use transform="matrix(0.06790123456790124,0,0,0.06790123456790124,71.77160493827162,0)" xlink:href="#aY"/></g><g id="h"><use transform="matrix(0.06790123456790124,0,0,0.06790123456790124,0,0)" xlink:href="#aW"/><use transform="matrix(0.06790123456790124,0,0,0.06790123456790124,6.790123456790124,0)" xlink:href="#be"/></g><g id="i"><use transform="matrix(0.06790123456790124,0,0,0.06790123456790124,0,0)" xlink:href="#be"/><use transform="matrix(0.06790123456790124,0,0,0.06790123456790124,8.080246913580249,0)" xlink:href="#bc"/></g><use transform="matrix(0.06790123456790124,0,0,0.06790123456790124,0,0)" xlink:href="#aZ" id="j"/><g id="k"><use transform="matrix(0.06790123456790124,0,0,0.06790123456790124,0,0)" xlink:href="#ba"/><use transform="matrix(0.06790123456790124,0,0,0.06790123456790124,6.790123456790124,0)" xlink:href="#aW"/><use transform="matrix(0.06790123456790124,0,0,0.06790123456790124,13.580246913580249,0)" xlink:href="#bi"/><use transform="matrix(0.06790123456790124,0,0,0.06790123456790124,27.160493827160497,0)" xlink:href="#be"/></g><path fill="#333" d="M67-93c0 74 22 123 53 168H70C40 30 18-18 18-93s22-123 52-168h50c-32 44-53 94-53 168" id="bl"/><path fill="#333" d="M123 10C108 53 80 86 19 72V37c35 8 53-11 59-39L3-190h52l48 148c12-52 28-100 44-148h51" id="bm"/><g id="l"><use transform="matrix(0.06790123456790124,0,0,0.06790123456790124,0,0)" xlink:href="#bl"/><use transform="matrix(0.06790123456790124,0,0,0.06790123456790124,8.080246913580249,0)" xlink:href="#bi"/><use transform="matrix(0.06790123456790124,0,0,0.06790123456790124,21.660493827160497,0)" xlink:href="#aZ"/><use transform="matrix(0.06790123456790124,0,0,0.06790123456790124,35.24074074074075,0)" xlink:href="#bm"/></g><path fill="#333" d="M102-93c0 74-22 123-52 168H0C30 29 54-18 53-93c0-74-22-123-53-168h50c30 45 52 94 52 168" id="bn"/><g id="m"><use transform="matrix(0.06790123456790124,0,0,0.06790123456790124,0,0)" xlink:href="#bb"/><use transform="matrix(0.06790123456790124,0,0,0.06790123456790124,13.580246913580249,0)" xlink:href="#bb"/><use transform="matrix(0.06790123456790124,0,0,0.06790123456790124,27.160493827160497,0)" xlink:href="#ba"/><use transform="matrix(0.06790123456790124,0,0,0.06790123456790124,33.95061728395062,0)" xlink:href="#bi"/><use transform="matrix(0.06790123456790124,0,0,0.06790123456790124,47.530864197530875,0)" xlink:href="#be"/><use transform="matrix(0.06790123456790124,0,0,0.06790123456790124,55.611111111111114,0)" xlink:href="#bn"/></g><path fill="#333" d="M231 0h-52l-39-155L100 0H48L-1-190h46L77-45c9-52 24-97 36-145h53l37 145 32-145h46" id="bo"/><path fill="#333" d="M114-157C55-157 80-60 75 0H25v-261h50l-1 109c12-26 28-41 61-42 86-1 58 113 63 194h-50c-7-57 23-157-34-157" id="bp"/><g id="n"><use transform="matrix(0.06790123456790124,0,0,0.06790123456790124,0,0)" xlink:href="#bo"/><use transform="matrix(0.06790123456790124,0,0,0.06790123456790124,19.01234567901235,0)" xlink:href="#bp"/><use transform="matrix(0.06790123456790124,0,0,0.06790123456790124,33.88271604938272,0)" xlink:href="#aW"/><use transform="matrix(0.06790123456790124,0,0,0.06790123456790124,40.67283950617284,0)" xlink:href="#bb"/><use transform="matrix(0.06790123456790124,0,0,0.06790123456790124,54.253086419753096,0)" xlink:href="#bp"/></g><g id="o"><use transform="matrix(0.06790123456790124,0,0,0.06790123456790124,0,0)" xlink:href="#aW"/><use transform="matrix(0.06790123456790124,0,0,0.06790123456790124,6.790123456790124,0)" xlink:href="#bi"/></g><use transform="matrix(0.06790123456790124,0,0,0.06790123456790124,0,0)" xlink:href="#aZ" id="p"/><g id="q"><use transform="matrix(0.06790123456790124,0,0,0.06790123456790124,0,0)" xlink:href="#bb"/><use transform="matrix(0.06790123456790124,0,0,0.06790123456790124,13.580246913580249,0)" xlink:href="#bc"/><use transform="matrix(0.06790123456790124,0,0,0.06790123456790124,28.45061728395062,0)" xlink:href="#ba"/><use transform="matrix(0.06790123456790124,0,0,0.06790123456790124,35.24074074074075,0)" xlink:href="#ba"/><use transform="matrix(0.06790123456790124,0,0,0.06790123456790124,42.03086419753088,0)" xlink:href="#bk"/><use transform="matrix(0.06790123456790124,0,0,0.06790123456790124,55.61111111111112,0)" xlink:href="#bb"/><use transform="matrix(0.06790123456790124,0,0,0.06790123456790124,69.19135802469137,0)" xlink:href="#be"/><use transform="matrix(0.06790123456790124,0,0,0.06790123456790124,77.27160493827162,0)" xlink:href="#aW"/><use transform="matrix(0.06790123456790124,0,0,0.06790123456790124,84.06172839506176,0)" xlink:href="#bc"/><use transform="matrix(0.06790123456790124,0,0,0.06790123456790124,98.93209876543212,0)" xlink:href="#aX"/></g><path fill="#333" d="M121-226c-27-7-43 5-38 36h38v33H83V0H34v-157H6v-33h28c-9-59 32-81 87-68v32" id="bq"/><g id="r"><use transform="matrix(0.06790123456790124,0,0,0.06790123456790124,0,0)" xlink:href="#bc"/><use transform="matrix(0.06790123456790124,0,0,0.06790123456790124,14.870370370370372,0)" xlink:href="#bq"/></g><g id="s"><use transform="matrix(0.06790123456790124,0,0,0.06790123456790124,0,0)" xlink:href="#aZ"/><use transform="matrix(0.06790123456790124,0,0,0.06790123456790124,13.580246913580249,0)" xlink:href="#ba"/><use transform="matrix(0.06790123456790124,0,0,0.06790123456790124,20.370370370370374,0)" xlink:href="#ba"/></g><g id="t"><use transform="matrix(0.06790123456790124,0,0,0.06790123456790124,0,0)" xlink:href="#bb"/><use transform="matrix(0.06790123456790124,0,0,0.06790123456790124,13.580246913580249,0)" xlink:href="#bc"/><use transform="matrix(0.06790123456790124,0,0,0.06790123456790124,28.45061728395062,0)" xlink:href="#bc"/><use transform="matrix(0.06790123456790124,0,0,0.06790123456790124,43.320987654320994,0)" xlink:href="#bd"/><use transform="matrix(0.06790123456790124,0,0,0.06790123456790124,52.827160493827165,0)" xlink:href="#aY"/><use transform="matrix(0.06790123456790124,0,0,0.06790123456790124,67.69753086419753,0)" xlink:href="#aW"/><use transform="matrix(0.06790123456790124,0,0,0.06790123456790124,74.48765432098766,0)" xlink:href="#aX"/><use transform="matrix(0.06790123456790124,0,0,0.06790123456790124,89.35802469135803,0)" xlink:href="#aZ"/><use transform="matrix(0.06790123456790124,0,0,0.06790123456790124,102.9382716049383,0)" xlink:href="#be"/><use transform="matrix(0.06790123456790124,0,0,0.06790123456790124,111.01851851851853,0)" xlink:href="#aW"/><use transform="matrix(0.06790123456790124,0,0,0.06790123456790124,117.80864197530866,0)" xlink:href="#bc"/><use transform="matrix(0.06790123456790124,0,0,0.06790123456790124,132.67901234567904,0)" xlink:href="#aX"/></g><g id="u"><use transform="matrix(0.06790123456790124,0,0,0.06790123456790124,0,0)" xlink:href="#aW"/><use transform="matrix(0.06790123456790124,0,0,0.06790123456790124,6.790123456790124,0)" xlink:href="#aX"/></g><g id="v"><use transform="matrix(0.06790123456790124,0,0,0.06790123456790124,0,0)" xlink:href="#be"/><use transform="matrix(0.06790123456790124,0,0,0.06790123456790124,8.080246913580249,0)" xlink:href="#bp"/><use transform="matrix(0.06790123456790124,0,0,0.06790123456790124,22.95061728395062,0)" xlink:href="#bk"/></g><path fill="#333" d="M24 0v-54h51V0H24" id="br"/><g id="w"><use transform="matrix(0.06790123456790124,0,0,0.06790123456790124,0,0)" xlink:href="#bi"/><use transform="matrix(0.06790123456790124,0,0,0.06790123456790124,13.580246913580249,0)" xlink:href="#bk"/><use transform="matrix(0.06790123456790124,0,0,0.06790123456790124,27.160493827160497,0)" xlink:href="#aX"/><use transform="matrix(0.06790123456790124,0,0,0.06790123456790124,42.03086419753087,0)" xlink:href="#be"/><use transform="matrix(0.06790123456790124,0,0,0.06790123456790124,50.111111111111114,0)" xlink:href="#bk"/><use transform="matrix(0.06790123456790124,0,0,0.06790123456790124,63.69135802469136,0)" xlink:href="#aX"/><use transform="matrix(0.06790123456790124,0,0,0.06790123456790124,78.56172839506173,0)" xlink:href="#bb"/><use transform="matrix(0.06790123456790124,0,0,0.06790123456790124,92.14197530864199,0)" xlink:href="#bk"/><use transform="matrix(0.06790123456790124,0,0,0.06790123456790124,105.72222222222224,0)" xlink:href="#br"/></g><g id="x"><use transform="matrix(0.06790123456790124,0,0,0.06790123456790124,0,0)" xlink:href="#aW"/><use transform="matrix(0.06790123456790124,0,0,0.06790123456790124,6.790123456790124,0)" xlink:href="#bi"/></g><g id="y"><use transform="matrix(0.06790123456790124,0,0,0.06790123456790124,0,0)" xlink:href="#bb"/><use transform="matrix(0.06790123456790124,0,0,0.06790123456790124,13.580246913580249,0)" xlink:href="#bb"/><use transform="matrix(0.06790123456790124,0,0,0.06790123456790124,27.160493827160497,0)" xlink:href="#ba"/><use transform="matrix(0.06790123456790124,0,0,0.06790123456790124,33.95061728395062,0)" xlink:href="#bi"/><use transform="matrix(0.06790123456790124,0,0,0.06790123456790124,47.530864197530875,0)" xlink:href="#be"/></g><path fill="#333" d="M220-157c-53 9-28 100-34 157h-49v-107c1-27-5-49-29-50C55-147 81-57 75 0H25l-1-190h47c2 12-1 28 3 38 10-53 101-56 108 0 13-22 24-43 59-42 82 1 51 116 57 194h-49v-107c-1-25-5-48-29-50" id="bs"/><path fill="#333" d="M110-251c83-7 118 89 53 130-17 10-36 21-38 46H78c2-56 65-53 71-103 2-21-15-35-38-34-25 1-41 14-44 38l-50-2c6-48 39-70 93-75zM77 0v-47h51V0H77" id="bt"/><g id="z"><use transform="matrix(0.06790123456790124,0,0,0.06790123456790124,0,0)" xlink:href="#bk"/><use transform="matrix(0.06790123456790124,0,0,0.06790123456790124,13.580246913580249,0)" xlink:href="#bs"/><use transform="matrix(0.06790123456790124,0,0,0.06790123456790124,35.308641975308646,0)" xlink:href="#bj"/><use transform="matrix(0.06790123456790124,0,0,0.06790123456790124,50.17901234567902,0)" xlink:href="#be"/><use transform="matrix(0.06790123456790124,0,0,0.06790123456790124,58.25925925925927,0)" xlink:href="#bm"/><use transform="matrix(0.06790123456790124,0,0,0.06790123456790124,71.83950617283952,0)" xlink:href="#bt"/></g><path fill="#333" d="M175 0L67-191c6 58 2 128 3 191H24v-248h59L193-55c-6-58-2-129-3-193h46V0h-61" id="bu"/><g id="A"><use transform="matrix(0.06790123456790124,0,0,0.06790123456790124,0,0)" xlink:href="#bu"/><use transform="matrix(0.06790123456790124,0,0,0.06790123456790124,17.58641975308642,0)" xlink:href="#bc"/></g><path fill="#333" d="M76-54c-1 42 2 86-19 110H24C36 42 46 24 48 0H25v-54h51" id="bv"/><g id="B"><use transform="matrix(0.06790123456790124,0,0,0.06790123456790124,0,0)" xlink:href="#aX"/><use transform="matrix(0.06790123456790124,0,0,0.06790123456790124,14.870370370370372,0)" xlink:href="#bc"/><use transform="matrix(0.06790123456790124,0,0,0.06790123456790124,29.740740740740744,0)" xlink:href="#bh"/><use transform="matrix(0.06790123456790124,0,0,0.06790123456790124,44.611111111111114,0)" xlink:href="#aX"/><use transform="matrix(0.06790123456790124,0,0,0.06790123456790124,59.48148148148149,0)" xlink:href="#bi"/><use transform="matrix(0.06790123456790124,0,0,0.06790123456790124,73.06172839506173,0)" xlink:href="#bv"/></g><g id="C"><use transform="matrix(0.06790123456790124,0,0,0.06790123456790124,0,0)" xlink:href="#bl"/><use transform="matrix(0.06790123456790124,0,0,0.06790123456790124,8.080246913580249,0)" xlink:href="#bi"/><use transform="matrix(0.06790123456790124,0,0,0.06790123456790124,21.660493827160497,0)" xlink:href="#aZ"/><use transform="matrix(0.06790123456790124,0,0,0.06790123456790124,35.24074074074075,0)" xlink:href="#bm"/></g><g id="D"><use transform="matrix(0.06790123456790124,0,0,0.06790123456790124,0,0)" xlink:href="#bu"/><use transform="matrix(0.06790123456790124,0,0,0.06790123456790124,17.58641975308642,0)" xlink:href="#bc"/><use transform="matrix(0.06790123456790124,0,0,0.06790123456790124,32.45679012345679,0)" xlink:href="#bh"/><use transform="matrix(0.06790123456790124,0,0,0.06790123456790124,47.327160493827165,0)" xlink:href="#aX"/><use transform="matrix(0.06790123456790124,0,0,0.06790123456790124,62.19753086419754,0)" xlink:href="#ba"/><use transform="matrix(0.06790123456790124,0,0,0.06790123456790124,68.98765432098766,0)" xlink:href="#bi"/><use transform="matrix(0.06790123456790124,0,0,0.06790123456790124,82.56790123456791,0)" xlink:href="#be"/><use transform="matrix(0.06790123456790124,0,0,0.06790123456790124,90.64814814814817,0)" xlink:href="#bn"/></g><g id="E"><use transform="matrix(0.06790123456790124,0,0,0.06790123456790124,0,0)" xlink:href="#be"/><use transform="matrix(0.06790123456790124,0,0,0.06790123456790124,8.080246913580249,0)" xlink:href="#bp"/><use transform="matrix(0.06790123456790124,0,0,0.06790123456790124,22.95061728395062,0)" xlink:href="#aZ"/><use transform="matrix(0.06790123456790124,0,0,0.06790123456790124,36.53086419753087,0)" xlink:href="#be"/></g><g id="F"><use transform="matrix(0.06790123456790124,0,0,0.06790123456790124,0,0)" xlink:href="#bp"/><use transform="matrix(0.06790123456790124,0,0,0.06790123456790124,14.870370370370372,0)" xlink:href="#bc"/><use transform="matrix(0.06790123456790124,0,0,0.06790123456790124,29.740740740740744,0)" xlink:href="#ba"/><use transform="matrix(0.06790123456790124,0,0,0.06790123456790124,36.53086419753087,0)" xlink:href="#aY"/><use transform="matrix(0.06790123456790124,0,0,0.06790123456790124,51.40123456790124,0)" xlink:href="#bi"/></g><g id="G"><use transform="matrix(0.06790123456790124,0,0,0.06790123456790124,0,0)" xlink:href="#be"/><use transform="matrix(0.06790123456790124,0,0,0.06790123456790124,8.080246913580249,0)" xlink:href="#bp"/><use transform="matrix(0.06790123456790124,0,0,0.06790123456790124,22.95061728395062,0)" xlink:href="#bk"/></g><g id="H"><use transform="matrix(0.06790123456790124,0,0,0.06790123456790124,0,0)" xlink:href="#aX"/><use transform="matrix(0.06790123456790124,0,0,0.06790123456790124,14.870370370370372,0)" xlink:href="#bc"/><use transform="matrix(0.06790123456790124,0,0,0.06790123456790124,29.740740740740744,0)" xlink:href="#bh"/><use transform="matrix(0.06790123456790124,0,0,0.06790123456790124,44.611111111111114,0)" xlink:href="#aX"/></g><g id="I"><use transform="matrix(0.06790123456790124,0,0,0.06790123456790124,0,0)" xlink:href="#aZ"/><use transform="matrix(0.06790123456790124,0,0,0.06790123456790124,13.580246913580249,0)" xlink:href="#aX"/><use transform="matrix(0.06790123456790124,0,0,0.06790123456790124,28.45061728395062,0)" xlink:href="#aY"/></g><g id="J"><use transform="matrix(0.06790123456790124,0,0,0.06790123456790124,0,0)" xlink:href="#aW"/><use transform="matrix(0.06790123456790124,0,0,0.06790123456790124,6.790123456790124,0)" xlink:href="#be"/><use transform="matrix(0.06790123456790124,0,0,0.06790123456790124,14.870370370370374,0)" xlink:href="#bi"/></g><g id="K"><use transform="matrix(0.06790123456790124,0,0,0.06790123456790124,0,0)" xlink:href="#bj"/><use transform="matrix(0.06790123456790124,0,0,0.06790123456790124,14.870370370370372,0)" xlink:href="#bc"/><use transform="matrix(0.06790123456790124,0,0,0.06790123456790124,29.740740740740744,0)" xlink:href="#bi"/><use transform="matrix(0.06790123456790124,0,0,0.06790123456790124,43.320987654320994,0)" xlink:href="#aW"/><use transform="matrix(0.06790123456790124,0,0,0.06790123456790124,50.11111111111112,0)" xlink:href="#be"/><use transform="matrix(0.06790123456790124,0,0,0.06790123456790124,58.19135802469137,0)" xlink:href="#aW"/><use transform="matrix(0.06790123456790124,0,0,0.06790123456790124,64.9814814814815,0)" xlink:href="#bc"/><use transform="matrix(0.06790123456790124,0,0,0.06790123456790124,79.85185185185186,0)" xlink:href="#aX"/></g><path fill="#333" d="M24 0v-248h52v208h133V0H24" id="bw"/><g id="L"><use transform="matrix(0.06790123456790124,0,0,0.06790123456790124,0,0)" xlink:href="#bu"/><use transform="matrix(0.06790123456790124,0,0,0.06790123456790124,17.58641975308642,0)" xlink:href="#bc"/><use transform="matrix(0.06790123456790124,0,0,0.06790123456790124,32.45679012345679,0)" xlink:href="#bh"/><use transform="matrix(0.06790123456790124,0,0,0.06790123456790124,47.327160493827165,0)" xlink:href="#aX"/><use transform="matrix(0.06790123456790124,0,0,0.06790123456790124,62.19753086419754,0)" xlink:href="#bw"/><use transform="matrix(0.06790123456790124,0,0,0.06790123456790124,77.06790123456791,0)" xlink:href="#bi"/><use transform="matrix(0.06790123456790124,0,0,0.06790123456790124,90.64814814814817,0)" xlink:href="#be"/></g><path fill="#333" d="M128 0H69L1-190h53L99-40l48-150h52" id="bx"/><path fill="#333" d="M135-194c52 0 70 43 70 98 0 56-19 99-73 100-30 1-46-15-58-35L72 0H24l1-261h50v104c11-23 29-37 60-37zM114-30c31 0 40-27 40-66 0-37-7-63-39-63s-41 28-41 65c0 36 8 64 40 64" id="by"/><g id="M"><use transform="matrix(0.06790123456790124,0,0,0.06790123456790124,0,0)" xlink:href="#bx"/><use transform="matrix(0.06790123456790124,0,0,0.06790123456790124,13.580246913580249,0)" xlink:href="#bk"/><use transform="matrix(0.06790123456790124,0,0,0.06790123456790124,27.160493827160497,0)" xlink:href="#bd"/><use transform="matrix(0.06790123456790124,0,0,0.06790123456790124,36.66666666666667,0)" xlink:href="#by"/><use transform="matrix(0.06790123456790124,0,0,0.06790123456790124,51.537037037037045,0)" xlink:href="#bi"/></g><g id="N"><use transform="matrix(0.06790123456790124,0,0,0.06790123456790124,0,0)" xlink:href="#bi"/><use transform="matrix(0.06790123456790124,0,0,0.06790123456790124,13.580246913580249,0)" xlink:href="#bk"/><use transform="matrix(0.06790123456790124,0,0,0.06790123456790124,27.160493827160497,0)" xlink:href="#aX"/><use transform="matrix(0.06790123456790124,0,0,0.06790123456790124,42.03086419753087,0)" xlink:href="#be"/><use transform="matrix(0.06790123456790124,0,0,0.06790123456790124,50.111111111111114,0)" xlink:href="#bk"/><use transform="matrix(0.06790123456790124,0,0,0.06790123456790124,63.69135802469136,0)" xlink:href="#aX"/><use transform="matrix(0.06790123456790124,0,0,0.06790123456790124,78.56172839506173,0)" xlink:href="#bb"/><use transform="matrix(0.06790123456790124,0,0,0.06790123456790124,92.14197530864199,0)" xlink:href="#bk"/></g><g id="O"><use transform="matrix(0.06790123456790124,0,0,0.06790123456790124,0,0)" xlink:href="#aZ"/><use transform="matrix(0.06790123456790124,0,0,0.06790123456790124,13.580246913580249,0)" xlink:href="#bj"/><use transform="matrix(0.06790123456790124,0,0,0.06790123456790124,28.45061728395062,0)" xlink:href="#bj"/><use transform="matrix(0.06790123456790124,0,0,0.06790123456790124,43.320987654320994,0)" xlink:href="#bk"/><use transform="matrix(0.06790123456790124,0,0,0.06790123456790124,56.90123456790124,0)" xlink:href="#aX"/><use transform="matrix(0.06790123456790124,0,0,0.06790123456790124,71.77160493827162,0)" xlink:href="#aY"/></g><g id="P"><use transform="matrix(0.06790123456790124,0,0,0.06790123456790124,0,0)" xlink:href="#bb"/><use transform="matrix(0.06790123456790124,0,0,0.06790123456790124,13.580246913580249,0)" xlink:href="#bc"/><use transform="matrix(0.06790123456790124,0,0,0.06790123456790124,28.45061728395062,0)" xlink:href="#ba"/><use transform="matrix(0.06790123456790124,0,0,0.06790123456790124,35.24074074074075,0)" xlink:href="#ba"/><use transform="matrix(0.06790123456790124,0,0,0.06790123456790124,42.03086419753088,0)" xlink:href="#bk"/><use transform="matrix(0.06790123456790124,0,0,0.06790123456790124,55.61111111111112,0)" xlink:href="#bb"/><use transform="matrix(0.06790123456790124,0,0,0.06790123456790124,69.19135802469137,0)" xlink:href="#be"/><use transform="matrix(0.06790123456790124,0,0,0.06790123456790124,77.27160493827162,0)" xlink:href="#aW"/><use transform="matrix(0.06790123456790124,0,0,0.06790123456790124,84.06172839506176,0)" xlink:href="#bc"/><use transform="matrix(0.06790123456790124,0,0,0.06790123456790124,98.93209876543212,0)" xlink:href="#aX"/><use transform="matrix(0.06790123456790124,0,0,0.06790123456790124,113.80246913580248,0)" xlink:href="#bl"/><use transform="matrix(0.06790123456790124,0,0,0.06790123456790124,121.88271604938274,0)" xlink:href="#bi"/><use transform="matrix(0.06790123456790124,0,0,0.06790123456790124,135.462962962963,0)" xlink:href="#aZ"/><use transform="matrix(0.06790123456790124,0,0,0.06790123456790124,149.04320987654324,0)" xlink:href="#bm"/></g><g id="Q"><use transform="matrix(0.06790123456790124,0,0,0.06790123456790124,0,0)" xlink:href="#bx"/><use transform="matrix(0.06790123456790124,0,0,0.06790123456790124,13.580246913580249,0)" xlink:href="#bk"/><use transform="matrix(0.06790123456790124,0,0,0.06790123456790124,27.160493827160497,0)" xlink:href="#bd"/><use transform="matrix(0.06790123456790124,0,0,0.06790123456790124,36.66666666666667,0)" xlink:href="#by"/><use transform="matrix(0.06790123456790124,0,0,0.06790123456790124,51.537037037037045,0)" xlink:href="#ba"/><use transform="matrix(0.06790123456790124,0,0,0.06790123456790124,58.32716049382717,0)" xlink:href="#bi"/><use transform="matrix(0.06790123456790124,0,0,0.06790123456790124,71.90740740740742,0)" xlink:href="#be"/><use transform="matrix(0.06790123456790124,0,0,0.06790123456790124,79.98765432098767,0)" xlink:href="#bn"/></g><g id="R"><use transform="matrix(0.06790123456790124,0,0,0.06790123456790124,0,0)" xlink:href="#aW"/><use transform="matrix(0.06790123456790124,0,0,0.06790123456790124,6.790123456790124,0)" xlink:href="#aX"/></g><g id="S"><use transform="matrix(0.06790123456790124,0,0,0.06790123456790124,0,0)" xlink:href="#bi"/><use transform="matrix(0.06790123456790124,0,0,0.06790123456790124,13.580246913580249,0)" xlink:href="#bk"/><use transform="matrix(0.06790123456790124,0,0,0.06790123456790124,27.160493827160497,0)" xlink:href="#aX"/><use transform="matrix(0.06790123456790124,0,0,0.06790123456790124,42.03086419753087,0)" xlink:href="#be"/><use transform="matrix(0.06790123456790124,0,0,0.06790123456790124,50.111111111111114,0)" xlink:href="#bk"/><use transform="matrix(0.06790123456790124,0,0,0.06790123456790124,63.69135802469136,0)" xlink:href="#aX"/><use transform="matrix(0.06790123456790124,0,0,0.06790123456790124,78.56172839506173,0)" xlink:href="#bb"/><use transform="matrix(0.06790123456790124,0,0,0.06790123456790124,92.14197530864199,0)" xlink:href="#bk"/><use transform="matrix(0.06790123456790124,0,0,0.06790123456790124,105.72222222222224,0)" xlink:href="#br"/></g><g id="T"><use transform="matrix(0.06790123456790124,0,0,0.06790123456790124,0,0)" xlink:href="#bx"/><use transform="matrix(0.06790123456790124,0,0,0.06790123456790124,13.580246913580249,0)" xlink:href="#bk"/><use transform="matrix(0.06790123456790124,0,0,0.06790123456790124,27.160493827160497,0)" xlink:href="#bd"/><use transform="matrix(0.06790123456790124,0,0,0.06790123456790124,36.66666666666667,0)" xlink:href="#by"/><use transform="matrix(0.06790123456790124,0,0,0.06790123456790124,51.537037037037045,0)" xlink:href="#ba"/><use transform="matrix(0.06790123456790124,0,0,0.06790123456790124,58.32716049382717,0)" xlink:href="#bi"/><use transform="matrix(0.06790123456790124,0,0,0.06790123456790124,71.90740740740742,0)" xlink:href="#be"/></g><path fill="#333" d="M240-174c0 40-23 61-54 70L253 0h-59l-57-94H76V0H24v-248c93 4 217-23 216 74zM76-134c48-2 112 12 112-38 0-48-66-32-112-35v73" id="bz"/><g id="U"><use transform="matrix(0.06790123456790124,0,0,0.06790123456790124,0,0)" xlink:href="#bz"/><use transform="matrix(0.06790123456790124,0,0,0.06790123456790124,17.58641975308642,0)" xlink:href="#bk"/><use transform="matrix(0.06790123456790124,0,0,0.06790123456790124,31.16666666666667,0)" xlink:href="#be"/><use transform="matrix(0.06790123456790124,0,0,0.06790123456790124,39.24691358024692,0)" xlink:href="#bh"/><use transform="matrix(0.06790123456790124,0,0,0.06790123456790124,54.11728395061729,0)" xlink:href="#bd"/><use transform="matrix(0.06790123456790124,0,0,0.06790123456790124,63.62345679012347,0)" xlink:href="#aX"/></g><g id="V"><use transform="matrix(0.06790123456790124,0,0,0.06790123456790124,0,0)" xlink:href="#ba"/><use transform="matrix(0.06790123456790124,0,0,0.06790123456790124,6.790123456790124,0)" xlink:href="#aW"/><use transform="matrix(0.06790123456790124,0,0,0.06790123456790124,13.580246913580249,0)" xlink:href="#bi"/><use transform="matrix(0.06790123456790124,0,0,0.06790123456790124,27.160493827160497,0)" xlink:href="#be"/><use transform="matrix(0.06790123456790124,0,0,0.06790123456790124,35.24074074074075,0)" xlink:href="#bi"/></g><g id="W"><use transform="matrix(0.06790123456790124,0,0,0.06790123456790124,0,0)" xlink:href="#bb"/><use transform="matrix(0.06790123456790124,0,0,0.06790123456790124,13.580246913580249,0)" xlink:href="#bd"/><use transform="matrix(0.06790123456790124,0,0,0.06790123456790124,23.086419753086425,0)" xlink:href="#bk"/><use transform="matrix(0.06790123456790124,0,0,0.06790123456790124,36.66666666666667,0)" xlink:href="#aZ"/><use transform="matrix(0.06790123456790124,0,0,0.06790123456790124,50.24691358024692,0)" xlink:href="#be"/><use transform="matrix(0.06790123456790124,0,0,0.06790123456790124,58.32716049382716,0)" xlink:href="#bk"/><use transform="matrix(0.06790123456790124,0,0,0.06790123456790124,71.90740740740742,0)" xlink:href="#aY"/></g><g id="X"><use transform="matrix(0.06790123456790124,0,0,0.06790123456790124,0,0)" xlink:href="#be"/><use transform="matrix(0.06790123456790124,0,0,0.06790123456790124,8.080246913580249,0)" xlink:href="#bp"/><use transform="matrix(0.06790123456790124,0,0,0.06790123456790124,22.95061728395062,0)" xlink:href="#bk"/><use transform="matrix(0.06790123456790124,0,0,0.06790123456790124,36.53086419753087,0)" xlink:href="#aX"/></g><path fill="#333" d="M169-182c-1-43-94-46-97-3 18 66 151 10 154 114 3 95-165 93-204 36-6-8-10-19-12-30l50-8c3 46 112 56 116 5-17-69-150-10-154-114-4-87 153-88 188-35 5 8 8 18 10 28" id="bA"/><g id="Y"><use transform="matrix(0.06790123456790124,0,0,0.06790123456790124,0,0)" xlink:href="#bA"/><use transform="matrix(0.06790123456790124,0,0,0.06790123456790124,16.296296296296298,0)" xlink:href="#be"/><use transform="matrix(0.06790123456790124,0,0,0.06790123456790124,24.376543209876544,0)" xlink:href="#bc"/><use transform="matrix(0.06790123456790124,0,0,0.06790123456790124,39.24691358024692,0)" xlink:href="#bj"/></g><path fill="#333" d="M146-102V0H94v-102L6-248h54l60 105 60-105h54" id="bB"/><g id="Z"><use transform="matrix(0.06790123456790124,0,0,0.06790123456790124,0,0)" xlink:href="#bB"/><use transform="matrix(0.06790123456790124,0,0,0.06790123456790124,14.938271604938272,0)" xlink:href="#bk"/><use transform="matrix(0.06790123456790124,0,0,0.06790123456790124,28.51851851851852,0)" xlink:href="#bi"/></g><path fill="#333" d="M199 0l-22-63H83L61 0H9l90-248h61L250 0h-51zm-33-102l-36-108c-10 38-24 72-36 108h72" id="bC"/><g id="aa"><use transform="matrix(0.06790123456790124,0,0,0.06790123456790124,0,0)" xlink:href="#bC"/><use transform="matrix(0.06790123456790124,0,0,0.06790123456790124,17.58641975308642,0)" xlink:href="#bj"/><use transform="matrix(0.06790123456790124,0,0,0.06790123456790124,32.45679012345679,0)" xlink:href="#bj"/><use transform="matrix(0.06790123456790124,0,0,0.06790123456790124,47.327160493827165,0)" xlink:href="#bk"/><use transform="matrix(0.06790123456790124,0,0,0.06790123456790124,60.90740740740741,0)" xlink:href="#aX"/><use transform="matrix(0.06790123456790124,0,0,0.06790123456790124,75.77777777777779,0)" xlink:href="#aY"/></g><path fill="#333" d="M142-158h-39l-4-90h48zm-75 0H28l-4-90h48" id="bD"/><path fill="#333" d="M67-125c0 53 21 87 73 88 37 1 54-22 65-47l45 17C233-25 199 4 140 4 58 4 20-42 15-125 8-235 124-281 211-232c18 10 29 29 36 50l-46 12c-8-25-30-41-62-41-52 0-71 34-72 86" id="bE"/><g id="ab"><use transform="matrix(0.06790123456790124,0,0,0.06790123456790124,0,0)" xlink:href="#bD"/><use transform="matrix(0.06790123456790124,0,0,0.06790123456790124,11.543209876543212,0)" xlink:href="#bE"/><use transform="matrix(0.06790123456790124,0,0,0.06790123456790124,29.129629629629633,0)" xlink:href="#bb"/><use transform="matrix(0.06790123456790124,0,0,0.06790123456790124,42.70987654320988,0)" xlink:href="#aZ"/><use transform="matrix(0.06790123456790124,0,0,0.06790123456790124,56.29012345679013,0)" xlink:href="#by"/><use transform="matrix(0.06790123456790124,0,0,0.06790123456790124,71.1604938271605,0)" xlink:href="#bD"/></g><g id="ac"><use transform="matrix(0.06790123456790124,0,0,0.06790123456790124,0,0)" xlink:href="#aZ"/><use transform="matrix(0.06790123456790124,0,0,0.06790123456790124,13.580246913580249,0)" xlink:href="#bi"/></g><path fill="#333" d="M101-251c68 0 84 54 84 127C185-50 166 4 99 4S15-52 14-124c-1-75 17-127 87-127zm-1 216c37-5 36-46 36-89s4-89-36-89c-39 0-36 45-36 89 0 43-3 85 36 89" id="bF"/><use transform="matrix(0.06790123456790124,0,0,0.06790123456790124,0,0)" xlink:href="#bF" id="ad"/><g id="ae"><use transform="matrix(0.06790123456790124,0,0,0.06790123456790124,0,0)" xlink:href="#ba"/><use transform="matrix(0.06790123456790124,0,0,0.06790123456790124,6.790123456790124,0)" xlink:href="#aW"/><use transform="matrix(0.06790123456790124,0,0,0.06790123456790124,13.580246913580249,0)" xlink:href="#bi"/><use transform="matrix(0.06790123456790124,0,0,0.06790123456790124,27.160493827160497,0)" xlink:href="#be"/><use transform="matrix(0.06790123456790124,0,0,0.06790123456790124,35.24074074074075,0)" xlink:href="#br"/></g><g id="af"><use transform="matrix(0.06790123456790124,0,0,0.06790123456790124,0,0)" xlink:href="#bu"/><use transform="matrix(0.06790123456790124,0,0,0.06790123456790124,17.58641975308642,0)" xlink:href="#bc"/><use transform="matrix(0.06790123456790124,0,0,0.06790123456790124,32.45679012345679,0)" xlink:href="#be"/><use transform="matrix(0.06790123456790124,0,0,0.06790123456790124,40.53703703703704,0)" xlink:href="#bk"/></g><g id="ag"><use transform="matrix(0.06790123456790124,0,0,0.06790123456790124,0,0)" xlink:href="#bD"/><use transform="matrix(0.06790123456790124,0,0,0.06790123456790124,11.543209876543212,0)" xlink:href="#bE"/><use transform="matrix(0.06790123456790124,0,0,0.06790123456790124,29.129629629629633,0)" xlink:href="#bE"/><use transform="matrix(0.06790123456790124,0,0,0.06790123456790124,46.71604938271605,0)" xlink:href="#aZ"/><use transform="matrix(0.06790123456790124,0,0,0.06790123456790124,60.2962962962963,0)" xlink:href="#by"/><use transform="matrix(0.06790123456790124,0,0,0.06790123456790124,75.16666666666667,0)" xlink:href="#bD"/></g><g id="ah"><use transform="matrix(0.06790123456790124,0,0,0.06790123456790124,0,0)" xlink:href="#aW"/><use transform="matrix(0.06790123456790124,0,0,0.06790123456790124,6.790123456790124,0)" xlink:href="#bi"/></g><g id="ai"><use transform="matrix(0.06790123456790124,0,0,0.06790123456790124,0,0)" xlink:href="#aZ"/><use transform="matrix(0.06790123456790124,0,0,0.06790123456790124,13.580246913580249,0)" xlink:href="#bj"/><use transform="matrix(0.06790123456790124,0,0,0.06790123456790124,28.45061728395062,0)" xlink:href="#bj"/><use transform="matrix(0.06790123456790124,0,0,0.06790123456790124,43.320987654320994,0)" xlink:href="#bk"/><use transform="matrix(0.06790123456790124,0,0,0.06790123456790124,56.90123456790124,0)" xlink:href="#aX"/><use transform="matrix(0.06790123456790124,0,0,0.06790123456790124,71.77160493827162,0)" xlink:href="#aY"/><use transform="matrix(0.06790123456790124,0,0,0.06790123456790124,86.64197530864197,0)" xlink:href="#bk"/><use transform="matrix(0.06790123456790124,0,0,0.06790123456790124,100.22222222222223,0)" xlink:href="#aY"/></g><path fill="#333" d="M147 0L96-86 75-71V0H25v-261h50v150l67-79h53l-66 74L201 0h-54" id="bG"/><g id="aj"><use transform="matrix(0.06790123456790124,0,0,0.06790123456790124,0,0)" xlink:href="#bs"/><use transform="matrix(0.06790123456790124,0,0,0.06790123456790124,21.7283950617284,0)" xlink:href="#aZ"/><use transform="matrix(0.06790123456790124,0,0,0.06790123456790124,35.308641975308646,0)" xlink:href="#bG"/><use transform="matrix(0.06790123456790124,0,0,0.06790123456790124,48.88888888888889,0)" xlink:href="#bk"/></g><g id="ak"><use transform="matrix(0.06790123456790124,0,0,0.06790123456790124,0,0)" xlink:href="#bk"/><use transform="matrix(0.06790123456790124,0,0,0.06790123456790124,13.580246913580249,0)" xlink:href="#aZ"/><use transform="matrix(0.06790123456790124,0,0,0.06790123456790124,27.160493827160497,0)" xlink:href="#bi"/><use transform="matrix(0.06790123456790124,0,0,0.06790123456790124,40.74074074074075,0)" xlink:href="#bm"/></g><g id="al"><use transform="matrix(0.06790123456790124,0,0,0.06790123456790124,0,0)" xlink:href="#bq"/><use transform="matrix(0.06790123456790124,0,0,0.06790123456790124,8.080246913580249,0)" xlink:href="#aW"/><use transform="matrix(0.06790123456790124,0,0,0.06790123456790124,14.870370370370374,0)" xlink:href="#aX"/><use transform="matrix(0.06790123456790124,0,0,0.06790123456790124,29.740740740740748,0)" xlink:href="#aY"/></g><g id="am"><use transform="matrix(0.06790123456790124,0,0,0.06790123456790124,0,0)" xlink:href="#bo"/><use transform="matrix(0.06790123456790124,0,0,0.06790123456790124,19.01234567901235,0)" xlink:href="#bp"/><use transform="matrix(0.06790123456790124,0,0,0.06790123456790124,33.88271604938272,0)" xlink:href="#bk"/><use transform="matrix(0.06790123456790124,0,0,0.06790123456790124,47.46296296296297,0)" xlink:href="#be"/><use transform="matrix(0.06790123456790124,0,0,0.06790123456790124,55.543209876543216,0)" xlink:href="#bp"/><use transform="matrix(0.06790123456790124,0,0,0.06790123456790124,70.41358024691357,0)" xlink:href="#bk"/><use transform="matrix(0.06790123456790124,0,0,0.06790123456790124,83.99382716049384,0)" xlink:href="#bd"/></g><g id="an"><use transform="matrix(0.06790123456790124,0,0,0.06790123456790124,0,0)" xlink:href="#ba"/><use transform="matrix(0.06790123456790124,0,0,0.06790123456790124,6.790123456790124,0)" xlink:href="#aW"/><use transform="matrix(0.06790123456790124,0,0,0.06790123456790124,13.580246913580249,0)" xlink:href="#bi"/><use transform="matrix(0.06790123456790124,0,0,0.06790123456790124,27.160493827160497,0)" xlink:href="#be"/></g><g id="ao"><use transform="matrix(0.06790123456790124,0,0,0.06790123456790124,0,0)" xlink:href="#aW"/><use transform="matrix(0.06790123456790124,0,0,0.06790123456790124,6.790123456790124,0)" xlink:href="#bi"/></g><g id="ap"><use transform="matrix(0.06790123456790124,0,0,0.06790123456790124,0,0)" xlink:href="#bk"/><use transform="matrix(0.06790123456790124,0,0,0.06790123456790124,13.580246913580249,0)" xlink:href="#bs"/><use transform="matrix(0.06790123456790124,0,0,0.06790123456790124,35.308641975308646,0)" xlink:href="#bj"/><use transform="matrix(0.06790123456790124,0,0,0.06790123456790124,50.17901234567902,0)" xlink:href="#be"/><use transform="matrix(0.06790123456790124,0,0,0.06790123456790124,58.25925925925927,0)" xlink:href="#bm"/></g><g id="aq"><use transform="matrix(0.06790123456790124,0,0,0.06790123456790124,0,0)" xlink:href="#bc"/><use transform="matrix(0.06790123456790124,0,0,0.06790123456790124,14.870370370370372,0)" xlink:href="#bd"/></g><g id="ar"><use transform="matrix(0.06790123456790124,0,0,0.06790123456790124,0,0)" xlink:href="#aX"/><use transform="matrix(0.06790123456790124,0,0,0.06790123456790124,14.870370370370372,0)" xlink:href="#bc"/><use transform="matrix(0.06790123456790124,0,0,0.06790123456790124,29.740740740740744,0)" xlink:href="#be"/></g><g id="as"><use transform="matrix(0.06790123456790124,0,0,0.06790123456790124,0,0)" xlink:href="#aV"/><use transform="matrix(0.06790123456790124,0,0,0.06790123456790124,14.870370370370372,0)" xlink:href="#bc"/><use transform="matrix(0.06790123456790124,0,0,0.06790123456790124,29.740740740740744,0)" xlink:href="#bd"/></g><g id="at"><use transform="matrix(0.06790123456790124,0,0,0.06790123456790124,0,0)" xlink:href="#bk"/><use transform="matrix(0.06790123456790124,0,0,0.06790123456790124,13.580246913580249,0)" xlink:href="#aZ"/><use transform="matrix(0.06790123456790124,0,0,0.06790123456790124,27.160493827160497,0)" xlink:href="#bb"/><use transform="matrix(0.06790123456790124,0,0,0.06790123456790124,40.74074074074075,0)" xlink:href="#bp"/></g><g id="au"><use transform="matrix(0.06790123456790124,0,0,0.06790123456790124,0,0)" xlink:href="#bc"/><use transform="matrix(0.06790123456790124,0,0,0.06790123456790124,14.870370370370372,0)" xlink:href="#bq"/></g><g id="av"><use transform="matrix(0.06790123456790124,0,0,0.06790123456790124,0,0)" xlink:href="#be"/><use transform="matrix(0.06790123456790124,0,0,0.06790123456790124,8.080246913580249,0)" xlink:href="#bp"/><use transform="matrix(0.06790123456790124,0,0,0.06790123456790124,22.95061728395062,0)" xlink:href="#bk"/><use transform="matrix(0.06790123456790124,0,0,0.06790123456790124,36.53086419753087,0)" xlink:href="#bi"/><use transform="matrix(0.06790123456790124,0,0,0.06790123456790124,50.111111111111114,0)" xlink:href="#bk"/></g><path fill="#333" d="M62-158H24l-5-90h48" id="bH"/><g id="aw"><use transform="matrix(0.06790123456790124,0,0,0.06790123456790124,0,0)" xlink:href="#bj"/><use transform="matrix(0.06790123456790124,0,0,0.06790123456790124,14.870370370370372,0)" xlink:href="#bd"/><use transform="matrix(0.06790123456790124,0,0,0.06790123456790124,24.376543209876544,0)" xlink:href="#bc"/><use transform="matrix(0.06790123456790124,0,0,0.06790123456790124,39.24691358024692,0)" xlink:href="#bb"/><use transform="matrix(0.06790123456790124,0,0,0.06790123456790124,52.827160493827165,0)" xlink:href="#bk"/><use transform="matrix(0.06790123456790124,0,0,0.06790123456790124,66.40740740740742,0)" xlink:href="#bi"/><use transform="matrix(0.06790123456790124,0,0,0.06790123456790124,79.98765432098767,0)" xlink:href="#bi"/><use transform="matrix(0.06790123456790124,0,0,0.06790123456790124,93.56790123456793,0)" xlink:href="#bH"/></g><g id="ax"><use transform="matrix(0.06790123456790124,0,0,0.06790123456790124,0,0)" xlink:href="#bo"/><use transform="matrix(0.06790123456790124,0,0,0.06790123456790124,19.01234567901235,0)" xlink:href="#bk"/></g><g id="ay"><use transform="matrix(0.06790123456790124,0,0,0.06790123456790124,0,0)" xlink:href="#bh"/><use transform="matrix(0.06790123456790124,0,0,0.06790123456790124,14.870370370370372,0)" xlink:href="#bi"/><use transform="matrix(0.06790123456790124,0,0,0.06790123456790124,28.45061728395062,0)" xlink:href="#bk"/></g><g id="az"><use transform="matrix(0.06790123456790124,0,0,0.06790123456790124,0,0)" xlink:href="#bi"/><use transform="matrix(0.06790123456790124,0,0,0.06790123456790124,13.580246913580249,0)" xlink:href="#bj"/><use transform="matrix(0.06790123456790124,0,0,0.06790123456790124,28.45061728395062,0)" xlink:href="#aZ"/><use transform="matrix(0.06790123456790124,0,0,0.06790123456790124,42.03086419753087,0)" xlink:href="#bb"/><use transform="matrix(0.06790123456790124,0,0,0.06790123456790124,55.611111111111114,0)" xlink:href="#bm"/></g><path fill="#333" d="M136-208V0H84v-208H4v-40h212v40h-80" id="bI"/><path fill="#333" d="M195 0l-88-114-31 24V0H24v-248h52v113l112-113h60L142-143 257 0h-62" id="bJ"/><g id="aA"><use transform="matrix(0.06790123456790124,0,0,0.06790123456790124,0,0)" xlink:href="#bu"/><use transform="matrix(0.06790123456790124,0,0,0.06790123456790124,17.58641975308642,0)" xlink:href="#bw"/><use transform="matrix(0.06790123456790124,0,0,0.06790123456790124,30.62345679012346,0)" xlink:href="#bI"/><use transform="matrix(0.06790123456790124,0,0,0.06790123456790124,45.49382716049383,0)" xlink:href="#bJ"/></g><g id="aB"><use transform="matrix(0.06790123456790124,0,0,0.06790123456790124,0,0)" xlink:href="#be"/><use transform="matrix(0.06790123456790124,0,0,0.06790123456790124,8.080246913580249,0)" xlink:href="#bc"/><use transform="matrix(0.06790123456790124,0,0,0.06790123456790124,22.95061728395062,0)" xlink:href="#bc"/><use transform="matrix(0.06790123456790124,0,0,0.06790123456790124,37.820987654320994,0)" xlink:href="#ba"/></g><g id="aC"><use transform="matrix(0.06790123456790124,0,0,0.06790123456790124,0,0)" xlink:href="#bq"/><use transform="matrix(0.06790123456790124,0,0,0.06790123456790124,8.080246913580249,0)" xlink:href="#bc"/><use transform="matrix(0.06790123456790124,0,0,0.06790123456790124,22.95061728395062,0)" xlink:href="#bd"/></g><path fill="#333" d="M24-248c93 1 206-16 204 79-1 75-69 88-152 82V0H24v-248zm52 121c47 0 100 7 100-41 0-47-54-39-100-39v80" id="bK"/><path fill="#333" d="M140-251c80 0 125 45 125 126S219 4 139 4C58 4 15-44 15-125s44-126 125-126zm-1 214c52 0 73-35 73-88 0-50-21-86-72-86-52 0-73 35-73 86s22 88 72 88" id="bL"/><g id="aD"><use transform="matrix(0.06790123456790124,0,0,0.06790123456790124,0,0)" xlink:href="#bK"/><use transform="matrix(0.06790123456790124,0,0,0.06790123456790124,16.296296296296298,0)" xlink:href="#bL"/><use transform="matrix(0.06790123456790124,0,0,0.06790123456790124,35.308641975308646,0)" xlink:href="#bA"/><use transform="matrix(0.06790123456790124,0,0,0.06790123456790124,51.604938271604944,0)" xlink:href="#br"/></g><g id="aE"><use transform="matrix(0.06790123456790124,0,0,0.06790123456790124,0,0)" xlink:href="#bD"/><use transform="matrix(0.06790123456790124,0,0,0.06790123456790124,11.543209876543212,0)" xlink:href="#bu"/><use transform="matrix(0.06790123456790124,0,0,0.06790123456790124,29.129629629629633,0)" xlink:href="#bc"/><use transform="matrix(0.06790123456790124,0,0,0.06790123456790124,44.00000000000001,0)" xlink:href="#bh"/><use transform="matrix(0.06790123456790124,0,0,0.06790123456790124,58.87037037037038,0)" xlink:href="#aX"/><use transform="matrix(0.06790123456790124,0,0,0.06790123456790124,73.74074074074075,0)" xlink:href="#aZ"/><use transform="matrix(0.06790123456790124,0,0,0.06790123456790124,87.320987654321,0)" xlink:href="#by"/><use transform="matrix(0.06790123456790124,0,0,0.06790123456790124,102.19135802469137,0)" xlink:href="#bD"/></g><path fill="#333" d="M147 0H94L2-248h55l64 206c17-72 42-137 63-206h54" id="bM"/><g id="aF"><use transform="matrix(0.06790123456790124,0,0,0.06790123456790124,0,0)" xlink:href="#bD"/><use transform="matrix(0.06790123456790124,0,0,0.06790123456790124,11.543209876543212,0)" xlink:href="#bM"/><use transform="matrix(0.06790123456790124,0,0,0.06790123456790124,26.481481481481485,0)" xlink:href="#bk"/><use transform="matrix(0.06790123456790124,0,0,0.06790123456790124,40.061728395061735,0)" xlink:href="#bd"/><use transform="matrix(0.06790123456790124,0,0,0.06790123456790124,49.56790123456792,0)" xlink:href="#by"/><use transform="matrix(0.06790123456790124,0,0,0.06790123456790124,64.43827160493828,0)" xlink:href="#aZ"/><use transform="matrix(0.06790123456790124,0,0,0.06790123456790124,78.01851851851853,0)" xlink:href="#by"/><use transform="matrix(0.06790123456790124,0,0,0.06790123456790124,92.8888888888889,0)" xlink:href="#bD"/></g><g id="aG"><use transform="matrix(0.06790123456790124,0,0,0.06790123456790124,0,0)" xlink:href="#bD"/><use transform="matrix(0.06790123456790124,0,0,0.06790123456790124,11.543209876543212,0)" xlink:href="#bu"/><use transform="matrix(0.06790123456790124,0,0,0.06790123456790124,29.129629629629633,0)" xlink:href="#bc"/><use transform="matrix(0.06790123456790124,0,0,0.06790123456790124,44.00000000000001,0)" xlink:href="#bh"/><use transform="matrix(0.06790123456790124,0,0,0.06790123456790124,58.87037037037038,0)" xlink:href="#aX"/><use transform="matrix(0.06790123456790124,0,0,0.06790123456790124,73.74074074074075,0)" xlink:href="#aZ"/><use transform="matrix(0.06790123456790124,0,0,0.06790123456790124,87.320987654321,0)" xlink:href="#by"/><use transform="matrix(0.06790123456790124,0,0,0.06790123456790124,102.19135802469137,0)" xlink:href="#bD"/></g><g id="aH"><use transform="matrix(0.06790123456790124,0,0,0.06790123456790124,0,0)" xlink:href="#be"/><use transform="matrix(0.06790123456790124,0,0,0.06790123456790124,8.080246913580249,0)" xlink:href="#bc"/></g><g id="aI"><use transform="matrix(0.06790123456790124,0,0,0.06790123456790124,0,0)" xlink:href="#bD"/><use transform="matrix(0.06790123456790124,0,0,0.06790123456790124,11.543209876543212,0)" xlink:href="#bM"/><use transform="matrix(0.06790123456790124,0,0,0.06790123456790124,26.481481481481485,0)" xlink:href="#bk"/><use transform="matrix(0.06790123456790124,0,0,0.06790123456790124,40.061728395061735,0)" xlink:href="#bd"/><use transform="matrix(0.06790123456790124,0,0,0.06790123456790124,49.56790123456792,0)" xlink:href="#by"/><use transform="matrix(0.06790123456790124,0,0,0.06790123456790124,64.43827160493828,0)" xlink:href="#aZ"/><use transform="matrix(0.06790123456790124,0,0,0.06790123456790124,78.01851851851853,0)" xlink:href="#by"/><use transform="matrix(0.06790123456790124,0,0,0.06790123456790124,92.8888888888889,0)" xlink:href="#bD"/></g></defs></g></svg>